%TF.GenerationSoftware,Altium Limited,Altium Designer,19.1.7 (138)*%
G04 Layer_Color=128*
%FSLAX45Y45*%
%MOMM*%
%TF.FileFunction,Paste,Bot*%
%TF.Part,Single*%
G01*
G75*
%TA.AperFunction,SMDPad,CuDef*%
%ADD13R,0.45000X0.45000*%
%ADD14R,0.69000X1.60000*%
%ADD19R,1.10000X0.80000*%
%ADD28R,0.50000X0.70000*%
%TA.AperFunction,BGAPad,CuDef*%
%ADD90C,0.23000*%
%TA.AperFunction,SMDPad,CuDef*%
%ADD91R,0.90000X0.35000*%
%ADD92R,1.30000X4.40000*%
%ADD93R,4.40000X1.30000*%
%ADD94R,0.35000X0.90000*%
%ADD95R,0.90000X1.00000*%
%ADD96R,1.00000X0.90000*%
%ADD97R,0.45000X0.45000*%
%ADD98R,0.42000X0.40000*%
%ADD99R,0.85000X1.00000*%
%ADD100R,1.00000X0.85000*%
%ADD101R,0.40000X0.42000*%
%ADD102R,0.65000X0.65000*%
%ADD103R,0.65000X0.65000*%
%ADD104R,0.42000X0.22000*%
%ADD105R,0.22000X0.42000*%
%ADD106R,1.00000X0.40000*%
%ADD107R,0.40000X1.00000*%
%ADD108R,1.60000X0.69000*%
%ADD109R,0.90000X0.85000*%
%TA.AperFunction,ConnectorPad*%
%ADD110R,0.90000X1.00000*%
%TA.AperFunction,SMDPad,CuDef*%
%ADD111R,0.85000X0.90000*%
%ADD112R,0.60000X0.85000*%
%TA.AperFunction,ConnectorPad*%
%ADD113R,0.60000X0.55000*%
%ADD114R,0.80000X1.10000*%
%TA.AperFunction,SMDPad,CuDef*%
%ADD115R,0.85000X0.60000*%
%ADD116R,1.00000X1.00000*%
%ADD117R,1.00000X2.00000*%
%ADD118R,2.00000X1.00000*%
%ADD119R,1.05000X1.00000*%
%ADD120R,1.00000X1.00000*%
%ADD121R,0.60000X0.55000*%
%TA.AperFunction,ConnectorPad*%
%ADD122R,0.85000X0.90000*%
%ADD123R,0.60000X0.85000*%
%TA.AperFunction,SMDPad,CuDef*%
%ADD124R,0.40000X0.50000*%
%ADD125R,1.05000X1.10000*%
%ADD126R,1.00000X1.10000*%
%ADD127R,1.19000X2.22000*%
%ADD128R,0.50000X0.40000*%
%ADD129R,0.55000X0.60000*%
%ADD130R,0.66000X0.62000*%
%ADD131R,0.68000X0.74000*%
%ADD132R,0.62000X0.66000*%
%ADD133R,0.74000X0.68000*%
%ADD134R,0.75000X0.62000*%
%TA.AperFunction,ConnectorPad*%
%ADD135R,0.55000X0.60000*%
%TA.AperFunction,SMDPad,CuDef*%
%ADD136R,0.50000X0.50000*%
D13*
X616500Y6787500D02*
D03*
X678500D02*
D03*
X2641000Y2785000D02*
D03*
X2579000D02*
D03*
X6806000Y4540000D02*
D03*
X6744000D02*
D03*
D14*
X862500Y8271649D02*
D03*
X5120000Y5412925D02*
D03*
X4507500Y4367925D02*
D03*
X5507500Y3332500D02*
D03*
D19*
X2580000Y7170000D02*
D03*
Y7040000D02*
D03*
X2585000Y7385000D02*
D03*
Y7515000D02*
D03*
X4375000Y8105000D02*
D03*
Y8235000D02*
D03*
D28*
X362500Y5860000D02*
D03*
X257500D02*
D03*
D90*
X6470000Y8242500D02*
D03*
X6520000D02*
D03*
X6570000D02*
D03*
X6620000D02*
D03*
X6670000D02*
D03*
X6720000D02*
D03*
X6770000D02*
D03*
X6820000D02*
D03*
X6870000D02*
D03*
X6920000D02*
D03*
X6970000D02*
D03*
X7020000D02*
D03*
X6470000Y8292500D02*
D03*
X6520000D02*
D03*
X6570000D02*
D03*
X6620000D02*
D03*
X6670000D02*
D03*
X6720000D02*
D03*
X6770000D02*
D03*
X6820000D02*
D03*
X6870000D02*
D03*
X6920000D02*
D03*
X6970000D02*
D03*
X7020000D02*
D03*
X6470000Y8342500D02*
D03*
X6520000D02*
D03*
X6570000D02*
D03*
X6620000D02*
D03*
X6670000D02*
D03*
X6720000D02*
D03*
X6770000D02*
D03*
X6820000D02*
D03*
X6870000D02*
D03*
X6920000D02*
D03*
X6970000D02*
D03*
X7020000D02*
D03*
X6470000Y8392500D02*
D03*
X6520000D02*
D03*
X6570000D02*
D03*
X6620000D02*
D03*
X6670000D02*
D03*
X6720000D02*
D03*
X6770000D02*
D03*
X6820000D02*
D03*
X6870000D02*
D03*
X6920000D02*
D03*
X6970000D02*
D03*
X7020000D02*
D03*
X6470000Y8442500D02*
D03*
X6520000D02*
D03*
X6570000D02*
D03*
X6620000D02*
D03*
X6870000D02*
D03*
X6920000D02*
D03*
X6970000D02*
D03*
X7020000D02*
D03*
X6470000Y8492500D02*
D03*
X6520000D02*
D03*
X6570000D02*
D03*
X6620000D02*
D03*
X6720000D02*
D03*
X6770000D02*
D03*
X6870000D02*
D03*
X6920000D02*
D03*
X6970000D02*
D03*
X7020000D02*
D03*
X6470000Y8542500D02*
D03*
X6520000D02*
D03*
X6570000D02*
D03*
X6620000D02*
D03*
X6720000D02*
D03*
X6770000D02*
D03*
X6870000D02*
D03*
X6920000D02*
D03*
X6970000D02*
D03*
X7020000D02*
D03*
X6470000Y8592500D02*
D03*
X6520000D02*
D03*
X6570000D02*
D03*
X6620000D02*
D03*
X6870000D02*
D03*
X6920000D02*
D03*
X6970000D02*
D03*
X7020000D02*
D03*
X6470000Y8642500D02*
D03*
X6520000D02*
D03*
X6570000D02*
D03*
X6620000D02*
D03*
X6670000D02*
D03*
X6720000D02*
D03*
X6770000D02*
D03*
X6820000D02*
D03*
X6870000D02*
D03*
X6920000D02*
D03*
X6970000D02*
D03*
X7020000D02*
D03*
X6470000Y8692500D02*
D03*
X6520000D02*
D03*
X6570000D02*
D03*
X6620000D02*
D03*
X6670000D02*
D03*
X6720000D02*
D03*
X6770000D02*
D03*
X6820000D02*
D03*
X6870000D02*
D03*
X6920000D02*
D03*
X6970000D02*
D03*
X7020000D02*
D03*
X6470000Y8742500D02*
D03*
X6520000D02*
D03*
X6570000D02*
D03*
X6620000D02*
D03*
X6670000D02*
D03*
X6720000D02*
D03*
X6770000D02*
D03*
X6820000D02*
D03*
X6870000D02*
D03*
X6920000D02*
D03*
X6970000D02*
D03*
X7020000D02*
D03*
X6470000Y8792500D02*
D03*
X6520000D02*
D03*
X6570000D02*
D03*
X6620000D02*
D03*
X6670000D02*
D03*
X6720000D02*
D03*
X6770000D02*
D03*
X6820000D02*
D03*
X6870000D02*
D03*
X6920000D02*
D03*
X6970000D02*
D03*
X7020000D02*
D03*
D91*
X5242973Y8323204D02*
D03*
Y8373204D02*
D03*
Y8423204D02*
D03*
Y8473204D02*
D03*
Y8523204D02*
D03*
Y8573204D02*
D03*
Y8623204D02*
D03*
Y8673204D02*
D03*
X5527973Y8323204D02*
D03*
Y8373204D02*
D03*
Y8423204D02*
D03*
Y8473204D02*
D03*
Y8523204D02*
D03*
Y8573204D02*
D03*
Y8623204D02*
D03*
Y8673204D02*
D03*
D92*
X5385473Y8498204D02*
D03*
D93*
X5625564Y7220000D02*
D03*
X6741588Y7223213D02*
D03*
D94*
X5800564Y7077500D02*
D03*
X5750564D02*
D03*
X5700564D02*
D03*
X5650564D02*
D03*
X5600564D02*
D03*
X5550564D02*
D03*
X5500564D02*
D03*
X5450564D02*
D03*
X5800564Y7362500D02*
D03*
X5750564D02*
D03*
X5700564D02*
D03*
X5650564D02*
D03*
X5600564D02*
D03*
X5550564D02*
D03*
X5500564D02*
D03*
X5450564D02*
D03*
X6566588Y7365713D02*
D03*
X6616588D02*
D03*
X6666588D02*
D03*
X6716588D02*
D03*
X6766588D02*
D03*
X6816588D02*
D03*
X6866588D02*
D03*
X6916588D02*
D03*
X6566588Y7080713D02*
D03*
X6616588D02*
D03*
X6666588D02*
D03*
X6716588D02*
D03*
X6766588D02*
D03*
X6816588D02*
D03*
X6866588D02*
D03*
X6916588D02*
D03*
D95*
X4743638Y5135925D02*
D03*
X4634638D02*
D03*
X581575Y3725425D02*
D03*
X472575D02*
D03*
X2980362Y3950425D02*
D03*
X2871362D02*
D03*
X4895075Y3045862D02*
D03*
X5004075D02*
D03*
X1267500Y2605425D02*
D03*
X1107500D02*
D03*
X3145000Y2399575D02*
D03*
X2985000D02*
D03*
X3687500Y6692723D02*
D03*
X3527500D02*
D03*
X6557500Y2772500D02*
D03*
X6397500D02*
D03*
X6557075Y4867500D02*
D03*
X6397075D02*
D03*
D96*
X1353850Y8437425D02*
D03*
Y8328425D02*
D03*
X3982500Y4165937D02*
D03*
Y4274937D02*
D03*
X1975000Y7187500D02*
D03*
Y7027500D02*
D03*
X1153951Y7100000D02*
D03*
Y6940000D02*
D03*
D97*
X835000Y2466000D02*
D03*
Y2404000D02*
D03*
D98*
X1387500Y6806000D02*
D03*
Y6744000D02*
D03*
X3282500Y7131500D02*
D03*
Y7193500D02*
D03*
X1509723Y6737500D02*
D03*
Y6797500D02*
D03*
D99*
X4739138Y5325925D02*
D03*
X4634138D02*
D03*
X579575Y3909564D02*
D03*
X474575D02*
D03*
X2973362Y3760426D02*
D03*
X2868362D02*
D03*
X4902075Y3235861D02*
D03*
X5007075D02*
D03*
X501575Y8759648D02*
D03*
X396575D02*
D03*
X5793000Y2972936D02*
D03*
X5898000D02*
D03*
X5582925Y5820000D02*
D03*
X5477925D02*
D03*
X5425000Y5047500D02*
D03*
X5530000D02*
D03*
X3562500Y3236638D02*
D03*
X3457500D02*
D03*
D100*
X1538850Y8435000D02*
D03*
Y8330000D02*
D03*
X3798361Y4167075D02*
D03*
Y4272075D02*
D03*
X677500Y2352500D02*
D03*
Y2457500D02*
D03*
D101*
X3692500Y7192925D02*
D03*
X3632500D02*
D03*
D102*
X1716148Y6757500D02*
D03*
X1634148D02*
D03*
X6830000Y7783202D02*
D03*
X6940000D02*
D03*
X6829299Y7521138D02*
D03*
X6939299D02*
D03*
D103*
X3287500Y6811500D02*
D03*
Y6893500D02*
D03*
D104*
X797500Y8787500D02*
D03*
Y8747500D02*
D03*
Y8707500D02*
D03*
X702500Y8787500D02*
D03*
Y8747500D02*
D03*
Y8707500D02*
D03*
X832500Y2790000D02*
D03*
Y2830000D02*
D03*
Y2870000D02*
D03*
X927500Y2790000D02*
D03*
Y2830000D02*
D03*
Y2870000D02*
D03*
X5922500Y3370000D02*
D03*
Y3330000D02*
D03*
Y3290000D02*
D03*
X5827500Y3370000D02*
D03*
Y3330000D02*
D03*
Y3290000D02*
D03*
X4830000Y4337500D02*
D03*
Y4377500D02*
D03*
Y4417500D02*
D03*
X4925000Y4337500D02*
D03*
Y4377500D02*
D03*
Y4417500D02*
D03*
X5562500Y5450000D02*
D03*
Y5410000D02*
D03*
Y5370000D02*
D03*
X5467500Y5450000D02*
D03*
Y5410000D02*
D03*
Y5370000D02*
D03*
D105*
X3097500Y3060000D02*
D03*
X3137500D02*
D03*
X3177500D02*
D03*
X3097500Y2965000D02*
D03*
X3137500D02*
D03*
X3177500D02*
D03*
D106*
X707500Y8174150D02*
D03*
Y8239150D02*
D03*
Y8304150D02*
D03*
Y8369150D02*
D03*
X1017500Y8174150D02*
D03*
Y8239150D02*
D03*
Y8304150D02*
D03*
Y8369150D02*
D03*
X4965000Y5315425D02*
D03*
Y5380425D02*
D03*
Y5445425D02*
D03*
Y5510425D02*
D03*
X5275000Y5315425D02*
D03*
Y5380425D02*
D03*
Y5445425D02*
D03*
Y5510425D02*
D03*
X4352500Y4270425D02*
D03*
Y4335425D02*
D03*
Y4400425D02*
D03*
Y4465425D02*
D03*
X4662500Y4270425D02*
D03*
Y4335425D02*
D03*
Y4400425D02*
D03*
Y4465425D02*
D03*
X5352500Y3235000D02*
D03*
Y3300000D02*
D03*
Y3365000D02*
D03*
Y3430000D02*
D03*
X5662500Y3235000D02*
D03*
Y3300000D02*
D03*
Y3365000D02*
D03*
Y3430000D02*
D03*
D107*
X917925Y3242500D02*
D03*
X852925D02*
D03*
X787925D02*
D03*
X722925D02*
D03*
X917925Y3552500D02*
D03*
X852925D02*
D03*
X787925D02*
D03*
X722925D02*
D03*
X3242075Y3230000D02*
D03*
X3177075D02*
D03*
X3112075D02*
D03*
X3047075D02*
D03*
X3242075Y3540000D02*
D03*
X3177075D02*
D03*
X3112075D02*
D03*
X3047075D02*
D03*
D108*
X820425Y3397500D02*
D03*
X3144575Y3385000D02*
D03*
D109*
X535000Y3552500D02*
D03*
Y3397500D02*
D03*
X4987500Y4185000D02*
D03*
Y4030000D02*
D03*
X5000000Y4720425D02*
D03*
Y4565425D02*
D03*
X1305000Y2945000D02*
D03*
Y3100000D02*
D03*
X1130425D02*
D03*
Y2945000D02*
D03*
X2859150Y3382500D02*
D03*
Y3537500D02*
D03*
X5735925Y5637500D02*
D03*
Y5482500D02*
D03*
Y5317075D02*
D03*
Y5162075D02*
D03*
X4965000Y5857500D02*
D03*
Y5702500D02*
D03*
X1178425Y8602500D02*
D03*
Y8447500D02*
D03*
X1178425Y7980000D02*
D03*
Y8135000D02*
D03*
X3237500Y7960000D02*
D03*
Y7805000D02*
D03*
X6095925Y3560425D02*
D03*
Y3405425D02*
D03*
Y3240000D02*
D03*
Y3085000D02*
D03*
D110*
X6269575Y8700000D02*
D03*
Y8845000D02*
D03*
D111*
X4352500Y4082500D02*
D03*
X4197500D02*
D03*
X4195000Y4655000D02*
D03*
X4350000D02*
D03*
X1269575Y3555000D02*
D03*
X1114575D02*
D03*
X3582500Y3545000D02*
D03*
X3427500D02*
D03*
X3480425Y2895861D02*
D03*
X3325425D02*
D03*
X2949575Y2890861D02*
D03*
X2794575D02*
D03*
X5197500Y3047075D02*
D03*
X5352500D02*
D03*
X5197500Y3620000D02*
D03*
X5352500D02*
D03*
X5120000Y5127500D02*
D03*
X4965000D02*
D03*
X975000Y8557075D02*
D03*
X820000D02*
D03*
D112*
X2965000Y3072075D02*
D03*
X2875000D02*
D03*
X890000Y3057500D02*
D03*
X980000D02*
D03*
X660000Y3084575D02*
D03*
X750000D02*
D03*
X3316638Y3067500D02*
D03*
X3406638D02*
D03*
X5442500Y5601639D02*
D03*
X5532500D02*
D03*
X663361Y8555861D02*
D03*
X573361D02*
D03*
X5917500Y3138361D02*
D03*
X5827500D02*
D03*
X5827500Y3521638D02*
D03*
X5917500D02*
D03*
X5447500Y5217500D02*
D03*
X5537500D02*
D03*
D113*
X5840000Y8919064D02*
D03*
X5960000D02*
D03*
D114*
X4205000Y8840000D02*
D03*
X4075000D02*
D03*
D115*
X4815861Y4117075D02*
D03*
Y4207075D02*
D03*
X4827500Y4556638D02*
D03*
Y4646638D02*
D03*
D116*
X4182861Y4475862D02*
D03*
X4032861D02*
D03*
X932500Y3932500D02*
D03*
X782500D02*
D03*
X3180000Y3770000D02*
D03*
X3330000D02*
D03*
X5177500Y3420000D02*
D03*
X5027500D02*
D03*
X827500Y7977511D02*
D03*
X677500D02*
D03*
D117*
X1087500Y2375000D02*
D03*
X1267500D02*
D03*
X324575Y2485000D02*
D03*
X144575D02*
D03*
X2965000Y2630000D02*
D03*
X3145000D02*
D03*
X3960000Y2895000D02*
D03*
X4140000D02*
D03*
X3980000Y6872500D02*
D03*
X4160000D02*
D03*
X815000Y7466661D02*
D03*
X635000D02*
D03*
X640000Y7747086D02*
D03*
X820000D02*
D03*
X6897925Y2770000D02*
D03*
X6717925D02*
D03*
X6897500Y4870000D02*
D03*
X6717500D02*
D03*
D118*
X182500Y3615000D02*
D03*
Y3775000D02*
D03*
X3685000Y7062500D02*
D03*
Y6882500D02*
D03*
X1610000Y7012500D02*
D03*
Y7192500D02*
D03*
X904575Y6920000D02*
D03*
Y7100000D02*
D03*
X190000Y7590000D02*
D03*
Y7430000D02*
D03*
X6737925Y5627075D02*
D03*
Y5807075D02*
D03*
X6742500Y5965000D02*
D03*
Y6145000D02*
D03*
X552500Y2692500D02*
D03*
Y2872500D02*
D03*
D119*
X4465000Y2895000D02*
D03*
X4300000D02*
D03*
D120*
X5275000Y5853350D02*
D03*
Y5703350D02*
D03*
X3415000Y7955000D02*
D03*
Y7805000D02*
D03*
D121*
X4288085Y6875000D02*
D03*
X4408085D02*
D03*
X5512500Y6789861D02*
D03*
X5392500D02*
D03*
X5697500Y6793936D02*
D03*
X5817500D02*
D03*
X5072973Y8097480D02*
D03*
X4952973D02*
D03*
X5805000Y8125362D02*
D03*
X5685000D02*
D03*
X4844728Y8097480D02*
D03*
X4724728D02*
D03*
X6030745Y8127500D02*
D03*
X5910745D02*
D03*
X5087973Y8830142D02*
D03*
X4967973D02*
D03*
X4860473Y8828003D02*
D03*
X4740473D02*
D03*
X6045000Y8798638D02*
D03*
X5925000D02*
D03*
X5481915Y7655425D02*
D03*
X5361915D02*
D03*
X5710000Y7642063D02*
D03*
X5830000D02*
D03*
X6354116Y7777500D02*
D03*
X6234116D02*
D03*
X6596915Y7656277D02*
D03*
X6476915D02*
D03*
X6477500Y6797149D02*
D03*
X6597500D02*
D03*
X6826799Y7657776D02*
D03*
X6946799D02*
D03*
X6962500Y6808149D02*
D03*
X6842500D02*
D03*
D122*
X810000Y8937925D02*
D03*
X965000D02*
D03*
D123*
X572075Y8940000D02*
D03*
X662075D02*
D03*
D124*
X3570000Y7830000D02*
D03*
Y7925000D02*
D03*
X6710000Y7645000D02*
D03*
Y7740000D02*
D03*
D125*
X3535000Y8627500D02*
D03*
X3685000D02*
D03*
D126*
X4020000Y7855862D02*
D03*
X4170000D02*
D03*
D127*
X4176000Y8110000D02*
D03*
X3954000D02*
D03*
D128*
X5083834Y8463204D02*
D03*
X4988834D02*
D03*
X5597500Y7920425D02*
D03*
X5502500D02*
D03*
D129*
X5267500Y6696755D02*
D03*
Y6576755D02*
D03*
X5265362Y6922500D02*
D03*
Y6802500D02*
D03*
X5960000Y6685000D02*
D03*
Y6565000D02*
D03*
X5952138Y6920000D02*
D03*
Y6800000D02*
D03*
X4952409Y8347500D02*
D03*
Y8227500D02*
D03*
X5811537Y8252500D02*
D03*
Y8372500D02*
D03*
X4952409Y8580503D02*
D03*
Y8700503D02*
D03*
X5815425Y8692500D02*
D03*
Y8572500D02*
D03*
X5225000Y7527500D02*
D03*
Y7647500D02*
D03*
X5222500Y7755000D02*
D03*
Y7875000D02*
D03*
X5954138Y7507500D02*
D03*
Y7627500D02*
D03*
X5955000Y7733245D02*
D03*
Y7853245D02*
D03*
X6342500Y7527500D02*
D03*
Y7647500D02*
D03*
X6344088Y6820713D02*
D03*
Y6940713D02*
D03*
X6342862Y6560000D02*
D03*
Y6680000D02*
D03*
X7080000Y7662500D02*
D03*
Y7782500D02*
D03*
X7077500Y6824628D02*
D03*
Y6944628D02*
D03*
X7076611Y6594968D02*
D03*
Y6714968D02*
D03*
D130*
X5402500Y6925000D02*
D03*
X5512500D02*
D03*
X5514638Y6660000D02*
D03*
X5404638D02*
D03*
X5817500Y6658797D02*
D03*
X5707500D02*
D03*
X5705000Y6919361D02*
D03*
X5815000D02*
D03*
X6483915Y7791415D02*
D03*
X6593915D02*
D03*
X6480000Y6665000D02*
D03*
X6590000D02*
D03*
Y7530852D02*
D03*
X6480000D02*
D03*
X6591227Y6932288D02*
D03*
X6481227D02*
D03*
X5470000Y7795000D02*
D03*
X5360000D02*
D03*
X5478915Y7530000D02*
D03*
X5368915D02*
D03*
D131*
X4826983Y8686865D02*
D03*
Y8576864D02*
D03*
D132*
X5936962Y8265000D02*
D03*
Y8375000D02*
D03*
X4817270Y8235000D02*
D03*
Y8345000D02*
D03*
X5077834Y8347119D02*
D03*
Y8237119D02*
D03*
X5676398Y8372500D02*
D03*
Y8262500D02*
D03*
X5087547Y8583003D02*
D03*
Y8693003D02*
D03*
X5690000Y8562500D02*
D03*
Y8672500D02*
D03*
D133*
X6066564Y8673213D02*
D03*
X5956564D02*
D03*
D134*
X5692500Y7767489D02*
D03*
X5812500D02*
D03*
X6814972Y6670000D02*
D03*
X6934972D02*
D03*
D135*
X7237500Y7777500D02*
D03*
Y7657500D02*
D03*
D136*
X5825000Y7512925D02*
D03*
X5725000D02*
D03*
X6947500Y6928574D02*
D03*
X6847500D02*
D03*
%TF.MD5,76ca8f85a07b42e1afe89e1f437d545f*%
M02*
