M48
;Layer_Color=9474304
;FILE_FORMAT=4:4
METRIC,LZ
;TYPE=PLATED
T1F00S00C0.1000
T2F00S00C0.3000
T3F00S00C0.6500
T4F00S00C0.7600
T5F00S00C0.8000
T6F00S00C2.0000
%
T01
X00052003Y00300015
X00039093Y00349092
X00006Y00363
X00092875Y00339375
X0011255Y003423
X00112Y00261
X00099558Y00233558
X00093Y0023175
X00068Y00260712
X0027675Y00262278
X0026575Y0032625
X0032425Y00316
X003685Y0035475
X005095Y0036125
X0051075Y0033275
X00511707Y00304708
X00689074Y00261281
X006805Y004415
X0067375Y00448
X0069Y004705
X0050775Y005215
X0051725Y0056175
X00513Y00588
X00397Y0066925
X0033625Y0068125
X0033425Y0069375
X003335Y007195
X0035625Y0070675
X001731Y006889
X00160111Y00688889
X001477Y0068905
X000895Y0067825
X0007325Y006785
X000715Y0038575
X00329Y0036725
X00407Y004125
X0040875Y0045675
X0041775Y0048025
X0004525Y00586
X00097Y0079275
X00089Y00814
X0010575Y0087575
X003135Y00796
Y00783
X0035175
X006545Y0082675
X006645Y0084675
X00677Y0084425
X0068075
X00684783Y00856792
X0068375Y0086075
X007115Y0085875
Y0086525
X007065Y0082975
X006545Y0086675
T02
X000865Y0026225
X00269293Y0027775
T03
X002265Y002975
X0022675Y0031525
X0053575Y004685
X005535Y0048125
T04
X00344842Y00844
X00370243
X00395643
X00421043
T05
X001455Y0026075
X0017125Y0027925
X00172Y0029925
X00241441Y00359
X00432851Y0030925
X00459192Y00306
X0052625Y0027375
X00547324Y0026675
X0061575Y002705
X0064875Y00427
X007145Y00436
X0070775Y0064275
X0054325Y00646
X0048675Y00722426
X0050325Y0049625
X00365442Y00496059
X00392Y00389324
X00387Y0037275
X0018125Y0038925
X00127Y00396
X0015975Y005325
X0001425Y008755
X000145Y0089325
X00146Y00863
X00361Y00762
X0045525Y008
X00494Y0078725
X0052725Y0080275
X00526Y0089
X00547
X00568
X00602Y008525
X006225Y0085275
X00463151Y00844
Y0087725
T06
X0002Y00285
Y00326
X003955Y00251
X004365
X00707Y00355
Y00396
X0070875Y0056575
Y0060675
X0049575Y0075225
X0045475
X00018Y00798
Y00839
M30
