M48
;Layer_Color=9474304
;FILE_FORMAT=4:4
METRIC,LZ
;TYPE=PLATED
T1F00S00C0.1000
%
T01
X000675Y002285
X00063958Y00302458
X0009865Y00283
X0025825Y0027425
X002925Y0024
X0031375Y0029275
X0034425Y00298
X0036825Y003225
X004565Y0028925
X00490207Y00314336
X005755Y0032275
X0059955Y00333
X00597914Y00352164
X00601893Y00301272
X006395Y0026775
X00639707Y00477293
X00563271Y00518979
X005605Y00541
X0055875Y0056025
X0053525Y005315
X00490129Y00472043
X004965Y0043775
X00490294Y00403
X00561Y00666
X0055975Y0069725
X00565Y00759
X0066675Y00748909
X006765Y0074375
X00671625Y0069625
X0067Y00667
X00441Y00682
X0035875Y0071925
X0033325Y0071325
X001975Y0069575
X0014425Y00674
X00115395Y00687
X00287336Y00385793
X00389086Y00416794
X0003325Y0037625
X00021Y00586
X000575Y0067875
X00019Y007335
X00029908Y00875965
X0008705Y0087475
X00074229Y00855707
X00073707Y00893792
X00145Y0085125
X003615Y00793
X003915Y0078425
X00481727Y00840227
X0048275Y0085175
X0049293Y0084632
X0051675Y0084225
X0051643Y0085232
X0056475Y0084732
X00603Y0083775
X0061375Y0086625
X006495Y0085175
X006745
X006895Y0086175
X0070725Y0083725
X00676482Y00779141
X00555056Y00764694
X005475Y0078625
M30
