M48
;Layer_Color=9474304
;FILE_FORMAT=4:4
METRIC,LZ
;TYPE=PLATED
T1F00S00C0.1000
%
T01
X0006725Y00253
X0007575Y0026925
X0012075Y002945
X001375
X00296Y0027925
X003325Y0029725
X0057825Y00333
X0056625Y0034775
X0061725Y003405
X00618Y00324
X0065525Y0028575
X0050925Y004185
X00509Y00457
X00466281Y00452031
X0048875Y005445
X00519Y005855
X00585Y005515
X00581292Y00531707
X0056175Y006475
X0068775Y005885
X00428809Y00681191
X0021725Y0069475
X0012675Y0071
X00092209Y00774709
X000835Y0080525
X0006125Y0082375
X0011Y00824
X00105Y0085525
X0010375Y0089375
X00061604Y00883146
X0046775Y008095
X005165Y0082275
X0057525Y007855
X006595Y0082175
X006675Y0081775
X0068025Y0082075
X006745Y0082675
X006895Y008175
X006945Y0083675
X006995
Y0084675
X006845Y0084175
X006545Y0083175
Y0085675
X0061125Y0088
X0070175Y007715
X0071925Y00765
M30
