M48
;Layer_Color=9474304
;FILE_FORMAT=4:4
METRIC,LZ
;TYPE=PLATED
T1F00S00C0.1000
%
T01
X0032475Y00263
X005415Y00541
X005855Y00505
X0059625Y0064975
X00638Y0070525
X006505Y007
X0071275Y0069425
X0062925Y00753
X0061625Y007605
X00604529Y00750037
X005225Y0074725
X0052975Y007115
X005685Y008055
X00604139Y00805643
X006645Y0082175
Y0082675
X006695
X006795
X006845
X006945
X006995
Y0083175
X006945
X006895Y0083675
X006995Y0082175
Y0081475
X006595Y0083175
Y0085675
X006495
X0065175Y008845
X00655Y00881336
X00667Y0088275
X00602Y00896
X00514Y00883
M30
