M48
;Layer_Color=9474304
;FILE_FORMAT=4:4
METRIC,LZ
;TYPE=PLATED
T1F00S00C0.1000
T2F00S00C0.3000
%
T01
X0007575Y0028475
X0012175Y00308
X0007875Y0036325
X00292125Y00318375
X0031375Y0031175
X0033925Y003235
X00281673Y00300201
X00526Y00329
X0057225Y0029725
X004775Y0043775
X00463414Y00523218
X0048925Y0053775
X0053525Y0050475
X0054125Y0058225
X00568Y00572
X00671Y0075425
X00427Y0043375
X0005775Y0087475
X00144656Y00833
X004455Y00829421
X00508383Y0085082
X0057Y00801
X006495Y0084675
X007035Y00821
T02
X0031125Y0036375
M30
