%TF.GenerationSoftware,Altium Limited,Altium Designer,19.1.7 (138)*%
G04 Layer_Physical_Order=2*
G04 Layer_Color=6736896*
%FSLAX45Y45*%
%MOMM*%
%TF.FileFunction,Copper,L2,Inr,Signal*%
%TF.Part,Single*%
G01*
G75*
%TA.AperFunction,Conductor*%
%ADD12C,0.30000*%
%ADD67C,0.20000*%
%ADD68C,0.60000*%
%ADD69C,1.00000*%
%ADD71C,0.38100*%
%ADD74C,0.15000*%
%TA.AperFunction,ComponentPad*%
%ADD78C,1.20000*%
%ADD79R,1.55000X1.55000*%
%ADD80R,1.55000X1.55000*%
%ADD81R,3.50000X3.50000*%
%ADD82C,3.50000*%
%ADD83C,1.30300*%
%ADD84R,3.50000X3.50000*%
%TA.AperFunction,ViaPad*%
%ADD85C,0.30000*%
%ADD86C,0.60000*%
%ADD87C,0.26000*%
%ADD88C,0.50000*%
D12*
X6057500Y8030000D02*
X6495000Y8467500D01*
X5955000Y8030000D02*
X6057500D01*
X6770000Y8442500D02*
X6807500D01*
X6670000D02*
X6770000D01*
X6645000Y8467500D02*
X6670000Y8442500D01*
X6837500Y8607500D02*
Y8650000D01*
X6790000Y8697500D02*
X6837500Y8650000D01*
X6575000Y8697500D02*
X6790000D01*
X6545000Y8667500D02*
X6575000Y8697500D01*
X187500Y6895000D02*
Y7385000D01*
Y3925000D02*
Y6895000D01*
Y3925000D02*
X190000Y3922500D01*
X187500Y7385000D02*
X425000Y7622500D01*
X6495000Y8467500D02*
Y8617500D01*
X6545000Y8667500D01*
X5722500Y2972500D02*
Y3122500D01*
X4775000Y4070000D02*
X5722500Y3122500D01*
X4775000Y4070000D02*
Y4377500D01*
X5317500Y5047500D02*
X5352500D01*
X4775000Y4505000D02*
X5317500Y5047500D01*
X4775000Y4377500D02*
Y4505000D01*
X6987500Y8162500D02*
X7035000Y8210000D01*
X6515000Y8162500D02*
X6987500D01*
X2447500Y8907500D02*
X2857500Y8497500D01*
X597500Y8907500D02*
X2447500D01*
X425000Y8735000D02*
X597500Y8907500D01*
X425000Y7622500D02*
Y8735000D01*
X6495000Y8467500D02*
X6645000D01*
X2857500Y8107500D02*
Y8497500D01*
Y8107500D02*
X3135000Y7830000D01*
D67*
X6102500Y8770000D02*
X6687500D01*
X6020000Y8687500D02*
X6102500Y8770000D01*
X6020000Y8525000D02*
Y8687500D01*
D68*
X3709633Y8532207D02*
X3802425Y8625000D01*
X3709633Y8447207D02*
Y8532207D01*
X3702425Y8440000D02*
X3709633Y8447207D01*
X5252782Y8280000D02*
X5672500Y7860282D01*
X5082500Y8280000D02*
X5252782D01*
X6420000Y6302500D02*
X6445000Y6327500D01*
X5672500Y6675000D02*
Y7860282D01*
X6045000Y6302500D02*
X6420000D01*
X3802425Y8625000D02*
X4737500D01*
X5082500Y8280000D01*
X5672500Y6675000D02*
X6045000Y6302500D01*
D69*
X5918750Y2463750D02*
X6413695D01*
X657500Y2847500D02*
X757500D01*
X592500Y2912500D02*
X657500Y2847500D01*
X592500Y8732500D02*
X592500Y2912500D01*
X577500Y8747500D02*
X592500Y8732500D01*
X4900000Y8027500D02*
X5272500D01*
X4633287Y8294213D02*
X4900000Y8027500D01*
X4455000Y8294213D02*
X4633287D01*
X5272500Y5962500D02*
X5412500Y5822500D01*
X5272500Y5962500D02*
Y8027500D01*
X6710000Y7542500D02*
X6902500Y7350000D01*
Y6332500D02*
Y7350000D01*
X5982500Y5412500D02*
X6902500Y6332500D01*
X5201796Y8508204D02*
X5700000Y8010000D01*
X5083834Y8508204D02*
X5201796D01*
X5700000Y8010000D02*
X6132500Y7577500D01*
X6675000D01*
X6413695Y2463750D02*
X6665577Y2715632D01*
X3020000Y3545000D02*
X3112500Y3637500D01*
X3020000Y3104570D02*
Y3545000D01*
X2692930Y2777500D02*
X3020000Y3104570D01*
X2447500Y2777500D02*
X2692930D01*
X2112500Y2442500D02*
X2447500Y2777500D01*
X865000Y2622500D02*
Y3138338D01*
Y2557667D02*
X980167Y2442500D01*
X865000Y2557667D02*
Y2622500D01*
X787500Y3215838D02*
X865000Y3138338D01*
X980167Y2442500D02*
X2112500D01*
X787500Y3215838D02*
Y3632500D01*
X6684103Y4426603D02*
X6737500Y4480000D01*
X6665577Y2715632D02*
X6684103Y4426603D01*
X5260000Y3122500D02*
X5918750Y2463750D01*
X5260000Y3122500D02*
Y3290000D01*
X4235000Y4372500D02*
X4270000Y4337500D01*
X4892500Y5377500D02*
X4927500Y5412500D01*
X6675000Y7577500D02*
X6710000Y7542500D01*
X5117930Y3432070D02*
X5260000Y3290000D01*
X3667930Y7150430D02*
X3810000Y7292500D01*
X5117930Y3432070D02*
Y3489570D01*
X4270000Y4337500D02*
X5117930Y3489570D01*
X3667930Y6602070D02*
Y7150430D01*
Y6602070D02*
X4892500Y5377500D01*
X4347930Y4832930D02*
X4892500Y5377500D01*
X4347930Y4415430D02*
Y4832930D01*
X4270000Y4337500D02*
X4347930Y4415430D01*
X4927500Y5412500D02*
X5982500D01*
X3847500Y4372500D02*
X4235000D01*
X3112500Y3637500D02*
X3847500Y4372500D01*
X1330000Y8213437D02*
X1446563Y8330000D01*
X1330000Y7037500D02*
Y8213437D01*
Y7037500D02*
X1477000Y6890500D01*
X732500Y6785000D02*
X838000Y6890500D01*
X1477000D01*
X1781501Y7195000D01*
X3335000D01*
D71*
X3602500Y3547500D02*
X3685000D01*
X3290000Y3235000D02*
X3602500Y3547500D01*
D74*
X7065000Y8297500D02*
X7095000Y8267500D01*
Y7602500D02*
Y8267500D01*
Y7602500D02*
X7135000Y7562500D01*
D78*
X5535000Y4812500D02*
D03*
X145000Y8932500D02*
D03*
X142500Y8755000D02*
D03*
X5357500Y4685000D02*
D03*
X5262500Y2737500D02*
D03*
X5473245Y2667500D02*
D03*
X3870000Y3727500D02*
D03*
X3920000Y3893245D02*
D03*
X1720000Y2992500D02*
D03*
X2267500Y3152500D02*
D03*
X2265000Y2975000D02*
D03*
X1712500Y2792500D02*
D03*
D79*
X6020000Y8525000D02*
D03*
X2414415Y3590000D02*
D03*
X6157500Y2705000D02*
D03*
X4867500Y7224255D02*
D03*
X7145000Y4360000D02*
D03*
X7077500Y6427500D02*
D03*
X1460000Y8630000D02*
D03*
X1597500Y5325000D02*
D03*
X1270000Y3960000D02*
D03*
X1812500Y3892500D02*
D03*
X4328511Y3092500D02*
D03*
X3654415Y4960585D02*
D03*
X4940000Y7872500D02*
D03*
X5032500Y4962500D02*
D03*
X6487500Y4270000D02*
D03*
D80*
X4631510Y8440000D02*
D03*
Y8772500D02*
D03*
X3610000Y7620000D02*
D03*
X4591915Y3060000D02*
D03*
X5432500Y6460000D02*
D03*
X4552500Y8000000D02*
D03*
X5272500Y8027500D02*
D03*
X5260000Y8900000D02*
D03*
X5470000D02*
D03*
X5680000D02*
D03*
X6225000Y8527500D02*
D03*
X1455000Y2607500D02*
D03*
D81*
X200000Y3260000D02*
D03*
X180000Y7980000D02*
D03*
X7070000Y3550000D02*
D03*
X7087500Y5657500D02*
D03*
D82*
X200000Y2850000D02*
D03*
X180000Y8390000D02*
D03*
X4957500Y7522500D02*
D03*
X4365000Y2510000D02*
D03*
X7070000Y3960000D02*
D03*
X7087500Y6067500D02*
D03*
D83*
X3448425Y8440000D02*
D03*
X3702425D02*
D03*
X3956425D02*
D03*
X4210425D02*
D03*
D84*
X4547500Y7522500D02*
D03*
X3955000Y2510000D02*
D03*
D85*
X3517500Y7830000D02*
D03*
X520025Y3000146D02*
D03*
X452500Y5860000D02*
D03*
X307500Y3695000D02*
D03*
X390925Y3490925D02*
D03*
X6892925Y2312500D02*
D03*
X6290000Y2445000D02*
D03*
X6537500Y2375000D02*
D03*
X2816731Y3002012D02*
D03*
X2921250Y3183750D02*
D03*
X2657500Y3262500D02*
D03*
X930000Y2317500D02*
D03*
X680000Y2607120D02*
D03*
X1120000Y2610000D02*
D03*
X2767500Y2622784D02*
D03*
X2637500Y2687500D02*
D03*
X6805000Y4415000D02*
D03*
X6890738Y2612813D02*
D03*
X3135000Y7960000D02*
D03*
X6770000Y8637500D02*
D03*
X6445000Y6327500D02*
D03*
X3685000Y3547500D02*
D03*
X3290000Y3235000D02*
D03*
X4412500Y4372500D02*
D03*
X187500Y6895000D02*
D03*
X1217500Y3080000D02*
D03*
X4951250Y5181250D02*
D03*
X7050000Y7250000D02*
D03*
X4634138Y5232175D02*
D03*
X6936639Y8050000D02*
D03*
X6527500Y8355000D02*
D03*
X7137500Y8010000D02*
D03*
X6687500Y8770000D02*
D03*
X6630788Y7876638D02*
D03*
X6335000Y8932500D02*
D03*
X6130436Y8277500D02*
D03*
X6127548Y8932500D02*
D03*
X6767500Y8819958D02*
D03*
X6683149Y8918277D02*
D03*
X6485000Y8932500D02*
D03*
X3380000Y7365000D02*
D03*
X1860000Y6890000D02*
D03*
X3910000Y4137500D02*
D03*
X4847500Y2935000D02*
D03*
X970000Y7927500D02*
D03*
X190000Y3922500D02*
D03*
X5700000Y8010000D02*
D03*
X3810000Y7292500D02*
D03*
X5083834Y8508204D02*
D03*
X4455000Y8294213D02*
D03*
X7135000Y7562500D02*
D03*
X6515000Y8162500D02*
D03*
X3392500Y3235000D02*
D03*
X3137500Y3117500D02*
D03*
X757500Y2847500D02*
D03*
X5680000Y5720000D02*
D03*
X5412500Y5822500D02*
D03*
X6737500Y4480000D02*
D03*
X6900000Y4705000D02*
D03*
X5260000Y3290000D02*
D03*
X60000Y3630000D02*
D03*
X715000Y3857500D02*
D03*
X787500Y3632500D02*
D03*
X4270000Y4337500D02*
D03*
X4892500Y5377500D02*
D03*
X3335000Y7195000D02*
D03*
X1477000Y6890500D02*
D03*
X1446563Y8330000D02*
D03*
X6710000Y7542500D02*
D03*
X3290000Y3672500D02*
D03*
X3242500Y3160000D02*
D03*
X2547500Y3500000D02*
D03*
X3970000Y6692500D02*
D03*
X4087500Y4567500D02*
D03*
X4177500Y4802500D02*
D03*
X4070000Y4125000D02*
D03*
X5085000Y6560000D02*
D03*
X4775000Y4377500D02*
D03*
X5107500Y3327500D02*
D03*
X5117075Y3047075D02*
D03*
X5095000Y3612500D02*
D03*
X5722500Y2972500D02*
D03*
X5352500Y5047500D02*
D03*
X5172500Y5617500D02*
D03*
X5130000Y5880000D02*
D03*
X5077500Y5215000D02*
D03*
X5072500Y4415000D02*
D03*
X1125500Y3423000D02*
D03*
X928750Y3393750D02*
D03*
X1601112Y6888888D02*
D03*
X1731000Y6889000D02*
D03*
X3420000Y8000000D02*
D03*
X995580Y2335580D02*
D03*
X732500Y6785000D02*
D03*
X895000Y6782500D02*
D03*
X3135000Y7830000D02*
D03*
X3562500Y7067500D02*
D03*
X3342500Y6937500D02*
D03*
X3362500Y6812500D02*
D03*
X733750Y6530000D02*
D03*
X1057500Y8757500D02*
D03*
X577500Y8747500D02*
D03*
X890001Y8140000D02*
D03*
X1190000Y8775000D02*
D03*
D86*
X5955000Y8030000D02*
D03*
X865000Y2622500D02*
D03*
X2692930Y2777500D02*
D03*
X3112500Y3637500D02*
D03*
D87*
X6837500Y8607500D02*
D03*
X6847834Y8567918D02*
D03*
X6770000Y8442500D02*
D03*
X6807500D02*
D03*
X6545000Y8267500D02*
D03*
Y8667500D02*
D03*
X7115000Y8652500D02*
D03*
X7035000Y8210000D02*
D03*
X6645000Y8467500D02*
D03*
X7115000Y8587500D02*
D03*
X7065000Y8297500D02*
D03*
X6495000Y8467500D02*
D03*
D88*
X3165000Y5302500D02*
D03*
X2950000Y5312500D02*
D03*
X3485000Y5305000D02*
D03*
X2462500Y5312500D02*
D03*
X3060000D02*
D03*
X1977500Y5310000D02*
D03*
%TF.MD5,da30e3caf2bb368de59587cfe2d0a65e*%
M02*
