M48
;Layer_Color=9474304
;FILE_FORMAT=4:4
METRIC,LZ
;TYPE=PLATED
T1F00S00C0.1000
%
T01
X0058625Y0044625
X00625Y00446
X0062475Y004285
X0060875Y0046825
X00647625Y00694875
X0068Y0074725
X0067475Y00764
X0067025Y0077
X00673094Y00783844
X006855Y007835
X0066475Y0079075
X006695Y0080225
X006545Y0082
X0063775Y0081475
X00612Y008025
X00589Y0080625
X00582Y00823
X0058125Y007895
X0060225Y0077325
X00612Y007675
X0063775Y0077525
X0064325Y0077625
X00659Y0077775
X005265Y0084825
X00528Y0086925
M30
