M48
;Layer_Color=9474304
;FILE_FORMAT=4:4
METRIC,LZ
;TYPE=PLATED
T1F00S00C0.1000
T2F00S00C0.3000
%
T01
X0026375Y0026875
X0025475Y0035
X0048475Y002935
X0065375Y002375
X00689293Y0023125
X0050725Y004415
X00495125Y00518125
X005085Y00656
X00705Y00725
X00338Y007365
X00186Y00689
X00073375Y00653
X00391Y0041375
X0044125Y0043725
X0003075Y003695
X00119Y008775
X00342Y008
X00613044Y0082775
X0065275Y008355
X00677Y0086375
X0067675Y00881996
X00668315Y00891828
X006485Y0089325
X006335
X00612755Y0089325
X00663079Y00787664
X00693664Y00805
X0071375Y00801
T02
X0019775Y00531
X0024625Y0053125
X00295
X00306
X003165Y0053025
X003485Y005305
M30
