%TF.GenerationSoftware,Altium Limited,Altium Designer,19.1.7 (138)*%
G04 Layer_Physical_Order=4*
G04 Layer_Color=16440176*
%FSLAX45Y45*%
%MOMM*%
%TF.FileFunction,Copper,L4,Inr,Signal*%
%TF.Part,Single*%
G01*
G75*
%TA.AperFunction,Conductor*%
%ADD12C,0.30000*%
%TA.AperFunction,ComponentPad*%
%ADD78C,1.20000*%
%ADD79R,1.55000X1.55000*%
%ADD80R,1.55000X1.55000*%
%ADD81R,3.50000X3.50000*%
%ADD82C,3.50000*%
%ADD83C,1.30300*%
%ADD84R,3.50000X3.50000*%
%TA.AperFunction,ViaPad*%
%ADD85C,0.30000*%
%ADD86C,0.60000*%
%ADD87C,0.26000*%
D12*
X6002500Y8750000D02*
X6482500D01*
X5676398Y8423898D02*
X6002500Y8750000D01*
X5676398Y8166398D02*
Y8423898D01*
X6482500Y8750000D02*
X6492500Y8760000D01*
X5422500Y8737500D02*
X5903861D01*
X5966361Y8800000D01*
X5880000Y8845000D02*
X6517500D01*
X5585000Y8785000D02*
X5820000D01*
X5880000Y8845000D01*
X5610000Y8100000D02*
X5676398Y8166398D01*
X6370000Y8572500D02*
X6515000Y8717500D01*
X6292500Y7530000D02*
Y8337500D01*
X6370000Y8415000D02*
Y8572500D01*
X6292500Y8337500D02*
X6370000Y8415000D01*
X6247500Y4457500D02*
X6250000Y4460000D01*
X6247500Y4285000D02*
Y4457500D01*
X6536638Y8800000D02*
X6550000Y8813362D01*
X5966361Y8800000D02*
X6536638D01*
X6817500Y8760000D02*
X6945000Y8632500D01*
X6492500Y8760000D02*
X6817500D01*
X6945000Y8317500D02*
Y8632500D01*
X6715000Y7455000D02*
X6815000Y7555000D01*
X6715000Y7090000D02*
Y7455000D01*
X6625000Y7000000D02*
X6715000Y7090000D01*
X6045295Y7500366D02*
X6057866D01*
X6627500Y8717500D02*
X6895000Y8450000D01*
X3232500Y3235000D02*
X3392500D01*
X3137500Y3140000D02*
X3232500Y3235000D01*
X3137500Y3117500D02*
Y3140000D01*
X2540000Y2890000D02*
X3032500D01*
X800000D02*
X2007500D01*
X2412500Y2762500D02*
X2540000Y2890000D01*
X2135000Y2762500D02*
X2412500D01*
X2007500Y2890000D02*
X2135000Y2762500D01*
X3032500Y2890000D02*
X3137500Y2995000D01*
X757500Y2847500D02*
X800000Y2890000D01*
X3137500Y2995000D02*
Y3117500D01*
X6041389Y7893889D02*
Y8056434D01*
X6022500Y7875000D02*
X6041389Y7893889D01*
X6022500Y7732500D02*
Y7875000D01*
X5280000Y8692500D02*
X5330000Y8642500D01*
Y8547500D02*
Y8642500D01*
X5265000Y8482500D02*
X5330000Y8547500D01*
X6815000Y7555000D02*
Y7807500D01*
X6777500Y7845000D02*
X6815000Y7807500D01*
X6777500Y7845000D02*
Y8250000D01*
X6845000Y8267500D02*
X6965000Y8147500D01*
X6595000Y8567500D02*
X6737500Y8425000D01*
X5260000Y8900000D02*
X5422500Y8737500D01*
X5470000Y8900000D02*
X5585000Y8785000D01*
X5225000Y7085000D02*
X5587500Y6722500D01*
X6425000D01*
X5225000Y7085000D02*
Y7472500D01*
X6515000Y8717500D02*
X6627500D01*
X6597500Y8900000D02*
X6670000Y8827500D01*
X5680000Y8900000D02*
X6597500D01*
X6712500Y8960000D02*
X6995000Y8677500D01*
X6020000Y8960000D02*
X6712500D01*
X5610000Y7427500D02*
Y8100000D01*
X5297500Y7115000D02*
X5610000Y7427500D01*
X5685000Y8055000D02*
X5820000Y8190000D01*
X6895000Y8367500D02*
Y8450000D01*
X6995000Y8317500D02*
Y8677500D01*
X3392500Y3235000D02*
X3632500D01*
X4775000Y4377500D01*
X5415000Y5410000D02*
Y5411353D01*
X5412500Y5413853D02*
X5415000Y5411353D01*
X5412500Y5413853D02*
Y5822500D01*
X6505000Y7000000D02*
X6625000D01*
X6777500Y8250000D02*
X6795000Y8267500D01*
X6545000Y7740000D02*
X6585000Y7700000D01*
X6545000Y7740000D02*
Y8200000D01*
X6585000Y7700000D02*
X6702500D01*
X6730938Y7838438D02*
X6737500Y7845000D01*
X6855000Y7215670D02*
Y7835000D01*
Y7215670D02*
X6860335Y7210335D01*
X6860000Y7210000D02*
X6860335Y7210335D01*
X6860000Y7210000D02*
X7127500Y6942500D01*
X6737500Y7845000D02*
Y8425000D01*
X6057866Y7500366D02*
X6162500Y7605000D01*
X6425000Y6722500D02*
X6800000Y7097500D01*
X6965000Y8147500D02*
X6995000D01*
X6527500Y8385000D02*
X6620000D01*
X6490000Y8347500D02*
X6527500Y8385000D01*
X6490000Y7720000D02*
Y8347500D01*
X6620000Y8385000D02*
X6645000Y8360000D01*
Y8267500D02*
Y8360000D01*
X6380000Y7052500D02*
X6476250Y6956250D01*
Y6948750D02*
Y6956250D01*
X6800000Y7097500D02*
Y7472500D01*
X5820000Y8190000D02*
Y8230000D01*
X5890000Y7972500D02*
Y8062500D01*
X5812500Y7895000D02*
X5890000Y7972500D01*
X6647500Y7907500D02*
Y8210000D01*
X5855000Y5050000D02*
X5962500Y5157500D01*
Y6497500D01*
X6377500Y7752500D02*
Y8147500D01*
X6120000Y7675000D02*
Y8025000D01*
X6432500Y8505000D02*
X6495000Y8567500D01*
X6432500Y7762500D02*
Y8505000D01*
X5862500Y4462500D02*
X6082500Y4682500D01*
X6087500D01*
X6490000Y7720000D02*
X6570000Y7640000D01*
X6747500D01*
X6595000Y7782500D02*
Y8317500D01*
X6590000Y7777500D02*
X6595000Y7782500D01*
X6695000Y8022500D02*
Y8267500D01*
X6645000Y8217500D02*
X6647500Y8215000D01*
X6645000Y8212500D02*
X6647500Y8215000D01*
X6645000Y8212500D02*
X6647500Y8210000D01*
D78*
X5535000Y4812500D02*
D03*
X145000Y8932500D02*
D03*
X142500Y8755000D02*
D03*
X5357500Y4685000D02*
D03*
X5262500Y2737500D02*
D03*
X5473245Y2667500D02*
D03*
X3870000Y3727500D02*
D03*
X3920000Y3893245D02*
D03*
X1720000Y2992500D02*
D03*
X2267500Y3152500D02*
D03*
X2265000Y2975000D02*
D03*
X1712500Y2792500D02*
D03*
D79*
X6020000Y8525000D02*
D03*
X2414415Y3590000D02*
D03*
X6157500Y2705000D02*
D03*
X4867500Y7224255D02*
D03*
X7145000Y4360000D02*
D03*
X7077500Y6427500D02*
D03*
X1460000Y8630000D02*
D03*
X1597500Y5325000D02*
D03*
X1270000Y3960000D02*
D03*
X1812500Y3892500D02*
D03*
X4328511Y3092500D02*
D03*
X3654415Y4960585D02*
D03*
X4940000Y7872500D02*
D03*
X5032500Y4962500D02*
D03*
X6487500Y4270000D02*
D03*
D80*
X4631510Y8440000D02*
D03*
Y8772500D02*
D03*
X3610000Y7620000D02*
D03*
X4591915Y3060000D02*
D03*
X5432500Y6460000D02*
D03*
X4552500Y8000000D02*
D03*
X5272500Y8027500D02*
D03*
X5260000Y8900000D02*
D03*
X5470000D02*
D03*
X5680000D02*
D03*
X6225000Y8527500D02*
D03*
X1455000Y2607500D02*
D03*
D81*
X200000Y3260000D02*
D03*
X180000Y7980000D02*
D03*
X7070000Y3550000D02*
D03*
X7087500Y5657500D02*
D03*
D82*
X200000Y2850000D02*
D03*
X180000Y8390000D02*
D03*
X4957500Y7522500D02*
D03*
X4365000Y2510000D02*
D03*
X7070000Y3960000D02*
D03*
X7087500Y6067500D02*
D03*
D83*
X3448425Y8440000D02*
D03*
X3702425D02*
D03*
X3956425D02*
D03*
X4210425D02*
D03*
D84*
X4547500Y7522500D02*
D03*
X3955000Y2510000D02*
D03*
D85*
X3517500Y7830000D02*
D03*
X520025Y3000146D02*
D03*
X452500Y5860000D02*
D03*
X390925Y3490925D02*
D03*
X2816731Y3002012D02*
D03*
X2921250Y3183750D02*
D03*
X2657500Y3262500D02*
D03*
X930000Y2317500D02*
D03*
X680000Y2607120D02*
D03*
X1120000Y2610000D02*
D03*
X2767500Y2622784D02*
D03*
X6805000Y4415000D02*
D03*
X6030000Y8377500D02*
D03*
X6890738Y2612813D02*
D03*
X5650000Y7590000D02*
D03*
X986500Y2830000D02*
D03*
X6045295Y7500366D02*
D03*
X3135000Y7960000D02*
D03*
X3685000Y3547500D02*
D03*
X1217500Y3080000D02*
D03*
X4634138Y5232175D02*
D03*
X6137500Y8662500D02*
D03*
X3915000Y7842500D02*
D03*
X3615000Y7930000D02*
D03*
X299075Y8759648D02*
D03*
X870500Y8747500D02*
D03*
X1975000Y6957500D02*
D03*
X1153952Y6870000D02*
D03*
X3890861Y4167937D02*
D03*
X5995500Y3330000D02*
D03*
X5979138Y3521638D02*
D03*
X4902075Y3143362D02*
D03*
X2873362Y3857925D02*
D03*
X3682500Y3225000D02*
D03*
X3442500Y2980000D02*
D03*
X675000Y2285000D02*
D03*
X639575Y3024575D02*
D03*
X332500Y3762500D02*
D03*
X210000Y5860000D02*
D03*
X970000Y7927500D02*
D03*
X5550564Y7646936D02*
D03*
X6020000Y8960000D02*
D03*
X5140000Y8830000D02*
D03*
X5685000Y8055000D02*
D03*
X5700000Y8010000D02*
D03*
X5083834Y8508204D02*
D03*
X4455000Y8294213D02*
D03*
X3392500Y3235000D02*
D03*
X3137500Y3117500D02*
D03*
X757500Y2847500D02*
D03*
X5680000Y5720000D02*
D03*
X5412500Y5822500D02*
D03*
X6764818Y7791415D02*
D03*
X6730938Y7838438D02*
D03*
X6505000Y7000000D02*
D03*
X6737500Y4480000D02*
D03*
X6900000Y4705000D02*
D03*
X5260000Y3290000D02*
D03*
X60000Y3630000D02*
D03*
X715000Y3857500D02*
D03*
X787500Y3632500D02*
D03*
X4270000Y4337500D02*
D03*
X4892500Y5377500D02*
D03*
X3332500Y7132500D02*
D03*
X3335000Y7195000D02*
D03*
X1477000Y6890500D02*
D03*
X2582500Y2742500D02*
D03*
X1446563Y8330000D02*
D03*
X6162500Y7605000D02*
D03*
X6292500Y7530000D02*
D03*
X5297500Y7115000D02*
D03*
X6855000Y7835000D02*
D03*
X6995000Y8147500D02*
D03*
X7127500Y6942500D02*
D03*
X6476250Y6948750D02*
D03*
X6247500Y4285000D02*
D03*
X6250000Y4460000D02*
D03*
X6380000Y7052500D02*
D03*
X6395000Y2677500D02*
D03*
X6667500Y7489088D02*
D03*
X6800000Y7472500D02*
D03*
X5225000D02*
D03*
X5820000Y8230000D02*
D03*
X5890000Y8062500D02*
D03*
X5265000Y8482500D02*
D03*
X5280000Y8692500D02*
D03*
X6647500Y7907500D02*
D03*
X6041389Y8056434D02*
D03*
X6765000Y7437500D02*
D03*
X6710000Y7542500D02*
D03*
X5610000Y6660000D02*
D03*
X5475000Y7862500D02*
D03*
X6397075Y4772925D02*
D03*
X5855000Y5050000D02*
D03*
X5962500Y6497500D02*
D03*
X4565000Y2892500D02*
D03*
X5597500Y6972500D02*
D03*
X6377500Y8147500D02*
D03*
Y7752500D02*
D03*
X6120000Y8025000D02*
D03*
X6022500Y7732500D02*
D03*
X3247500Y2630000D02*
D03*
X2925000Y2400000D02*
D03*
X6120000Y7675000D02*
D03*
X3290000Y3672500D02*
D03*
X3242500Y3160000D02*
D03*
X3137500Y2927500D02*
D03*
X5812500Y7895000D02*
D03*
X5167500Y8422500D02*
D03*
X5647500Y8473204D02*
D03*
X4410000Y6820000D02*
D03*
X3970000Y6692500D02*
D03*
X4087500Y4567500D02*
D03*
X4902936Y4030000D02*
D03*
X4901287Y4720425D02*
D03*
X4177500Y4802500D02*
D03*
X4070000Y4125000D02*
D03*
X6432500Y7762500D02*
D03*
X6087500Y4682500D02*
D03*
X5862500Y4462500D02*
D03*
X5605000Y5410000D02*
D03*
X4965000Y4377500D02*
D03*
X4775000D02*
D03*
X6747500Y7640000D02*
D03*
X6545000Y8200000D02*
D03*
X6702500Y7700000D02*
D03*
X5107500Y3327500D02*
D03*
X5117075Y3047075D02*
D03*
X5095000Y3612500D02*
D03*
X5755000Y3227500D02*
D03*
X6018925Y3012718D02*
D03*
X5722500Y2972500D02*
D03*
X5415000Y5410000D02*
D03*
X5352500Y5047500D02*
D03*
X5632713Y5189788D02*
D03*
X5172500Y5617500D02*
D03*
X6695000Y8022500D02*
D03*
X6590000Y7777500D02*
D03*
X5587500Y5602500D02*
D03*
X5352500Y5315000D02*
D03*
X5130000Y5880000D02*
D03*
X5077500Y5215000D02*
D03*
X6700000Y6670000D02*
D03*
X6716250Y6962500D02*
D03*
X1125500Y3423000D02*
D03*
X928750Y3393750D02*
D03*
X1442501Y6740000D02*
D03*
X1601112Y6888888D02*
D03*
X1731000Y6889000D02*
D03*
X4817270Y8402270D02*
D03*
X4827500Y8517500D02*
D03*
X4929296Y8463204D02*
D03*
X5164296Y8523204D02*
D03*
X995580Y2335580D02*
D03*
X575000Y6787500D02*
D03*
X732500Y6785000D02*
D03*
X895000Y6782500D02*
D03*
X3135000Y7830000D02*
D03*
X3587500Y7192500D02*
D03*
X3562500Y7067500D02*
D03*
X3342500Y6937500D02*
D03*
X3362500Y6812500D02*
D03*
X1450000Y8512500D02*
D03*
X1057500Y8757500D02*
D03*
X577500Y8747500D02*
D03*
X890001Y8140000D02*
D03*
X742287Y8557075D02*
D03*
X737075Y8937925D02*
D03*
X190000Y7335000D02*
D03*
D86*
X865000Y2622500D02*
D03*
X2692930Y2777500D02*
D03*
X3112500Y3637500D02*
D03*
D87*
X6550000Y8813362D02*
D03*
X6517500Y8845000D02*
D03*
X6837500Y8607500D02*
D03*
X6847834Y8567918D02*
D03*
X6770000Y8442500D02*
D03*
X6807500D02*
D03*
X6545000Y8267500D02*
D03*
X6845000D02*
D03*
X6595000Y8567500D02*
D03*
X6545000Y8667500D02*
D03*
X6670000Y8827500D02*
D03*
X7115000Y8652500D02*
D03*
X6895000Y8617500D02*
D03*
X7072500Y8372500D02*
D03*
X6495000Y8517500D02*
D03*
X6745000D02*
D03*
X7035000Y8210000D02*
D03*
X6895000Y8367500D02*
D03*
X6945000Y8267500D02*
D03*
X6995000D02*
D03*
X6645000Y8467500D02*
D03*
X6495000Y8567500D02*
D03*
X7115000Y8587500D02*
D03*
X6695000Y8267500D02*
D03*
X7065000Y8297500D02*
D03*
X6495000Y8467500D02*
D03*
X6795000Y8267500D02*
D03*
X6595000Y8317500D02*
D03*
X6645000Y8217500D02*
D03*
X6995000D02*
D03*
Y8317500D02*
D03*
X6645000Y8267500D02*
D03*
X6945000Y8317500D02*
D03*
%TF.MD5,2d9f80b0d10126ea93acbe2ff741dac9*%
M02*
