%TF.GenerationSoftware,Altium Limited,Altium Designer,19.1.7 (138)*%
G04 Layer_Physical_Order=1*
G04 Layer_Color=255*
%FSLAX45Y45*%
%MOMM*%
%TF.FileFunction,Copper,L1,Top,Signal*%
%TF.Part,Single*%
G01*
G75*
%TA.AperFunction,Conductor*%
%ADD10C,0.50000*%
%ADD11C,0.40000*%
%ADD12C,0.30000*%
%TA.AperFunction,SMDPad,CuDef*%
%ADD13R,0.45000X0.45000*%
%ADD14R,0.69000X1.60000*%
%ADD15R,0.45000X0.40000*%
%ADD16R,4.00000X9.00000*%
%TA.AperFunction,ConnectorPad*%
%ADD17R,1.10000X2.00000*%
%ADD18R,1.10000X0.80000*%
%TA.AperFunction,SMDPad,CuDef*%
%ADD19R,1.10000X0.80000*%
%ADD20R,1.10000X2.00000*%
%ADD21R,2.00000X1.10000*%
%ADD22R,0.80000X1.10000*%
%ADD23R,0.34000X0.80000*%
%ADD24R,2.29000X1.71000*%
G04:AMPARAMS|DCode=25|XSize=0.34mm|YSize=1mm|CornerRadius=0mm|HoleSize=0mm|Usage=FLASHONLY|Rotation=0.000|XOffset=0mm|YOffset=0mm|HoleType=Round|Shape=Octagon|*
%AMOCTAGOND25*
4,1,8,-0.08500,0.50000,0.08500,0.50000,0.17000,0.41500,0.17000,-0.41500,0.08500,-0.50000,-0.08500,-0.50000,-0.17000,-0.41500,-0.17000,0.41500,-0.08500,0.50000,0.0*
%
%ADD25OCTAGOND25*%

%ADD26R,0.34000X1.00000*%
G04:AMPARAMS|DCode=27|XSize=1.64mm|YSize=0.5mm|CornerRadius=0mm|HoleSize=0mm|Usage=FLASHONLY|Rotation=0.000|XOffset=0mm|YOffset=0mm|HoleType=Round|Shape=Octagon|*
%AMOCTAGOND27*
4,1,8,0.82000,-0.12500,0.82000,0.12500,0.69500,0.25000,-0.69500,0.25000,-0.82000,0.12500,-0.82000,-0.12500,-0.69500,-0.25000,0.69500,-0.25000,0.82000,-0.12500,0.0*
%
%ADD27OCTAGOND27*%

%ADD28R,0.50000X0.70000*%
%ADD29R,0.75000X0.35000*%
%ADD30R,2.20000X2.70000*%
%ADD31R,1.65000X1.42000*%
%ADD32R,0.35000X1.42000*%
%ADD33R,3.60000X1.42000*%
%ADD34R,5.00000X4.50000*%
%ADD35R,1.92000X1.57500*%
%ADD36R,0.65000X1.57500*%
%ADD37R,0.35000X0.75000*%
%ADD38R,2.70000X2.20000*%
%TA.AperFunction,ConnectorPad*%
%ADD39R,5.00000X4.50000*%
%TA.AperFunction,SMDPad,CuDef*%
%ADD40R,1.57500X1.92000*%
%ADD41R,1.57500X0.65000*%
%TA.AperFunction,ConnectorPad*%
%ADD42R,0.95000X1.10000*%
%TA.AperFunction,SMDPad,CuDef*%
%ADD43R,1.10000X0.95000*%
%ADD44R,0.95000X1.10000*%
%ADD45R,1.10000X1.10000*%
%ADD46R,1.10000X1.00000*%
%ADD47R,1.10000X1.10000*%
%ADD48R,0.90000X0.90000*%
%TA.AperFunction,ConnectorPad*%
%ADD49R,1.80000X1.20000*%
%TA.AperFunction,SMDPad,CuDef*%
%ADD50R,1.85000X1.75000*%
%ADD51R,1.75000X1.85000*%
%ADD52R,2.55000X2.77000*%
%ADD53R,0.70000X0.50000*%
%ADD54R,9.00000X4.00000*%
G04:AMPARAMS|DCode=55|XSize=1.64mm|YSize=0.5mm|CornerRadius=0mm|HoleSize=0mm|Usage=FLASHONLY|Rotation=270.000|XOffset=0mm|YOffset=0mm|HoleType=Round|Shape=Octagon|*
%AMOCTAGOND55*
4,1,8,-0.12500,-0.82000,0.12500,-0.82000,0.25000,-0.69500,0.25000,0.69500,0.12500,0.82000,-0.12500,0.82000,-0.25000,0.69500,-0.25000,-0.69500,-0.12500,-0.82000,0.0*
%
%ADD55OCTAGOND55*%

%ADD56R,1.00000X0.34000*%
G04:AMPARAMS|DCode=57|XSize=0.34mm|YSize=1mm|CornerRadius=0mm|HoleSize=0mm|Usage=FLASHONLY|Rotation=270.000|XOffset=0mm|YOffset=0mm|HoleType=Round|Shape=Octagon|*
%AMOCTAGOND57*
4,1,8,0.50000,0.08500,0.50000,-0.08500,0.41500,-0.17000,-0.41500,-0.17000,-0.50000,-0.08500,-0.50000,0.08500,-0.41500,0.17000,0.41500,0.17000,0.50000,0.08500,0.0*
%
%ADD57OCTAGOND57*%

%ADD58R,1.71000X2.29000*%
%ADD59R,0.80000X0.34000*%
%ADD60R,1.42000X1.65000*%
%ADD61R,1.42000X0.35000*%
%ADD62R,1.42000X3.60000*%
%ADD63R,2.00000X1.80000*%
%ADD64R,3.00000X2.10000*%
%ADD65R,1.45000X1.45000*%
%ADD66R,1.45000X1.45000*%
%TA.AperFunction,Conductor*%
%ADD67C,0.20000*%
%ADD68C,0.60000*%
%ADD69C,1.00000*%
%ADD70C,1.50000*%
%ADD71C,0.38100*%
%ADD72C,0.35000*%
%ADD73C,1.70000*%
%ADD74C,0.15000*%
%ADD75C,2.00000*%
%ADD76C,2.50000*%
%ADD77C,3.00000*%
%TA.AperFunction,ComponentPad*%
%ADD78C,1.20000*%
%ADD79R,1.55000X1.55000*%
%ADD80R,1.55000X1.55000*%
%ADD81R,3.50000X3.50000*%
%ADD82C,3.50000*%
%ADD83C,1.30300*%
%ADD84R,3.50000X3.50000*%
%TA.AperFunction,ViaPad*%
%ADD85C,0.30000*%
%ADD86C,0.60000*%
%ADD87C,0.26000*%
%ADD88C,0.50000*%
G36*
X2745316Y8965321D02*
X2767821Y8942816D01*
X2780000Y8913413D01*
Y8897500D01*
Y8532500D01*
Y8504652D01*
X2758686Y8453196D01*
X2719303Y8413814D01*
X2667848Y8392500D01*
X2262500D01*
X2055000Y8185000D01*
Y8127220D01*
X2024171Y8052793D01*
X1967207Y7995829D01*
X1892780Y7965000D01*
X1037500D01*
Y8004500D01*
X972500D01*
Y7978947D01*
X961940Y7971891D01*
X952848Y7975657D01*
X933157Y7995348D01*
X922500Y8021076D01*
Y8299918D01*
X933918Y8327484D01*
X955016Y8348582D01*
X982581Y8360000D01*
X1383500D01*
X1637500Y8614000D01*
Y8723500D01*
Y8774024D01*
X1676169Y8867379D01*
X1747620Y8938831D01*
X1840976Y8977500D01*
X2715913D01*
X2745316Y8965321D01*
D02*
G37*
G36*
X1332658Y7616410D02*
X1343910Y7605158D01*
X1350000Y7590456D01*
Y7582500D01*
Y7420000D01*
Y7411049D01*
X1343149Y7394509D01*
X1330490Y7381851D01*
X1313951Y7375000D01*
X820013D01*
X815419Y7376903D01*
X811903Y7380419D01*
X810000Y7385013D01*
Y7387500D01*
Y7570000D01*
Y7580443D01*
X817993Y7599739D01*
X832761Y7614507D01*
X852057Y7622500D01*
X1317956D01*
X1332658Y7616410D01*
D02*
G37*
G36*
X755403Y8145485D02*
X772985Y8127903D01*
X782500Y8104932D01*
Y8092500D01*
Y7392500D01*
Y7386035D01*
X777552Y7374090D01*
X768410Y7364948D01*
X756465Y7360000D01*
X56076D01*
X30348Y7370657D01*
X10657Y7390348D01*
X0Y7416076D01*
Y7430000D01*
Y8147500D01*
Y8148992D01*
X1142Y8151748D01*
X3251Y8153858D01*
X6008Y8155000D01*
X732432D01*
X755403Y8145485D01*
D02*
G37*
G36*
X2982473Y7866006D02*
X2980000Y7050000D01*
X2200000D01*
Y7875000D01*
X2973506D01*
X2982473Y7866006D01*
D02*
G37*
G36*
X4752500Y6700000D02*
X5130000D01*
Y6300000D01*
X4800000Y6300000D01*
X4800001Y6200000D01*
X4800000Y6140000D01*
X4900000D01*
Y6000000D01*
X4732500D01*
Y5450000D01*
X4896746Y4932750D01*
X4889246Y4922500D01*
X4897500D01*
X5010000Y4810000D01*
Y4150000D01*
Y3985000D01*
X5009999D01*
X5004810Y3973597D01*
X5003496Y3972283D01*
X4997983Y3970000D01*
X4778024D01*
X4769755Y3973425D01*
X4763425Y3979755D01*
X4760000Y3988025D01*
Y4150000D01*
X4607500Y4467500D01*
X4288136Y4911197D01*
X4293927Y4922500D01*
X4280000D01*
Y5152500D01*
X3848038D01*
X3835174Y5157828D01*
X3825328Y5167674D01*
X3820000Y5180538D01*
Y5374999D01*
X3820000Y5375000D01*
X3820000D01*
Y5375000D01*
X3897500Y5452500D01*
Y5857500D01*
X1858079D01*
X1831432Y5868537D01*
X1811037Y5888932D01*
X1800000Y5915579D01*
Y5930000D01*
Y6000000D01*
Y6382500D01*
D01*
Y6382500D01*
Y6405872D01*
Y6700000D01*
X2670000D01*
Y6960000D01*
X3050000D01*
Y6700000D01*
X3952500D01*
Y7755000D01*
X4752500D01*
Y6700000D01*
D02*
G37*
G36*
X7267080Y5830597D02*
X7270597Y5827080D01*
X7272500Y5822486D01*
Y5820000D01*
Y5315000D01*
Y5308535D01*
X7267552Y5296590D01*
X7258410Y5287448D01*
X7246465Y5282500D01*
X6833024D01*
X6824755Y5285925D01*
X6818425Y5292255D01*
X6815000Y5300524D01*
Y5305000D01*
Y5435000D01*
Y5439973D01*
X6818806Y5449161D01*
X6825839Y5456194D01*
X6835027Y5460000D01*
X6847500D01*
X6900000Y5512500D01*
Y5815000D01*
Y5818481D01*
X6902664Y5824913D01*
X6907587Y5829835D01*
X6914019Y5832500D01*
X6997997D01*
X6998916Y5832119D01*
X6999619Y5831416D01*
X7000000Y5830497D01*
Y5830000D01*
X7260000Y5832500D01*
X7262486D01*
X7267080Y5830597D01*
D02*
G37*
G36*
X1600000Y5550000D02*
X500000Y5550000D01*
Y6300000D01*
X800000D01*
X1150000Y6500000D01*
X1600000D01*
X1600000Y5550000D01*
D02*
G37*
G36*
X6322484Y6156082D02*
X6343582Y6134984D01*
X6355000Y6107418D01*
Y6092500D01*
Y5972500D01*
X6522500Y5805000D01*
X6733426D01*
X6758236Y5794724D01*
X6777224Y5775736D01*
X6787500Y5750927D01*
Y5737500D01*
Y5292500D01*
Y5290014D01*
X6785597Y5285419D01*
X6782080Y5281903D01*
X6777486Y5280000D01*
X6335000D01*
X6312500Y5257500D01*
Y5254516D01*
X6310216Y5249003D01*
X6305997Y5244784D01*
X6300483Y5242500D01*
X5905027D01*
X5895838Y5246306D01*
X5888806Y5253338D01*
X5885000Y5262527D01*
Y5267500D01*
Y6142500D01*
Y6147473D01*
X5888806Y6156661D01*
X5895839Y6163694D01*
X5905027Y6167500D01*
X6294918D01*
X6322484Y6156082D01*
D02*
G37*
G36*
X4560910Y3827552D02*
X4570052Y3818410D01*
X4575000Y3806465D01*
Y3800000D01*
Y3542500D01*
X4574999Y3542500D01*
X4575000Y3535041D01*
X4569291Y3521258D01*
X4558742Y3510709D01*
X4544959Y3505000D01*
X4537500Y3505000D01*
Y3505000D01*
X4447500Y3415000D01*
Y3332500D01*
X4447500Y3332500D01*
X4447500Y3311117D01*
X4431134Y3271606D01*
X4400894Y3241366D01*
X4361383Y3225000D01*
X4340000Y3225000D01*
X3662500Y3224999D01*
X3650565D01*
X3628512Y3234134D01*
X3611634Y3251012D01*
X3602500Y3273065D01*
X3602500Y3285000D01*
Y3497500D01*
Y3500981D01*
X3605164Y3507413D01*
X3610087Y3512336D01*
X3616519Y3515000D01*
X3805000D01*
X4035000Y3745000D01*
X4035000Y3762404D01*
X4048321Y3794565D01*
X4072935Y3819179D01*
X4105095Y3832500D01*
X4122500Y3832500D01*
X4542500Y3832500D01*
X4548964D01*
X4560910Y3827552D01*
D02*
G37*
G36*
X1043236Y4722224D02*
X1062224Y4703236D01*
X1072500Y4678427D01*
Y4665000D01*
Y3547500D01*
Y3544516D01*
X1070216Y3539003D01*
X1065997Y3534783D01*
X1060484Y3532500D01*
X772540D01*
X758758Y3538209D01*
X748209Y3548758D01*
X742500Y3562541D01*
Y3570000D01*
Y3820000D01*
X562500Y4000000D01*
X541117D01*
X501606Y4016366D01*
X471366Y4046606D01*
X455000Y4086117D01*
Y4107500D01*
Y4687500D01*
Y4696451D01*
X461851Y4712990D01*
X474510Y4725649D01*
X491049Y4732500D01*
X1018426D01*
X1043236Y4722224D01*
D02*
G37*
G36*
X3266329Y3876955D02*
X3271955Y3871329D01*
X3275000Y3863978D01*
Y3367501D01*
X3275000D01*
X3274877Y3355767D01*
X3266246Y3334929D01*
X3250071Y3318754D01*
X3228937Y3310000D01*
X2999557D01*
X2980261Y3317993D01*
X2965493Y3332761D01*
X2957500Y3352057D01*
Y3434375D01*
X2958125D01*
X2960000Y3839999D01*
X2960000Y3840000D01*
Y3840000D01*
X2961564Y3851733D01*
X2966090Y3862658D01*
X2977342Y3873910D01*
X2992044Y3880000D01*
X3258978D01*
X3266329Y3876955D01*
D02*
G37*
G36*
X7243410Y3722552D02*
X7252552Y3713410D01*
X7257500Y3701465D01*
Y3695000D01*
Y3220000D01*
Y3211546D01*
X7251030Y3195926D01*
X7239074Y3183970D01*
X7223454Y3177500D01*
X6813011D01*
X6809335Y3179022D01*
X6806522Y3181835D01*
X6805000Y3185511D01*
Y3187500D01*
Y3327500D01*
Y3330484D01*
X6807284Y3335997D01*
X6811503Y3340216D01*
X6817016Y3342500D01*
X6830000D01*
X6862500Y3375000D01*
Y3702500D01*
Y3707473D01*
X6866306Y3716661D01*
X6873339Y3723694D01*
X6882527Y3727500D01*
X7231465D01*
X7243410Y3722552D01*
D02*
G37*
G36*
X2075648Y3739559D02*
X2099559Y3715648D01*
X2112500Y3684407D01*
Y3667500D01*
Y3202500D01*
Y3184101D01*
X2098417Y3150103D01*
X2072397Y3124082D01*
X2038399Y3110000D01*
X928522D01*
X921171Y3113045D01*
X915545Y3118671D01*
X912500Y3126021D01*
Y3130000D01*
Y3285000D01*
Y3298426D01*
X922776Y3323236D01*
X941764Y3342224D01*
X966573Y3352500D01*
X1420000D01*
X1460000Y3392500D01*
Y3717500D01*
Y3724462D01*
X1465328Y3737326D01*
X1475174Y3747171D01*
X1488038Y3752500D01*
X2044407D01*
X2075648Y3739559D01*
D02*
G37*
G36*
X816384Y3406783D02*
X859283Y3363884D01*
X882500Y3307834D01*
Y3277500D01*
Y3130027D01*
X878694Y3120838D01*
X871661Y3113806D01*
X862472Y3110000D01*
X85068D01*
X62096Y3119515D01*
X44515Y3137096D01*
X35000Y3160068D01*
Y3172500D01*
X32588Y3420976D01*
X41524Y3430000D01*
X760334D01*
X816384Y3406783D01*
D02*
G37*
G36*
X6753655Y3926627D02*
X6769127Y3911155D01*
X6777500Y3890940D01*
Y3880000D01*
Y3195000D01*
Y3191519D01*
X6774836Y3185087D01*
X6769913Y3180164D01*
X6763481Y3177500D01*
X6400000D01*
X6327500Y3105000D01*
Y3086600D01*
X6313417Y3052603D01*
X6287397Y3026582D01*
X6253399Y3012500D01*
X5895041D01*
X5881258Y3018209D01*
X5870709Y3028758D01*
X5865000Y3042541D01*
Y3050000D01*
Y3915000D01*
Y3918978D01*
X5868045Y3926329D01*
X5873671Y3931955D01*
X5881022Y3935000D01*
X6733440D01*
X6753655Y3926627D01*
D02*
G37*
G36*
X4112658Y2703910D02*
X4123910Y2692658D01*
X4130000Y2677956D01*
Y2670000D01*
Y2417500D01*
Y2403576D01*
X4119343Y2377848D01*
X4099652Y2358157D01*
X4073924Y2347500D01*
X3540538D01*
X3527674Y2352828D01*
X3517828Y2362674D01*
X3512500Y2375538D01*
Y2382500D01*
Y2672500D01*
Y2679462D01*
X3517828Y2692326D01*
X3527674Y2702171D01*
X3540538Y2707500D01*
X3595000D01*
X4090000Y2710000D01*
X4097956D01*
X4112658Y2703910D01*
D02*
G37*
%LPC*%
G36*
X4970400Y6620400D02*
X4932700D01*
Y6572700D01*
X4970400D01*
Y6620400D01*
D02*
G37*
G36*
X4907300D02*
X4869600D01*
Y6572700D01*
X4907300D01*
Y6620400D01*
D02*
G37*
G36*
X5065000Y6610000D02*
X4985000D01*
Y6510000D01*
X5065000D01*
Y6532940D01*
X5085000D01*
X5104134Y6540866D01*
X5112060Y6560000D01*
X5104134Y6579134D01*
X5085000Y6587060D01*
X5065000D01*
Y6610000D01*
D02*
G37*
G36*
X4970400Y6547300D02*
X4932700D01*
Y6499600D01*
X4970400D01*
Y6547300D01*
D02*
G37*
G36*
X4907300D02*
X4869600D01*
Y6499600D01*
X4907300D01*
Y6547300D01*
D02*
G37*
%LPD*%
D10*
X3058351Y5503000D02*
G03*
X3036034Y5500500I0J-100851D01*
G01*
X2517925Y5498000D02*
G03*
X2462500Y5442575I0J-55425D01*
G01*
X520025Y3000146D02*
X615147D01*
X702500Y3087500D01*
X3060000Y5500500D02*
Y5503000D01*
X3058351D02*
X3060000D01*
X2462500Y5312500D02*
Y5442575D01*
X3642500Y5170000D02*
X4325000D01*
X3165000Y5302500D02*
Y5360210D01*
X3160851Y5364359D02*
X3165000Y5360210D01*
X3160851Y5364359D02*
Y5399649D01*
X3060000Y5500500D02*
X3160851Y5399649D01*
X2950000Y5312500D02*
Y5360210D01*
X2955851Y5366061D01*
Y5396350D01*
X3060000Y5500500D01*
X3485000Y5305000D02*
X3515000Y5275000D01*
X3642500D01*
X3504855Y5409079D02*
X3596276Y5500500D01*
X3485000Y5305000D02*
X3504855Y5324855D01*
Y5409079D01*
X3060000Y5312500D02*
Y5500500D01*
X1977500Y5310000D02*
Y5500500D01*
X702500Y3087500D02*
Y3197500D01*
D11*
X185000Y7975000D02*
G03*
X180000Y7980000I-5000J0D01*
G01*
X4412500Y4215426D02*
X4417500Y4210426D01*
X200000Y3197500D02*
X702500D01*
X200000Y3260000D02*
Y3630000D01*
Y3197500D02*
Y3260000D01*
X2496915Y3672500D02*
X2832300D01*
X4412500Y4215426D02*
Y4372500D01*
X185000Y7245000D02*
Y7975000D01*
X2414415Y3590000D02*
X2496915Y3672500D01*
X6900000Y4604605D02*
X6900851Y4603755D01*
X6900000Y4604605D02*
Y4705000D01*
X60000Y3630000D02*
X185000D01*
X5010425Y4185425D02*
X5076250Y4251250D01*
X6890425Y2496255D02*
Y2612500D01*
X2832300Y3672500D02*
X3290000D01*
X3119575Y3282925D02*
Y3368750D01*
Y3282925D02*
X3242500Y3160000D01*
X4977500Y3612500D02*
X5095000D01*
X5107500Y3327500D02*
Y3447500D01*
X7019069Y6067500D02*
X7087500D01*
X6909068Y6177500D02*
X7019069Y6067500D01*
X6715000Y6177500D02*
X6909068D01*
X5072500Y4360000D02*
Y4415000D01*
X4880000Y4175000D02*
X4890425Y4185425D01*
X5010425D01*
X2957500Y3565000D02*
X2958750Y3563750D01*
X2957500Y3500000D02*
X2958750Y3498750D01*
X2957500Y3435000D02*
X2958750Y3433750D01*
Y3368750D02*
X3119575D01*
X2957500Y3370000D02*
X2958750Y3368750D01*
X4785000Y4030000D02*
X4880000D01*
X4977500D01*
X4782500Y4027500D02*
X4785000Y4030000D01*
X4782500Y3912500D02*
Y4027500D01*
X4977500Y3912500D02*
Y4030000D01*
X787925Y3755585D02*
Y3784575D01*
X903149Y3419352D02*
X928750Y3393750D01*
X903149Y3419352D02*
Y3606851D01*
D12*
X185000Y6897500D02*
G03*
X187500Y6895000I2500J0D01*
G01*
X452500Y5860000D02*
X540000D01*
X6630425Y2339891D02*
X6635000Y2335316D01*
X6630425Y2339891D02*
Y2496255D01*
X6514672Y2397829D02*
X6537500Y2375000D01*
X6514672Y2397829D02*
Y2482008D01*
X6500425Y2496255D02*
X6514672Y2482008D01*
X6537500Y2375000D02*
X6577184Y2335316D01*
X6635000D01*
X6727816Y2342816D02*
X6760425Y2375425D01*
Y2496255D01*
X6702500Y2342816D02*
X6727816D01*
X6695000Y2335316D02*
X6702500Y2342816D01*
X6695000Y2495830D02*
X6695425Y2496255D01*
X6695000Y2335316D02*
Y2495830D01*
X6397500Y2275000D02*
X6662110D01*
X6687500Y2300390D01*
Y2327816D01*
X6695000Y2335316D01*
X6290000Y2382500D02*
X6397500Y2275000D01*
X6290000Y2382500D02*
Y2445000D01*
X865000Y2436080D02*
Y2605000D01*
Y2622500D01*
X800580Y2540580D02*
X865000Y2605000D01*
X800580Y2435500D02*
Y2540580D01*
X865000Y2436080D02*
X865580Y2435500D01*
X930000Y2317500D02*
Y2434920D01*
X930580Y2435500D01*
X4882500Y5736250D02*
Y5880000D01*
X5012500Y5464800D02*
Y5590000D01*
X4947500Y5464800D02*
Y5590000D01*
X4882500Y5464800D02*
Y5590000D01*
Y5736250D01*
X6890425Y2612500D02*
X6890738Y2612813D01*
X3512300Y3345000D02*
X3660000D01*
X3477300Y3412500D02*
X3655000D01*
X3477300D02*
Y3480000D01*
Y3380000D02*
Y3412500D01*
Y3480000D02*
X3655000D01*
X3477300Y3282500D02*
X3647500D01*
X3477300Y3380000D02*
X3512300Y3345000D01*
X3477300Y3282500D02*
Y3380000D01*
X4785000Y3215000D02*
Y3447500D01*
X4915000Y3330000D02*
X4915000Y3447500D01*
X4915000Y3212500D02*
Y3330000D01*
X4850000D02*
Y3447500D01*
Y3220000D02*
Y3330000D01*
X4980000D02*
Y3447500D01*
Y3215000D02*
Y3330000D01*
X4947500Y5590000D02*
Y5736250D01*
X5012500Y5590000D02*
Y5736250D01*
X5077500Y5590000D02*
Y5735000D01*
X4980000Y5464800D02*
X5012500D01*
X4882500D02*
X4947500D01*
Y6054800D02*
Y6180000D01*
Y6340000D01*
X5012500Y6054800D02*
Y6180000D01*
Y6345000D01*
Y6054800D02*
X5077500D01*
X4980000D02*
X5012500D01*
X5077500D02*
Y6180000D01*
X4947500Y6054800D02*
X4980000D01*
X1200000Y7572500D02*
Y7648000D01*
X1135000Y7565000D02*
Y7648000D01*
Y7565000D02*
X1137500D01*
X1135000Y7648000D02*
X1135000D01*
X1070000Y7552500D02*
Y7648000D01*
X1005000Y7552500D02*
X1070000D01*
X1005000D02*
Y7648000D01*
X3977500Y4444800D02*
Y4570000D01*
X3847500Y4444800D02*
Y4570000D01*
Y4444800D02*
X3945000D01*
X3977500D01*
X3912500Y4570000D02*
Y4677500D01*
X4042500Y4570000D02*
Y4677500D01*
X6837500Y8607500D02*
X6895425Y8665425D01*
X185000Y6897500D02*
Y7055000D01*
X5077500Y6180000D02*
Y6332500D01*
X7071723Y8918277D02*
X7155000Y8835000D01*
Y8745000D02*
Y8835000D01*
X6925000Y8918277D02*
X7071723D01*
X7115000Y8652500D02*
X7120074Y8657574D01*
Y8710074D01*
X7155000Y8745000D01*
Y8283362D02*
X7162500Y8275862D01*
X7155000Y8283362D02*
Y8485000D01*
X7115000Y8587500D02*
X7130074Y8572426D01*
Y8509926D02*
Y8572426D01*
Y8509926D02*
X7155000Y8485000D01*
X6645000Y8467500D02*
Y8717075D01*
X6582075Y8780000D02*
X6645000Y8717075D01*
X6517500Y8695000D02*
X6545000Y8667500D01*
X6280000Y8695000D02*
X6517500D01*
X6218798Y8756202D02*
X6280000Y8695000D01*
X6582075Y8780000D02*
Y8787500D01*
X6400437D02*
X6582075D01*
X6036298Y8792500D02*
X6218798D01*
Y8756202D02*
Y8792500D01*
X6445000Y6240000D02*
Y6327500D01*
X190000Y3822500D02*
Y3922500D01*
X187500Y3820000D02*
X190000Y3822500D01*
X3654415Y4703085D02*
Y4960585D01*
X4591915Y3256915D02*
X4785000Y3447500D01*
X4591915Y3060000D02*
Y3256915D01*
X6390499Y8157563D02*
X6395436Y8162500D01*
X6390499Y8047574D02*
Y8157563D01*
X6320425Y7977500D02*
X6390499Y8047574D01*
X6320425Y7970000D02*
Y7977500D01*
X6287925Y7937500D02*
X6320425Y7970000D01*
X6280425Y7937500D02*
X6287925D01*
X6395436Y8162500D02*
X6515000D01*
X6895425Y8665425D02*
Y8717064D01*
X6907500Y8729138D01*
X4782500Y3612500D02*
X4785000Y3447500D01*
X3847500Y4570000D02*
Y4677500D01*
X4912500Y3612500D02*
X4915000Y3447500D01*
X4847500Y3612500D02*
X4850000Y3447500D01*
D13*
X6696000Y2335316D02*
D03*
X6634000D02*
D03*
D14*
X3305000Y7895000D02*
D03*
D15*
X3190000Y7960000D02*
D03*
Y7895000D02*
D03*
Y7830000D02*
D03*
X3420000Y7960000D02*
D03*
Y7895000D02*
D03*
Y7830000D02*
D03*
D16*
X6090425Y5705000D02*
D03*
X5425425D02*
D03*
X5415000Y3485000D02*
D03*
X6080000D02*
D03*
D17*
X185000Y7055000D02*
D03*
D18*
Y7245000D02*
D03*
D19*
X182500Y3615000D02*
D03*
X6450000Y6022500D02*
D03*
X3810000Y7485000D02*
D03*
Y7615000D02*
D03*
D20*
X182500Y3805000D02*
D03*
X6450000Y6212500D02*
D03*
D21*
X3775925Y7840000D02*
D03*
D22*
X3585925D02*
D03*
D23*
X4882500Y6180000D02*
D03*
X4947500D02*
D03*
X5012500D02*
D03*
X5077500D02*
D03*
X4042500Y5145000D02*
D03*
X3977500D02*
D03*
X3912500D02*
D03*
X3847500D02*
D03*
X4977500Y3912500D02*
D03*
X4912500D02*
D03*
X4847500D02*
D03*
X4782500D02*
D03*
X4980000Y3330000D02*
D03*
X4915000D02*
D03*
X4850000D02*
D03*
X4785000D02*
D03*
X4882500Y5590000D02*
D03*
X4947500D02*
D03*
X5012500D02*
D03*
X5077500D02*
D03*
X3847500Y4570000D02*
D03*
X3912500D02*
D03*
X3977500D02*
D03*
X4042500D02*
D03*
D24*
X4980000Y6054800D02*
D03*
X3945000Y5019800D02*
D03*
X4880000Y3787300D02*
D03*
X4882500Y3204800D02*
D03*
X4980000Y5464800D02*
D03*
X3945000Y4444800D02*
D03*
D25*
X4882500Y5880000D02*
D03*
X4947500D02*
D03*
X5012500D02*
D03*
X3977500Y4845000D02*
D03*
X3912500D02*
D03*
X3847500D02*
D03*
X4912500Y3612500D02*
D03*
X4847500D02*
D03*
X4782500D02*
D03*
X4915000Y3030000D02*
D03*
X4850000D02*
D03*
X4785000D02*
D03*
X4882500Y5290000D02*
D03*
X4947500D02*
D03*
X5012500D02*
D03*
X3847500Y4270000D02*
D03*
X3912500D02*
D03*
X3977500D02*
D03*
D26*
X5077500Y5880000D02*
D03*
X4042500Y4845000D02*
D03*
X4977500Y3612500D02*
D03*
X4980000Y3030000D02*
D03*
X5077500Y5290000D02*
D03*
X4042500Y4270000D02*
D03*
D27*
X4947500Y5905000D02*
D03*
X3912500Y4870000D02*
D03*
X4847500Y3637500D02*
D03*
X4850000Y3055000D02*
D03*
X4947500Y5315000D02*
D03*
X3912500Y4295000D02*
D03*
D28*
X5025000Y6560000D02*
D03*
X4920000D02*
D03*
X3196639Y7365000D02*
D03*
X3301639D02*
D03*
D29*
X1429500Y3492500D02*
D03*
Y3557500D02*
D03*
Y3622500D02*
D03*
Y3687500D02*
D03*
X1125500Y3492500D02*
D03*
Y3557500D02*
D03*
Y3622500D02*
D03*
Y3687500D02*
D03*
X694925Y3560585D02*
D03*
Y3625585D02*
D03*
Y3690585D02*
D03*
Y3755585D02*
D03*
X390925Y3560585D02*
D03*
Y3625585D02*
D03*
Y3690585D02*
D03*
Y3755585D02*
D03*
D30*
X1317500Y3590000D02*
D03*
X582925Y3658085D02*
D03*
D31*
X1190580Y2435500D02*
D03*
X605580D02*
D03*
X1090580Y6693000D02*
D03*
X505580D02*
D03*
X7085425Y2496255D02*
D03*
X6500425D02*
D03*
X7095850Y4603755D02*
D03*
X6510850D02*
D03*
D32*
X1060580Y2435500D02*
D03*
X995580D02*
D03*
X930580D02*
D03*
X865580D02*
D03*
X800580D02*
D03*
X735580D02*
D03*
X960580Y6693000D02*
D03*
X895580D02*
D03*
X830580D02*
D03*
X765580D02*
D03*
X700580D02*
D03*
X635580D02*
D03*
X6955425Y2496255D02*
D03*
X6890425D02*
D03*
X6825425D02*
D03*
X6760425D02*
D03*
X6695425D02*
D03*
X6630425D02*
D03*
X6965850Y4603755D02*
D03*
X6900851D02*
D03*
X6835850D02*
D03*
X6770851D02*
D03*
X6705850D02*
D03*
X6640851D02*
D03*
D33*
X702500Y3197500D02*
D03*
X1091120D02*
D03*
X602500Y7455000D02*
D03*
X991120D02*
D03*
X6597345Y3258255D02*
D03*
X6985965D02*
D03*
X6607770Y5365755D02*
D03*
X6996390D02*
D03*
D34*
X750000Y5555000D02*
D03*
Y4505000D02*
D03*
D35*
X1540500Y6455000D02*
D03*
X1794500D02*
D03*
D36*
X1858000Y7015000D02*
D03*
X1731000D02*
D03*
X1604000D02*
D03*
X1477000D02*
D03*
D37*
X1005000Y7648000D02*
D03*
X1070000D02*
D03*
X1135000D02*
D03*
X1200000D02*
D03*
X1005000Y7952000D02*
D03*
X1070000D02*
D03*
X1135000D02*
D03*
X1200000D02*
D03*
X1060000Y8388000D02*
D03*
X1125000D02*
D03*
X1190000D02*
D03*
X1255000D02*
D03*
X1060000Y8692000D02*
D03*
X1125000D02*
D03*
X1190000D02*
D03*
X1255000D02*
D03*
D38*
X1102500Y7760000D02*
D03*
X1157500Y8500000D02*
D03*
D39*
X2422500Y7700000D02*
D03*
Y8750000D02*
D03*
D40*
X2901000Y7133000D02*
D03*
Y6879000D02*
D03*
D41*
X3461000Y6815500D02*
D03*
Y6942500D02*
D03*
Y7069500D02*
D03*
Y7196500D02*
D03*
D42*
X6218798Y8792500D02*
D03*
Y8932500D02*
D03*
X6036298Y8792500D02*
D03*
Y8932500D02*
D03*
X6582075Y8787500D02*
D03*
Y8927500D02*
D03*
X6400437Y8787500D02*
D03*
Y8927500D02*
D03*
X7139138Y7480000D02*
D03*
Y7340000D02*
D03*
D43*
X6747500Y8357500D02*
D03*
X6607500D02*
D03*
X6280425Y7937500D02*
D03*
X6140425D02*
D03*
D44*
X6936638Y8270000D02*
D03*
Y8130000D02*
D03*
D45*
X6925000Y8918277D02*
D03*
X6775000D02*
D03*
D46*
X6907500Y8729138D02*
D03*
X6767500D02*
D03*
D47*
X7162500Y8275862D02*
D03*
Y8125862D02*
D03*
X6630788Y7951638D02*
D03*
Y8101638D02*
D03*
D48*
X6742500Y8550000D02*
D03*
X6922500D02*
D03*
D49*
X7155000Y8745000D02*
D03*
Y8485000D02*
D03*
D50*
X6130436Y8162500D02*
D03*
X6395436D02*
D03*
D51*
X6917500Y7220000D02*
D03*
Y7485000D02*
D03*
D52*
X1977500Y6124500D02*
D03*
Y5500500D02*
D03*
X2517925Y6122000D02*
D03*
Y5498000D02*
D03*
X3058351Y6127000D02*
D03*
Y5503000D02*
D03*
X3598776Y6127000D02*
D03*
Y5503000D02*
D03*
D53*
X3642500Y5170000D02*
D03*
Y5275000D02*
D03*
X5072500Y4255000D02*
D03*
Y4360000D02*
D03*
D54*
X3119575Y4610000D02*
D03*
Y3945000D02*
D03*
D55*
X2682500Y3500000D02*
D03*
X3327500Y3412500D02*
D03*
D56*
X2657500Y3370000D02*
D03*
X3302500Y3282500D02*
D03*
D57*
X2657500Y3435000D02*
D03*
Y3500000D02*
D03*
Y3565000D02*
D03*
X3302500Y3347500D02*
D03*
Y3412500D02*
D03*
Y3477500D02*
D03*
D58*
X2832300Y3467500D02*
D03*
X3477300Y3380000D02*
D03*
D59*
X2957500Y3370000D02*
D03*
Y3435000D02*
D03*
Y3500000D02*
D03*
Y3565000D02*
D03*
X3602500Y3282500D02*
D03*
Y3347500D02*
D03*
Y3412500D02*
D03*
Y3477500D02*
D03*
D60*
X2859000Y2427500D02*
D03*
Y3012500D02*
D03*
D61*
Y2557500D02*
D03*
Y2622500D02*
D03*
Y2687500D02*
D03*
Y2752500D02*
D03*
Y2817500D02*
D03*
Y2882500D02*
D03*
D62*
X3621000Y2915580D02*
D03*
Y2526960D02*
D03*
D63*
X3972925Y3007500D02*
D03*
Y3317500D02*
D03*
D64*
X4412500Y3710426D02*
D03*
Y4210426D02*
D03*
D65*
X6636638Y4050000D02*
D03*
X6441638D02*
D03*
D66*
X6715000Y6177500D02*
D03*
Y5982500D02*
D03*
D67*
X3420000Y7830000D02*
X3517500D01*
X3575925D01*
X307500Y3695000D02*
X311915Y3690585D01*
X307500Y3657500D02*
Y3695000D01*
Y3725000D01*
X390925Y3490925D02*
Y3560585D01*
X605580Y2535580D02*
X680000Y2610000D01*
X6767500Y8575000D02*
Y8729138D01*
X6218798Y8932500D02*
X6577075D01*
X7023284Y7224146D02*
X7094138Y7295000D01*
X4907500Y5177500D02*
X4955000D01*
X2547500Y3500000D02*
X2682500D01*
X2635000Y2622500D02*
Y2690000D01*
X6825425Y2377075D02*
X6885000Y2317500D01*
X6825425Y2377075D02*
Y2496255D01*
X6885000Y2317500D02*
X6885219D01*
X6890219Y2312500D01*
X6892925D01*
X1120000Y2610000D02*
X1122500D01*
X1117500D02*
X1120000D01*
X2725490Y2817500D02*
X2859000D01*
X2692930Y2777500D02*
X2725490Y2817500D01*
X2717931Y2752500D02*
X2859000D01*
X2692930Y2777500D02*
X2717931Y2752500D01*
X680000Y2607120D02*
Y2610000D01*
Y2606160D02*
Y2607120D01*
Y2606160D02*
X735580Y2550580D01*
Y2435500D02*
Y2550580D01*
X1055000Y2547500D02*
X1117500Y2610000D01*
X2767500Y2622784D02*
X2858716D01*
X2635000Y2690000D02*
X2637500Y2687500D01*
X2859000D01*
X6805000Y4415000D02*
X6835850Y4445850D01*
X6805000Y4415000D02*
X6915000D01*
X6695000D02*
X6805000D01*
X6835850Y4445850D02*
Y4603755D01*
X5070000Y4980000D02*
X5090000D01*
X5172500Y5062500D01*
X5052500Y4962500D02*
X5070000Y4980000D01*
X1060000Y8300000D02*
Y8388000D01*
Y8505000D01*
X1125000Y8300000D02*
Y8388000D01*
Y8505000D01*
X1190000Y8300000D02*
Y8388000D01*
Y8505000D01*
X1255000Y8388000D02*
Y8505000D01*
Y8300000D02*
Y8388000D01*
X1460000Y8367500D02*
Y8630000D01*
X5172500Y5617500D02*
Y5736250D01*
X4042500Y4677500D02*
X4087500Y4632500D01*
X3575925Y7830000D02*
X3585925Y7840000D01*
X4951250Y5181250D02*
X4955000Y5177500D01*
X4947500Y5185000D02*
X4951250Y5181250D01*
X3135000Y7960000D02*
X3190000D01*
X6742500Y8550000D02*
X6767500Y8575000D01*
X3912500Y5019800D02*
Y5145000D01*
Y5019800D02*
X3945000D01*
X3847500D02*
X3912500D01*
X3847500D02*
Y5145000D01*
X3977500Y5019800D02*
Y5145000D01*
Y5019800D02*
X4042500D01*
X3945000D02*
X3977500D01*
X4042500D02*
Y5145000D01*
X890001Y8140000D02*
X992500D01*
X4882500Y5202500D02*
X4907500Y5177500D01*
X4882500Y5202500D02*
Y5290000D01*
X4955000Y5177500D02*
X4992500D01*
X4947500Y5185000D02*
Y5290000D01*
X4992500Y5177500D02*
X5012500Y5197500D01*
Y5290000D01*
X311915Y3690585D02*
X390925D01*
X307500Y3725000D02*
X335792Y3753292D01*
X388632D01*
X390925Y3755585D01*
X307500Y3657500D02*
X336457Y3628543D01*
X387967D01*
X390925Y3625585D01*
X6917500Y7220000D02*
X6921646Y7224146D01*
X7023284D01*
X6683149Y8918277D02*
X6775000D01*
X6591298D02*
X6683149D01*
X6127548Y8932500D02*
X6218798D01*
X6036298D02*
X6127548D01*
X6130436Y8277500D02*
Y8280862D01*
Y8162500D02*
Y8277500D01*
X6936638Y8050000D02*
X6936639Y8050000D01*
X6936638Y8050000D02*
Y8130000D01*
X6527500Y8355000D02*
X6530000Y8357500D01*
X6607500D01*
X6747500D02*
X6770000Y8380000D01*
Y8442500D01*
X7137500Y8010000D02*
X7162500Y8035000D01*
Y8125862D01*
X6630788Y7876639D02*
X6630788Y7876638D01*
X6630788Y7876639D02*
Y7951638D01*
X6767500Y8819958D02*
Y8910777D01*
Y8729138D02*
Y8819958D01*
X6582075Y8927500D02*
X6591298Y8918277D01*
X6767500Y8910777D02*
X6775000Y8918277D01*
X6577075Y8932500D02*
X6582075Y8927500D01*
X6545000Y8225340D02*
Y8267500D01*
Y8225340D02*
X6673702Y8096638D01*
X3301639Y7365000D02*
X3380000D01*
X1860000Y6890000D02*
Y7013000D01*
X3977500Y4170000D02*
Y4270000D01*
X3945000Y4137500D02*
X3977500Y4170000D01*
X3910000Y4137500D02*
X3945000D01*
X3910000D02*
X3912500Y4140000D01*
Y4270000D01*
X3847500Y4170000D02*
X3880000Y4137500D01*
X3910000D01*
X3847500Y4170000D02*
Y4270000D01*
X4847500Y2935000D02*
X4850000Y2937500D01*
Y3030000D01*
X4897500Y2935000D02*
X4915000Y2952500D01*
X4847500Y2935000D02*
X4897500D01*
X4915000Y2952500D02*
Y3030000D01*
X4785000Y2960000D02*
X4810000Y2935000D01*
X4847500D01*
X4785000Y2960000D02*
Y3030000D01*
X970000Y7927500D02*
X975537Y7933037D01*
X1002000D01*
X3654415Y4703085D02*
X3680000Y4677500D01*
X5172500Y5062500D02*
Y5617500D01*
X903149Y3951851D02*
X911297Y3960000D01*
X1270000D01*
X7094138Y7295000D02*
X7101638D01*
X7139138Y7332500D01*
Y7340000D01*
X6130436Y7947489D02*
X6140425Y7937500D01*
X6130436Y7947489D02*
Y8162500D01*
X782500Y6530000D02*
X1007500D01*
X733750D02*
X782500D01*
X682500D02*
X733750D01*
X6705850Y4494150D02*
Y4603755D01*
Y4494150D02*
X6720000Y4480000D01*
X6737500D01*
X6965850Y4465850D02*
Y4603755D01*
X6640851Y4469150D02*
Y4603755D01*
X6737500Y4480000D02*
X6755000D01*
X6915000Y4415000D02*
X6965850Y4465850D01*
X6640851Y4469150D02*
X6695000Y4415000D01*
X6915000D02*
X6985000D01*
X6625000D02*
X6695000D01*
X6755000Y4480000D02*
X6770851Y4495851D01*
X6985000Y4415000D02*
X7086250Y4516250D01*
X6510850Y4603755D02*
X6525529Y4589076D01*
X6770851Y4495851D02*
Y4603755D01*
X7086250Y4594154D02*
X7095850Y4603755D01*
X6525529Y4514471D02*
Y4589076D01*
X7086250Y4516250D02*
Y4594154D01*
X6525529Y4514471D02*
X6625000Y4415000D01*
X2858716Y2622784D02*
X2859000Y2622500D01*
X2570000Y3435000D02*
X2657500D01*
X2547500Y3457500D02*
X2570000Y3435000D01*
X2547500Y3457500D02*
Y3500000D01*
Y3540000D02*
X2572500Y3565000D01*
X2547500Y3500000D02*
Y3540000D01*
X2572500Y3565000D02*
X2657500D01*
X4087500Y4567500D02*
Y4632500D01*
X4135000Y4845000D02*
X4177500Y4802500D01*
X4042500Y4845000D02*
X4135000D01*
X4042500Y4152500D02*
X4070000Y4125000D01*
X4042500Y4152500D02*
Y4270000D01*
X5025000Y6560000D02*
X5085000D01*
X4980000Y3030000D02*
X5100000D01*
X5117075Y3047075D01*
X5077500Y5880000D02*
X5130000D01*
X5077500Y5215000D02*
X5077500Y5215000D01*
Y5290000D01*
X2635000Y2827500D02*
Y2900000D01*
Y2690000D02*
Y2827500D01*
X2690000Y2882500D01*
X2859000D01*
X2635000Y2557500D02*
Y2622500D01*
X2700000Y2557500D01*
X2859000D01*
X2635000D02*
X2765000Y2427500D01*
X2859000D01*
X2635000Y2900000D02*
X2747500Y3012500D01*
X2859000D01*
X6892925Y2312500D02*
X6957925D01*
X6892925D02*
X6955425Y2375000D01*
Y2496255D01*
X6957925Y2312500D02*
X7052396Y2406971D01*
Y2463225D01*
X7085425Y2496255D01*
X1125500Y3423000D02*
Y3492500D01*
X715000Y3857500D02*
X787925Y3784575D01*
X1477000Y6890500D02*
Y7015000D01*
X1601112Y7012111D02*
X1604000Y7015000D01*
X1601112Y6888888D02*
Y7012111D01*
X1731000Y6889000D02*
Y7015000D01*
X3420000Y7960000D02*
Y8000000D01*
X1055000Y2441080D02*
X1060580Y2435500D01*
X995580Y2335580D02*
Y2435500D01*
X1190580D02*
Y2541920D01*
X1055000Y2441080D02*
Y2547500D01*
X605580Y2435500D02*
Y2535580D01*
X1122500Y2610000D02*
X1190580Y2541920D01*
X732500Y6785000D02*
X758080Y6759420D01*
Y6700500D02*
Y6759420D01*
Y6700500D02*
X765580Y6693000D01*
X708080Y6760580D02*
X732500Y6785000D01*
X708080Y6700500D02*
Y6760580D01*
X700580Y6693000D02*
X708080Y6700500D01*
X895000Y6693000D02*
Y6782500D01*
X830000Y6577500D02*
Y6692420D01*
X782500Y6530000D02*
X830000Y6577500D01*
X1007500Y6530000D02*
X1090000Y6612500D01*
X580000Y6530000D02*
X682500D01*
X635580Y6576920D02*
X682500Y6530000D01*
X635580Y6576920D02*
Y6693000D01*
X3135000Y7830000D02*
X3190000D01*
X3463000Y7067500D02*
X3562500D01*
X3342500Y6937500D02*
X3456000D01*
X3458501Y6940000D01*
X3458000Y6812500D02*
X3461000Y6815500D01*
X3362500Y6812500D02*
X3458000D01*
X1090000Y6612500D02*
Y6692420D01*
X1090580Y6693000D01*
X881250Y6531250D02*
X956327Y6606327D01*
Y6688747D01*
X960580Y6693000D01*
X506284Y6603716D02*
X580000Y6530000D01*
X506284Y6603716D02*
Y6692296D01*
X505580Y6693000D02*
X506284Y6692296D01*
X830000Y6692420D02*
X830580Y6693000D01*
X1002000Y7933037D02*
Y7955000D01*
X1190000Y8692000D02*
Y8775000D01*
X1057500Y8694500D02*
Y8757500D01*
Y8694500D02*
X1060000Y8692000D01*
X1190000D02*
X1255000D01*
X1125000D02*
X1190000D01*
D68*
X3335000Y7195000D02*
X3712500D01*
X5275000Y8030000D02*
X5955000D01*
X5272500Y8027500D02*
X5275000Y8030000D01*
X3810000Y7485000D02*
Y7490000D01*
Y7292500D02*
Y7485000D01*
X3712500Y7195000D02*
X3810000Y7292500D01*
D69*
Y7615000D02*
Y7857500D01*
X3119575Y3945000D02*
X3250200D01*
X3400200Y3795000D01*
X2832300Y3672500D02*
Y3795000D01*
Y3467500D02*
Y3672500D01*
X2982300Y3945000D02*
X3119575D01*
X2832300Y3795000D02*
X2982300Y3945000D01*
X1317500Y3252500D02*
Y3590000D01*
X6715000Y5620000D02*
Y5982500D01*
X6090425Y5705000D02*
Y5804346D01*
X6240425Y5954346D01*
X6381846D01*
X6450000Y6022500D01*
X6441638Y3724138D02*
Y4050000D01*
X3807500Y7860000D02*
X3810000Y7857500D01*
X3807500Y7860000D02*
Y8334925D01*
X3805000Y7620000D02*
X3810000Y7615000D01*
X3610000Y7620000D02*
X3805000D01*
X3702425Y8440000D02*
X3807500Y8334925D01*
X2825000Y7365000D02*
X3196639D01*
D70*
X1977500Y5500500D02*
X3036034D01*
X3621000Y2522480D02*
Y2526960D01*
Y2522480D02*
X3625000Y2518480D01*
X3946520D01*
X3955000Y2510000D01*
X4947500Y5736250D02*
X5012500D01*
X5172500D02*
X5394175D01*
X5012500D02*
X5172500D01*
X3060000Y5500500D02*
X3596276D01*
X7015880Y3960000D02*
X7070000D01*
X6923380Y4052500D02*
X7015880Y3960000D01*
X6662500Y4052500D02*
X6923380D01*
X4880000Y3787300D02*
Y4030000D01*
Y4175000D02*
Y4710000D01*
X5107500Y3447500D02*
X5377500D01*
X4980000D02*
X5107500D01*
X4880000Y4030000D02*
Y4175000D01*
X4915000Y3447500D02*
X4980000D01*
X4850000D02*
X4915000D01*
X4785000D02*
X4850000D01*
X5377500D02*
X5415000Y3485000D01*
D71*
X2650000Y3262500D02*
X2657500D01*
X2596382Y3316118D02*
X2650000Y3262500D01*
X4947500Y5736250D02*
Y5880000D01*
X3290000Y3235000D02*
Y3270000D01*
X1858000Y7015000D02*
X1860000Y7013000D01*
X2596382Y3347681D02*
X2618700Y3370000D01*
X2596382Y3316118D02*
Y3347681D01*
X2618700Y3370000D02*
X2657500D01*
X3912500Y4677500D02*
Y4845000D01*
X3847500Y4677500D02*
Y4845000D01*
X3977500Y4702500D02*
Y4845000D01*
X5012500Y5736250D02*
Y5880000D01*
X5394175Y5736250D02*
X5425425Y5705000D01*
X1127130Y2487450D02*
X1179080Y2435500D01*
X1190580D01*
X605580D02*
X617080D01*
X669030Y2487450D01*
X3461000Y7069500D02*
X3463000Y7067500D01*
X3458501Y6940000D02*
X3461000Y6942500D01*
X956297Y3687500D02*
X1125500D01*
X1042500Y3622500D02*
X1125500D01*
Y3687500D01*
Y3557500D02*
Y3622500D01*
X1040000Y3557500D02*
X1125500D01*
X694925Y3560585D02*
X782925D01*
X694925Y3625585D02*
X787925D01*
X694925Y3690585D02*
X782925D01*
X694925Y3755585D02*
X787925D01*
X1857750Y7015250D02*
X1858000Y7015000D01*
D72*
X4882500Y6054800D02*
Y6180000D01*
Y6347500D01*
Y6054800D02*
X4947500D01*
D73*
X3912500Y4677500D02*
X4042500D01*
X3847500D02*
X3912500D01*
X3680000D02*
X3847500D01*
X2880000D02*
X3680000D01*
D74*
X6847834Y8567918D02*
X6919582D01*
X6922500Y8565000D01*
X6807500Y8442500D02*
X6911287Y8338713D01*
Y8295352D02*
Y8338713D01*
Y8295352D02*
X6936638Y8270000D01*
X7134138Y7485000D02*
X7135000Y7484138D01*
Y7562500D01*
Y7484138D02*
X7139138Y7480000D01*
X6917500Y7485000D02*
X7134138D01*
D75*
X4500000Y4855000D02*
Y5275000D01*
Y4855000D02*
X4645000Y4710000D01*
X4880000D01*
D76*
X3872000Y2915580D02*
X3932925Y2976505D01*
Y2977500D01*
X3962925Y3007500D01*
X3972925D01*
X3621000Y2915580D02*
X3872000D01*
D77*
X765000Y4090000D02*
X903149Y3951851D01*
X765000Y4090000D02*
Y4420000D01*
D78*
X5535000Y4812500D02*
D03*
X145000Y8932500D02*
D03*
X142500Y8755000D02*
D03*
X5357500Y4685000D02*
D03*
X5262500Y2737500D02*
D03*
X5473245Y2667500D02*
D03*
X3870000Y3727500D02*
D03*
X3920000Y3893245D02*
D03*
X1720000Y2992500D02*
D03*
X2267500Y3152500D02*
D03*
X2265000Y2975000D02*
D03*
X1712500Y2792500D02*
D03*
D79*
X6020000Y8525000D02*
D03*
X2414415Y3590000D02*
D03*
X6157500Y2705000D02*
D03*
X4867500Y7224255D02*
D03*
X7145000Y4360000D02*
D03*
X7077500Y6427500D02*
D03*
X1460000Y8630000D02*
D03*
X1597500Y5325000D02*
D03*
X1270000Y3960000D02*
D03*
X1812500Y3892500D02*
D03*
X4328511Y3092500D02*
D03*
X3654415Y4960585D02*
D03*
X4940000Y7872500D02*
D03*
X5032500Y4962500D02*
D03*
X6487500Y4270000D02*
D03*
D80*
X4631510Y8440000D02*
D03*
Y8772500D02*
D03*
X3610000Y7620000D02*
D03*
X4591915Y3060000D02*
D03*
X5432500Y6460000D02*
D03*
X4552500Y8000000D02*
D03*
X5272500Y8027500D02*
D03*
X5260000Y8900000D02*
D03*
X5470000D02*
D03*
X5680000D02*
D03*
X6225000Y8527500D02*
D03*
X1455000Y2607500D02*
D03*
D81*
X200000Y3260000D02*
D03*
X180000Y7980000D02*
D03*
X7070000Y3550000D02*
D03*
X7087500Y5657500D02*
D03*
D82*
X200000Y2850000D02*
D03*
X180000Y8390000D02*
D03*
X4957500Y7522500D02*
D03*
X4365000Y2510000D02*
D03*
X7070000Y3960000D02*
D03*
X7087500Y6067500D02*
D03*
D83*
X3448425Y8440000D02*
D03*
X3702425D02*
D03*
X3956425D02*
D03*
X4210425D02*
D03*
D84*
X4547500Y7522500D02*
D03*
X3955000Y2510000D02*
D03*
D85*
X3517500Y7830000D02*
D03*
X520025Y3000146D02*
D03*
X452500Y5860000D02*
D03*
X307500Y3695000D02*
D03*
X390925Y3490925D02*
D03*
X6892925Y2312500D02*
D03*
X6290000Y2445000D02*
D03*
X6537500Y2375000D02*
D03*
X2657500Y3262500D02*
D03*
X930000Y2317500D02*
D03*
X680000Y2607120D02*
D03*
X1120000Y2610000D02*
D03*
X2767500Y2622784D02*
D03*
X2637500Y2687500D02*
D03*
X6805000Y4415000D02*
D03*
X6890738Y2612813D02*
D03*
X3135000Y7960000D02*
D03*
X6770000Y8637500D02*
D03*
X6445000Y6327500D02*
D03*
X3685000Y3547500D02*
D03*
X3290000Y3235000D02*
D03*
X4412500Y4372500D02*
D03*
X187500Y6895000D02*
D03*
X4951250Y5181250D02*
D03*
X7050000Y7250000D02*
D03*
X6936639Y8050000D02*
D03*
X6527500Y8355000D02*
D03*
X7137500Y8010000D02*
D03*
X6630788Y7876638D02*
D03*
X6335000Y8932500D02*
D03*
X6130436Y8277500D02*
D03*
X6127548Y8932500D02*
D03*
X6767500Y8819958D02*
D03*
X6683149Y8918277D02*
D03*
X6485000Y8932500D02*
D03*
X3380000Y7365000D02*
D03*
X1860000Y6890000D02*
D03*
X3910000Y4137500D02*
D03*
X4847500Y2935000D02*
D03*
X970000Y7927500D02*
D03*
X190000Y3922500D02*
D03*
X3810000Y7292500D02*
D03*
X7135000Y7562500D02*
D03*
X6515000Y8162500D02*
D03*
X6737500Y4480000D02*
D03*
X6900000Y4705000D02*
D03*
X60000Y3630000D02*
D03*
X715000Y3857500D02*
D03*
X3335000Y7195000D02*
D03*
X1477000Y6890500D02*
D03*
X3290000Y3672500D02*
D03*
X3242500Y3160000D02*
D03*
X2547500Y3500000D02*
D03*
X3970000Y6692500D02*
D03*
X4087500Y4567500D02*
D03*
X4177500Y4802500D02*
D03*
X4070000Y4125000D02*
D03*
X5085000Y6560000D02*
D03*
X5107500Y3327500D02*
D03*
X5117075Y3047075D02*
D03*
X5095000Y3612500D02*
D03*
X5172500Y5617500D02*
D03*
X5130000Y5880000D02*
D03*
X5077500Y5215000D02*
D03*
X5072500Y4415000D02*
D03*
X1125500Y3423000D02*
D03*
X928750Y3393750D02*
D03*
X1601112Y6888888D02*
D03*
X1731000Y6889000D02*
D03*
X3420000Y8000000D02*
D03*
X995580Y2335580D02*
D03*
X732500Y6785000D02*
D03*
X895000Y6782500D02*
D03*
X3135000Y7830000D02*
D03*
X3562500Y7067500D02*
D03*
X3342500Y6937500D02*
D03*
X3362500Y6812500D02*
D03*
X733750Y6530000D02*
D03*
X1057500Y8757500D02*
D03*
X890001Y8140000D02*
D03*
X1190000Y8775000D02*
D03*
D86*
X5955000Y8030000D02*
D03*
X865000Y2622500D02*
D03*
X2692930Y2777500D02*
D03*
D87*
X6837500Y8607500D02*
D03*
X6847834Y8567918D02*
D03*
X6770000Y8442500D02*
D03*
X6807500D02*
D03*
X6545000Y8267500D02*
D03*
Y8667500D02*
D03*
X7115000Y8652500D02*
D03*
X6645000Y8467500D02*
D03*
X7115000Y8587500D02*
D03*
X7065000Y8297500D02*
D03*
D88*
X3165000Y5302500D02*
D03*
X2950000Y5312500D02*
D03*
X3485000Y5305000D02*
D03*
X2462500Y5312500D02*
D03*
X3060000D02*
D03*
X1977500Y5310000D02*
D03*
%TF.MD5,5ac158e9ea7a1d50337b41977dd3f8fa*%
M02*
