%TF.GenerationSoftware,Altium Limited,Altium Designer,19.1.7 (138)*%
G04 Layer_Color=32896*
%FSLAX45Y45*%
%MOMM*%
%TF.FileFunction,Legend,Bot*%
%TF.Part,Single*%
G01*
G75*
%TA.AperFunction,NonConductor*%
%ADD137C,0.10000*%
%ADD138C,0.25000*%
%ADD139C,0.20000*%
%ADD140C,0.05000*%
G36*
X7017832Y8867500D02*
X7095000Y8790332D01*
Y8867500D01*
X7017832D01*
D02*
G37*
D137*
X5180473Y8228204D02*
G03*
X5180473Y8228204I-5000J0D01*
G01*
X5360564Y7430000D02*
G03*
X5360564Y7430000I-5000J0D01*
G01*
X6476588Y7433213D02*
G03*
X6476588Y7433213I-5000J0D01*
G01*
X4812851Y5207138D02*
G03*
X4812851Y5207138I-5000J0D01*
G01*
X1430063Y8264212D02*
G03*
X1430063Y8264212I-5000J0D01*
G01*
X650788Y3796638D02*
G03*
X650788Y3796638I-5000J0D01*
G01*
X3916287Y4339150D02*
G03*
X3916287Y4339150I-5000J0D01*
G01*
X3049575Y4021639D02*
G03*
X3049575Y4021639I-5000J0D01*
G01*
X5073288Y3117075D02*
G03*
X5073288Y3117075I-5000J0D01*
G01*
X578787Y6743787D02*
G03*
X578787Y6743787I-5000J0D01*
G01*
X2541287Y2741287D02*
G03*
X2541287Y2741287I-5000J0D01*
G01*
X796287Y2508713D02*
G03*
X796287Y2508713I-5000J0D01*
G01*
X6853713Y4583713D02*
G03*
X6853713Y4583713I-5000J0D01*
G01*
X1350287Y6846213D02*
G03*
X1350287Y6846213I-5000J0D01*
G01*
X3245287Y7233713D02*
G03*
X3245287Y7233713I-5000J0D01*
G01*
X4810352Y5397139D02*
G03*
X4810352Y5397139I-5000J0D01*
G01*
X1615064Y8263787D02*
G03*
X1615064Y8263787I-5000J0D01*
G01*
X650788Y3980777D02*
G03*
X650788Y3980777I-5000J0D01*
G01*
X3732148Y4338288D02*
G03*
X3732148Y4338288I-5000J0D01*
G01*
X3044575Y3831639D02*
G03*
X3044575Y3831639I-5000J0D01*
G01*
X5078288Y3307075D02*
G03*
X5078288Y3307075I-5000J0D01*
G01*
X572788Y8830861D02*
G03*
X572788Y8830861I-5000J0D01*
G01*
X611287Y2523713D02*
G03*
X611287Y2523713I-5000J0D01*
G01*
X5731787Y2901723D02*
G03*
X5731787Y2901723I-5000J0D01*
G01*
X5416712Y5748787D02*
G03*
X5416712Y5748787I-5000J0D01*
G01*
X5363787Y4976287D02*
G03*
X5363787Y4976287I-5000J0D01*
G01*
X3396287Y3165425D02*
G03*
X3396287Y3165425I-5000J0D01*
G01*
X1472510Y6838713D02*
G03*
X1472510Y6838713I-5000J0D01*
G01*
X3738713Y7235138D02*
G03*
X3738713Y7235138I-5000J0D01*
G01*
X1774861Y6811213D02*
G03*
X1774861Y6811213I-5000J0D01*
G01*
X3238787Y6947213D02*
G03*
X3238787Y6947213I-5000J0D01*
G01*
X844713Y8819713D02*
G03*
X844713Y8819713I-5000J0D01*
G01*
X974713Y2902213D02*
G03*
X974713Y2902213I-5000J0D01*
G01*
X5969713Y3402213D02*
G03*
X5969713Y3402213I-5000J0D01*
G01*
X4972213Y4449713D02*
G03*
X4972213Y4449713I-5000J0D01*
G01*
X5609713Y5482213D02*
G03*
X5609713Y5482213I-5000J0D01*
G01*
X3214713Y2922787D02*
G03*
X3214713Y2922787I-5000J0D01*
G01*
X652500Y8096650D02*
G03*
X652500Y8096650I-5000J0D01*
G01*
X5340000Y5587925D02*
G03*
X5340000Y5587925I-5000J0D01*
G01*
X1000425Y3182500D02*
G03*
X1000425Y3182500I-5000J0D01*
G01*
X4727500Y4542925D02*
G03*
X4727500Y4542925I-5000J0D01*
G01*
X3324575Y3170000D02*
G03*
X3324575Y3170000I-5000J0D01*
G01*
X5727500Y3507500D02*
G03*
X5727500Y3507500I-5000J0D01*
G01*
X2828787Y3008362D02*
G03*
X2828787Y3008362I-5000J0D01*
G01*
X4884575Y4065862D02*
G03*
X4884575Y4065862I-5000J0D01*
G01*
X4896213Y4505425D02*
G03*
X4896213Y4505425I-5000J0D01*
G01*
X4259075Y4547075D02*
G03*
X4259075Y4547075I-5000J0D01*
G01*
X843787Y2993787D02*
G03*
X843787Y2993787I-5000J0D01*
G01*
X613787Y3020862D02*
G03*
X613787Y3020862I-5000J0D01*
G01*
X308713Y3543787D02*
G03*
X308713Y3543787I-5000J0D01*
G01*
X1008713Y4003713D02*
G03*
X1008713Y4003713I-5000J0D01*
G01*
X3113787Y3698787D02*
G03*
X3113787Y3698787I-5000J0D01*
G01*
X3270425Y3003787D02*
G03*
X3270425Y3003787I-5000J0D01*
G01*
X5253713Y3491213D02*
G03*
X5253713Y3491213I-5000J0D01*
G01*
X5396287Y5537925D02*
G03*
X5396287Y5537925I-5000J0D01*
G01*
X5208787Y5924563D02*
G03*
X5208787Y5924563I-5000J0D01*
G01*
X413713Y5916213D02*
G03*
X413713Y5916213I-5000J0D01*
G01*
X903713Y8048724D02*
G03*
X903713Y8048724I-5000J0D01*
G01*
X525862Y8876287D02*
G03*
X525862Y8876287I-5000J0D01*
G01*
X719575Y8619575D02*
G03*
X719575Y8619575I-5000J0D01*
G01*
X73786Y7661213D02*
G03*
X73786Y7661213I-5000J0D01*
G01*
X3491213Y7733787D02*
G03*
X3491213Y7733787I-5000J0D01*
G01*
X3616213Y7783787D02*
G03*
X3616213Y7783787I-5000J0D01*
G01*
X3763713Y8703713D02*
G03*
X3763713Y8703713I-5000J0D01*
G01*
X4246213Y7932075D02*
G03*
X4246213Y7932075I-5000J0D01*
G01*
X4261713Y8242213D02*
G03*
X4261713Y8242213I-5000J0D01*
G01*
X5135047Y8504418D02*
G03*
X5135047Y8504418I-5000J0D01*
G01*
X5353287Y6872787D02*
G03*
X5353287Y6872787I-5000J0D01*
G01*
X5355425Y6607787D02*
G03*
X5355425Y6607787I-5000J0D01*
G01*
X5876713Y6711010D02*
G03*
X5876713Y6711010I-5000J0D01*
G01*
X5874213Y6971574D02*
G03*
X5874213Y6971574I-5000J0D01*
G01*
X5648713Y7961639D02*
G03*
X5648713Y7961639I-5000J0D01*
G01*
X5973713Y3202075D02*
G03*
X5973713Y3202075I-5000J0D01*
G01*
X5781287Y3457925D02*
G03*
X5781287Y3457925I-5000J0D01*
G01*
X6756213Y7598787D02*
G03*
X6756213Y7598787I-5000J0D01*
G01*
X4776770Y8745078D02*
G03*
X4776770Y8745078I-5000J0D01*
G01*
X5994175Y8210787D02*
G03*
X5994175Y8210787I-5000J0D01*
G01*
X6434701Y7739202D02*
G03*
X6434701Y7739202I-5000J0D01*
G01*
X6430787Y6612787D02*
G03*
X6430787Y6612787I-5000J0D01*
G01*
X4874484Y8180787D02*
G03*
X4874484Y8180787I-5000J0D01*
G01*
X5135047Y8182906D02*
G03*
X5135047Y8182906I-5000J0D01*
G01*
X5733611Y8208287D02*
G03*
X5733611Y8208287I-5000J0D01*
G01*
X6430787Y7478638D02*
G03*
X6430787Y7478638I-5000J0D01*
G01*
X6432014Y6880074D02*
G03*
X6432014Y6880074I-5000J0D01*
G01*
X5040334Y8747216D02*
G03*
X5040334Y8747216I-5000J0D01*
G01*
X5642787Y8726713D02*
G03*
X5642787Y8726713I-5000J0D01*
G01*
X5310787Y7742787D02*
G03*
X5310787Y7742787I-5000J0D01*
G01*
X6998713Y7836915D02*
G03*
X6998713Y7836915I-5000J0D01*
G01*
X5903351Y8618000D02*
G03*
X5903351Y8618000I-5000J0D01*
G01*
X5876213Y7819702D02*
G03*
X5876213Y7819702I-5000J0D01*
G01*
X6998685Y6722213D02*
G03*
X6998685Y6722213I-5000J0D01*
G01*
X6998012Y7574851D02*
G03*
X6998012Y7574851I-5000J0D01*
G01*
X5593713Y5281213D02*
G03*
X5593713Y5281213I-5000J0D01*
G01*
X5319701Y7477787D02*
G03*
X5319701Y7477787I-5000J0D01*
G01*
X5876213Y7559138D02*
G03*
X5876213Y7559138I-5000J0D01*
G01*
X6998713Y6974788D02*
G03*
X6998713Y6974788I-5000J0D01*
G01*
D138*
X7172500Y8852500D02*
G03*
X7172500Y8852500I-12500J0D01*
G01*
D139*
X6395000Y8167500D02*
X7095000D01*
X6395000Y8867500D02*
X7095000D01*
X6395000Y8167500D02*
Y8867500D01*
X7095000Y8167500D02*
Y8867500D01*
X7017832D02*
X7095000Y8790332D01*
X5215473Y8228204D02*
Y8265704D01*
Y8730704D02*
Y8768204D01*
X5555473Y8228204D02*
Y8265704D01*
Y8730704D02*
Y8768204D01*
X5215473Y8228204D02*
X5300973D01*
X5469973D02*
X5555473D01*
X5215473Y8768204D02*
X5300973D01*
X5469973D02*
X5555473D01*
X5895564Y7050000D02*
Y7135500D01*
Y7304500D02*
Y7390000D01*
X5355564Y7050000D02*
Y7135500D01*
Y7304500D02*
Y7390000D01*
X5858064Y7050000D02*
X5895564D01*
X5355564D02*
X5393064D01*
X5858064Y7390000D02*
X5895564D01*
X5355564D02*
X5393064D01*
X6471588Y7393213D02*
X6509088D01*
X6974088D02*
X7011588D01*
X6471588Y7053213D02*
X6509088D01*
X6974088D02*
X7011588D01*
X6471588Y7307713D02*
Y7393213D01*
Y7053213D02*
Y7138713D01*
X7011588Y7307713D02*
Y7393213D01*
Y7053213D02*
Y7138713D01*
X687500Y8096650D02*
Y8114150D01*
Y8429150D02*
Y8446650D01*
X1037500Y8096650D02*
Y8114150D01*
Y8429150D02*
Y8446650D01*
X687500Y8096650D02*
X778000D01*
X947000D02*
X1037500D01*
X687500Y8446650D02*
X778000D01*
X947000D02*
X1037500D01*
X4945000Y5237925D02*
X5035500D01*
X5204500D02*
X5295000D01*
X4945000Y5587925D02*
X5035500D01*
X5204500D02*
X5295000D01*
X4945000Y5237925D02*
Y5255425D01*
Y5570425D02*
Y5587925D01*
X5295000Y5237925D02*
Y5255425D01*
Y5570425D02*
Y5587925D01*
X977925Y3222500D02*
X995425D01*
X645425D02*
X662925D01*
X977925Y3572500D02*
X995425D01*
X645425D02*
X662925D01*
X995425Y3222500D02*
Y3313000D01*
Y3482000D02*
Y3572500D01*
X645425Y3222500D02*
Y3313000D01*
Y3482000D02*
Y3572500D01*
X4332500Y4192925D02*
X4423000D01*
X4592000D02*
X4682500D01*
X4332500Y4542925D02*
X4423000D01*
X4592000D02*
X4682500D01*
X4332500Y4192925D02*
Y4210425D01*
Y4525425D02*
Y4542925D01*
X4682500Y4192925D02*
Y4210425D01*
Y4525425D02*
Y4542925D01*
X3302075Y3210000D02*
X3319575D01*
X2969575D02*
X2987075D01*
X3302075Y3560000D02*
X3319575D01*
X2969575D02*
X2987075D01*
X3319575Y3210000D02*
Y3300500D01*
Y3469500D02*
Y3560000D01*
X2969575Y3210000D02*
Y3300500D01*
Y3469500D02*
Y3560000D01*
X5332500Y3157500D02*
X5423000D01*
X5592000D02*
X5682500D01*
X5332500Y3507500D02*
X5423000D01*
X5592000D02*
X5682500D01*
X5332500Y3157500D02*
Y3175000D01*
Y3490000D02*
Y3507500D01*
X5682500Y3157500D02*
Y3175000D01*
Y3490000D02*
Y3507500D01*
X272500Y3685000D02*
Y3705000D01*
X92500Y3685000D02*
Y3705000D01*
X100000Y7500000D02*
Y7520000D01*
X280000Y7500000D02*
Y7520000D01*
X4050000Y8211000D02*
X4080000D01*
X4050000Y8009000D02*
X4080000D01*
D140*
X6287500Y8989989D02*
Y8940000D01*
Y8989989D02*
X6266076D01*
X6258935Y8987609D01*
X6256554Y8985228D01*
X6254174Y8980467D01*
Y8975706D01*
X6256554Y8970945D01*
X6258935Y8968565D01*
X6266076Y8966185D01*
X6287500D01*
X6270837D02*
X6254174Y8940000D01*
X6231084Y8989989D02*
X6238225Y8987609D01*
X6240605Y8982848D01*
Y8978087D01*
X6238225Y8973326D01*
X6233464Y8970945D01*
X6223942Y8968565D01*
X6216801Y8966185D01*
X6212040Y8961424D01*
X6209660Y8956663D01*
Y8949522D01*
X6212040Y8944761D01*
X6214420Y8942380D01*
X6221562Y8940000D01*
X6231084D01*
X6238225Y8942380D01*
X6240605Y8944761D01*
X6242986Y8949522D01*
Y8956663D01*
X6240605Y8961424D01*
X6235845Y8966185D01*
X6228703Y8968565D01*
X6219181Y8970945D01*
X6214420Y8973326D01*
X6212040Y8978087D01*
Y8982848D01*
X6214420Y8987609D01*
X6221562Y8989989D01*
X6231084D01*
X6193710D02*
X6167526D01*
X6181808Y8970945D01*
X6174667D01*
X6169906Y8968565D01*
X6167526Y8966185D01*
X6165145Y8959043D01*
Y8954283D01*
X6167526Y8947141D01*
X6172287Y8942380D01*
X6179428Y8940000D01*
X6186569D01*
X6193710Y8942380D01*
X6196091Y8944761D01*
X6198471Y8949522D01*
X6079989Y8867500D02*
X6030000D01*
X6079989D02*
Y8888924D01*
X6077609Y8896065D01*
X6075228Y8898445D01*
X6070467Y8900826D01*
X6065706D01*
X6060945Y8898445D01*
X6058565Y8896065D01*
X6056185Y8888924D01*
Y8867500D01*
Y8884163D02*
X6030000Y8900826D01*
X6079989Y8916775D02*
Y8942960D01*
X6060945Y8928677D01*
Y8935819D01*
X6058565Y8940580D01*
X6056185Y8942960D01*
X6049043Y8945340D01*
X6044283D01*
X6037141Y8942960D01*
X6032380Y8938199D01*
X6030000Y8931058D01*
Y8923916D01*
X6032380Y8916775D01*
X6034761Y8914395D01*
X6039522Y8912014D01*
X6079989Y8968431D02*
X6077609Y8961289D01*
X6072848Y8958909D01*
X6068087D01*
X6063326Y8961289D01*
X6060945Y8966050D01*
X6058565Y8975572D01*
X6056185Y8982713D01*
X6051424Y8987474D01*
X6046663Y8989855D01*
X6039522D01*
X6034761Y8987474D01*
X6032380Y8985094D01*
X6030000Y8977952D01*
Y8968431D01*
X6032380Y8961289D01*
X6034761Y8958909D01*
X6039522Y8956528D01*
X6046663D01*
X6051424Y8958909D01*
X6056185Y8963670D01*
X6058565Y8970811D01*
X6060945Y8980333D01*
X6063326Y8985094D01*
X6068087Y8987474D01*
X6072848D01*
X6077609Y8985094D01*
X6079989Y8977952D01*
Y8968431D01*
X4210004Y8989985D02*
X4220002Y8986652D01*
X4226667Y8976655D01*
X4230000Y8959991D01*
Y8949994D01*
X4226667Y8933330D01*
X4220002Y8923333D01*
X4210004Y8920000D01*
X4203339D01*
X4193341Y8923333D01*
X4186676Y8933330D01*
X4183343Y8949994D01*
Y8959991D01*
X4186676Y8976655D01*
X4193341Y8986652D01*
X4203339Y8989985D01*
X4210004D01*
X4167680D02*
Y8920000D01*
Y8989985D02*
X4137686D01*
X4127688Y8986652D01*
X4124356Y8983320D01*
X4121023Y8976655D01*
Y8969989D01*
X4124356Y8963324D01*
X4127688Y8959991D01*
X4137686Y8956659D01*
X4167680D01*
X4144351D02*
X4121023Y8920000D01*
X4050371Y8949994D02*
X3990384D01*
X3969722Y8979987D02*
X3916400Y8949994D01*
X3969722Y8920000D01*
X3896404Y8989985D02*
X3869743Y8920000D01*
X3843082Y8989985D02*
X3869743Y8920000D01*
X3834084Y8989985D02*
Y8920000D01*
Y8989985D02*
X3810755D01*
X3800757Y8986652D01*
X3794092Y8979987D01*
X3790760Y8973322D01*
X3787427Y8963324D01*
Y8946661D01*
X3790760Y8936663D01*
X3794092Y8929998D01*
X3800757Y8923333D01*
X3810755Y8920000D01*
X3834084D01*
X3771764Y8989985D02*
Y8920000D01*
Y8989985D02*
X3748435D01*
X3738437Y8986652D01*
X3731772Y8979987D01*
X3728440Y8973322D01*
X3725107Y8963324D01*
Y8946661D01*
X3728440Y8936663D01*
X3731772Y8929998D01*
X3738437Y8923333D01*
X3748435Y8920000D01*
X3771764D01*
X4739531Y8651435D02*
X4735722Y8653339D01*
X4731913Y8657148D01*
X4730009Y8660957D01*
Y8668574D01*
X4731913Y8672382D01*
X4735722Y8676191D01*
X4739531Y8678096D01*
X4745243Y8680000D01*
X4754765D01*
X4760478Y8678096D01*
X4764287Y8676191D01*
X4768096Y8672382D01*
X4770000Y8668574D01*
Y8660957D01*
X4768096Y8657148D01*
X4764287Y8653339D01*
X4760478Y8651435D01*
X4735722Y8617347D02*
X4731913Y8619251D01*
X4730009Y8624964D01*
Y8628773D01*
X4731913Y8634486D01*
X4737626Y8638295D01*
X4747148Y8640199D01*
X4756670D01*
X4764287Y8638295D01*
X4768096Y8634486D01*
X4770000Y8628773D01*
Y8626868D01*
X4768096Y8621155D01*
X4764287Y8617347D01*
X4758574Y8615442D01*
X4756670D01*
X4750957Y8617347D01*
X4747148Y8621155D01*
X4745243Y8626868D01*
Y8628773D01*
X4747148Y8634486D01*
X4750957Y8638295D01*
X4756670Y8640199D01*
X4739531Y8604778D02*
X4737626D01*
X4733818Y8602874D01*
X4731913Y8600969D01*
X4730009Y8597161D01*
Y8589543D01*
X4731913Y8585734D01*
X4733818Y8583830D01*
X4737626Y8581926D01*
X4741435D01*
X4745243Y8583830D01*
X4750957Y8587639D01*
X4770000Y8606682D01*
Y8580021D01*
X6792510Y4645822D02*
X6795843Y4652487D01*
X6802508Y4659152D01*
X6809174Y4662485D01*
X6822504D01*
X6829169Y4659152D01*
X6835835Y4652487D01*
X6839167Y4645822D01*
X6842500Y4635824D01*
Y4619161D01*
X6839167Y4609163D01*
X6835835Y4602498D01*
X6829169Y4595833D01*
X6822504Y4592500D01*
X6809174D01*
X6802508Y4595833D01*
X6795843Y4602498D01*
X6792510Y4609163D01*
X6726191Y4662485D02*
X6759518Y4592500D01*
X6772848Y4662485D02*
X6726191D01*
X6703863D02*
X6667204D01*
X6687199Y4635824D01*
X6677202D01*
X6670536Y4632492D01*
X6667204Y4629159D01*
X6663871Y4619161D01*
Y4612496D01*
X6667204Y4602498D01*
X6673869Y4595833D01*
X6683867Y4592500D01*
X6693865D01*
X6703863Y4595833D01*
X6707195Y4599165D01*
X6710528Y4605831D01*
X3472500Y2834985D02*
Y2765000D01*
Y2834985D02*
X3442506D01*
X3432509Y2831652D01*
X3429176Y2828320D01*
X3425843Y2821655D01*
Y2814990D01*
X3429176Y2808324D01*
X3432509Y2804992D01*
X3442506Y2801659D01*
X3472500D01*
X3449172D02*
X3425843Y2765000D01*
X3410180Y2821655D02*
X3403515Y2824987D01*
X3393517Y2834985D01*
Y2765000D01*
X3318866Y2824987D02*
X3322199Y2831652D01*
X3332196Y2834985D01*
X3338862D01*
X3348859Y2831652D01*
X3355525Y2821655D01*
X3358857Y2804992D01*
Y2788328D01*
X3355525Y2774998D01*
X3348859Y2768333D01*
X3338862Y2765000D01*
X3335529D01*
X3325531Y2768333D01*
X3318866Y2774998D01*
X3315533Y2784996D01*
Y2788328D01*
X3318866Y2798326D01*
X3325531Y2804992D01*
X3335529Y2808324D01*
X3338862D01*
X3348859Y2804992D01*
X3355525Y2798326D01*
X3358857Y2788328D01*
X6066435Y8750470D02*
X6068339Y8754278D01*
X6072148Y8758087D01*
X6075957Y8759991D01*
X6083574D01*
X6087383Y8758087D01*
X6091191Y8754278D01*
X6093096Y8750470D01*
X6095000Y8744757D01*
Y8735235D01*
X6093096Y8729522D01*
X6091191Y8725713D01*
X6087383Y8721904D01*
X6083574Y8720000D01*
X6075957D01*
X6072148Y8721904D01*
X6068339Y8725713D01*
X6066435Y8729522D01*
X6032347Y8754278D02*
X6034251Y8758087D01*
X6039964Y8759991D01*
X6043773D01*
X6049486Y8758087D01*
X6053295Y8752374D01*
X6055199Y8742852D01*
Y8733331D01*
X6053295Y8725713D01*
X6049486Y8721904D01*
X6043773Y8720000D01*
X6041869D01*
X6036156Y8721904D01*
X6032347Y8725713D01*
X6030442Y8731426D01*
Y8733331D01*
X6032347Y8739043D01*
X6036156Y8742852D01*
X6041869Y8744757D01*
X6043773D01*
X6049486Y8742852D01*
X6053295Y8739043D01*
X6055199Y8733331D01*
X6017874Y8759991D02*
X5996926D01*
X6008352Y8744757D01*
X6002639D01*
X5998830Y8742852D01*
X5996926Y8740948D01*
X5995022Y8735235D01*
Y8731426D01*
X5996926Y8725713D01*
X6000735Y8721904D01*
X6006447Y8720000D01*
X6012161D01*
X6017874Y8721904D01*
X6019778Y8723809D01*
X6021682Y8727618D01*
X1997500Y7352485D02*
Y7282500D01*
Y7352485D02*
X1967506D01*
X1957508Y7349152D01*
X1954176Y7345820D01*
X1950843Y7339155D01*
Y7332490D01*
X1954176Y7325824D01*
X1957508Y7322492D01*
X1967506Y7319159D01*
X1997500D01*
X1974172D02*
X1950843Y7282500D01*
X1895188Y7342487D02*
X1898521Y7349152D01*
X1908519Y7352485D01*
X1915184D01*
X1925182Y7349152D01*
X1931847Y7339155D01*
X1935180Y7322492D01*
Y7305828D01*
X1931847Y7292498D01*
X1925182Y7285833D01*
X1915184Y7282500D01*
X1911851D01*
X1901853Y7285833D01*
X1895188Y7292498D01*
X1891856Y7302496D01*
Y7305828D01*
X1895188Y7315826D01*
X1901853Y7322492D01*
X1911851Y7325824D01*
X1915184D01*
X1925182Y7322492D01*
X1931847Y7315826D01*
X1935180Y7305828D01*
X1869860Y7352485D02*
X1833202D01*
X1853197Y7325824D01*
X1843199D01*
X1836534Y7322492D01*
X1833202Y7319159D01*
X1829869Y7309161D01*
Y7302496D01*
X1833202Y7292498D01*
X1839867Y7285833D01*
X1849864Y7282500D01*
X1859862D01*
X1869860Y7285833D01*
X1873193Y7289165D01*
X1876526Y7295830D01*
X4724413Y8304294D02*
X4719652Y8306674D01*
X4714891Y8311435D01*
X4712511Y8316196D01*
Y8325717D01*
X4714891Y8330478D01*
X4719652Y8335239D01*
X4724413Y8337620D01*
X4731554Y8340000D01*
X4743457D01*
X4750598Y8337620D01*
X4755359Y8335239D01*
X4760120Y8330478D01*
X4762500Y8325717D01*
Y8316196D01*
X4760120Y8311435D01*
X4755359Y8306674D01*
X4750598Y8304294D01*
X4712511Y8261684D02*
Y8285488D01*
X4733935Y8287868D01*
X4731554Y8285488D01*
X4729174Y8278347D01*
Y8271205D01*
X4731554Y8264064D01*
X4736315Y8259303D01*
X4743457Y8256923D01*
X4748217D01*
X4755359Y8259303D01*
X4760120Y8264064D01*
X4762500Y8271205D01*
Y8278347D01*
X4760120Y8285488D01*
X4757739Y8287868D01*
X4752978Y8290249D01*
X4712511Y8233832D02*
X4714891Y8240974D01*
X4719652Y8243354D01*
X4724413D01*
X4729174Y8240974D01*
X4731554Y8236213D01*
X4733935Y8226691D01*
X4736315Y8219550D01*
X4741076Y8214789D01*
X4745837Y8212409D01*
X4752978D01*
X4757739Y8214789D01*
X4760120Y8217169D01*
X4762500Y8224311D01*
Y8233832D01*
X4760120Y8240974D01*
X4757739Y8243354D01*
X4752978Y8245735D01*
X4745837D01*
X4741076Y8243354D01*
X4736315Y8238593D01*
X4733935Y8231452D01*
X4731554Y8221930D01*
X4729174Y8217169D01*
X4724413Y8214789D01*
X4719652D01*
X4714891Y8217169D01*
X4712511Y8224311D01*
Y8233832D01*
X4170000Y8332485D02*
Y8262500D01*
X4130009D01*
X4075687Y8332485D02*
X4109013Y8262500D01*
X4122344Y8332485D02*
X4075687D01*
X4135011Y7750822D02*
X4138343Y7757487D01*
X4145008Y7764152D01*
X4151674Y7767485D01*
X4165004D01*
X4171670Y7764152D01*
X4178335Y7757487D01*
X4181667Y7750822D01*
X4185000Y7740824D01*
Y7724161D01*
X4181667Y7714163D01*
X4178335Y7707498D01*
X4171670Y7700833D01*
X4165004Y7697500D01*
X4151674D01*
X4145008Y7700833D01*
X4138343Y7707498D01*
X4135011Y7714163D01*
X4115348Y7754155D02*
X4108683Y7757487D01*
X4098685Y7767485D01*
Y7697500D01*
X4044030Y7767485D02*
X4054028Y7764152D01*
X4060693Y7754155D01*
X4064026Y7737492D01*
Y7727494D01*
X4060693Y7710830D01*
X4054028Y7700833D01*
X4044030Y7697500D01*
X4037365D01*
X4027367Y7700833D01*
X4020702Y7710830D01*
X4017369Y7727494D01*
Y7737492D01*
X4020702Y7754155D01*
X4027367Y7764152D01*
X4037365Y7767485D01*
X4044030D01*
X3955049D02*
X3988375Y7697500D01*
X4001705Y7767485D02*
X3955049D01*
X3695010Y8785822D02*
X3698343Y8792487D01*
X3705008Y8799152D01*
X3711674Y8802485D01*
X3725004D01*
X3731669Y8799152D01*
X3738335Y8792487D01*
X3741667Y8785822D01*
X3745000Y8775824D01*
Y8759161D01*
X3741667Y8749163D01*
X3738335Y8742498D01*
X3731669Y8735833D01*
X3725004Y8732500D01*
X3711674D01*
X3705008Y8735833D01*
X3698343Y8742498D01*
X3695010Y8749163D01*
X3675348Y8789155D02*
X3668683Y8792487D01*
X3658685Y8802485D01*
Y8732500D01*
X3604030Y8802485D02*
X3614028Y8799152D01*
X3620693Y8789155D01*
X3624026Y8772491D01*
Y8762494D01*
X3620693Y8745830D01*
X3614028Y8735833D01*
X3604030Y8732500D01*
X3597364D01*
X3587367Y8735833D01*
X3580701Y8745830D01*
X3577369Y8762494D01*
Y8772491D01*
X3580701Y8789155D01*
X3587367Y8799152D01*
X3597364Y8802485D01*
X3604030D01*
X3521714Y8792487D02*
X3525047Y8799152D01*
X3535044Y8802485D01*
X3541710D01*
X3551707Y8799152D01*
X3558373Y8789155D01*
X3561705Y8772491D01*
Y8755828D01*
X3558373Y8742498D01*
X3551707Y8735833D01*
X3541710Y8732500D01*
X3538377D01*
X3528379Y8735833D01*
X3521714Y8742498D01*
X3518381Y8752496D01*
Y8755828D01*
X3521714Y8765826D01*
X3528379Y8772491D01*
X3538377Y8775824D01*
X3541710D01*
X3551707Y8772491D01*
X3558373Y8765826D01*
X3561705Y8755828D01*
X3567511Y3383322D02*
X3570843Y3389987D01*
X3577508Y3396652D01*
X3584174Y3399985D01*
X3597504D01*
X3604170Y3396652D01*
X3610835Y3389987D01*
X3614167Y3383322D01*
X3617500Y3373324D01*
Y3356661D01*
X3614167Y3346663D01*
X3610835Y3339998D01*
X3604170Y3333333D01*
X3597504Y3330000D01*
X3584174D01*
X3577508Y3333333D01*
X3570843Y3339998D01*
X3567511Y3346663D01*
X3547848Y3386655D02*
X3541183Y3389987D01*
X3531185Y3399985D01*
Y3330000D01*
X3476530Y3399985D02*
X3486528Y3396652D01*
X3493193Y3386655D01*
X3496526Y3369991D01*
Y3359994D01*
X3493193Y3343330D01*
X3486528Y3333333D01*
X3476530Y3330000D01*
X3469865D01*
X3459867Y3333333D01*
X3453202Y3343330D01*
X3449869Y3359994D01*
Y3369991D01*
X3453202Y3386655D01*
X3459867Y3396652D01*
X3469865Y3399985D01*
X3476530D01*
X3394214D02*
X3427540D01*
X3430873Y3369991D01*
X3427540Y3373324D01*
X3417542Y3376657D01*
X3407544D01*
X3397547Y3373324D01*
X3390881Y3366659D01*
X3387549Y3356661D01*
Y3349996D01*
X3390881Y3339998D01*
X3397547Y3333333D01*
X3407544Y3330000D01*
X3417542D01*
X3427540Y3333333D01*
X3430873Y3336665D01*
X3434205Y3343330D01*
X5414293Y4940587D02*
X5416674Y4945348D01*
X5421435Y4950109D01*
X5426196Y4952489D01*
X5435717D01*
X5440478Y4950109D01*
X5445239Y4945348D01*
X5447620Y4940587D01*
X5450000Y4933446D01*
Y4921543D01*
X5447620Y4914402D01*
X5445239Y4909641D01*
X5440478Y4904880D01*
X5435717Y4902500D01*
X5426196D01*
X5421435Y4904880D01*
X5416674Y4909641D01*
X5414293Y4914402D01*
X5400249Y4942968D02*
X5395488Y4945348D01*
X5388347Y4952489D01*
Y4902500D01*
X5349307Y4952489D02*
X5356449Y4950109D01*
X5361209Y4942968D01*
X5363590Y4931065D01*
Y4923924D01*
X5361209Y4912022D01*
X5356449Y4904880D01*
X5349307Y4902500D01*
X5344547D01*
X5337405Y4904880D01*
X5332644Y4912022D01*
X5330264Y4923924D01*
Y4931065D01*
X5332644Y4942968D01*
X5337405Y4950109D01*
X5344547Y4952489D01*
X5349307D01*
X5295271D02*
X5319076Y4919163D01*
X5283369D01*
X5295271Y4952489D02*
Y4902500D01*
X5556794Y5943087D02*
X5559174Y5947848D01*
X5563935Y5952609D01*
X5568696Y5954989D01*
X5578217D01*
X5582978Y5952609D01*
X5587739Y5947848D01*
X5590120Y5943087D01*
X5592500Y5935945D01*
Y5924043D01*
X5590120Y5916902D01*
X5587739Y5912141D01*
X5582978Y5907380D01*
X5578217Y5905000D01*
X5568696D01*
X5563935Y5907380D01*
X5559174Y5912141D01*
X5556794Y5916902D01*
X5542749Y5945467D02*
X5537988Y5947848D01*
X5530847Y5954989D01*
Y5905000D01*
X5491807Y5954989D02*
X5498949Y5952609D01*
X5503710Y5945467D01*
X5506090Y5933565D01*
Y5926424D01*
X5503710Y5914522D01*
X5498949Y5907380D01*
X5491807Y5905000D01*
X5487047D01*
X5479905Y5907380D01*
X5475144Y5914522D01*
X5472764Y5926424D01*
Y5933565D01*
X5475144Y5945467D01*
X5479905Y5952609D01*
X5487047Y5954989D01*
X5491807D01*
X5456815D02*
X5430630D01*
X5444913Y5935945D01*
X5437771D01*
X5433010Y5933565D01*
X5430630Y5931185D01*
X5428250Y5924043D01*
Y5919283D01*
X5430630Y5912141D01*
X5435391Y5907380D01*
X5442532Y5905000D01*
X5449674D01*
X5456815Y5907380D01*
X5459195Y5909761D01*
X5461576Y5914522D01*
X5926793Y2833087D02*
X5929174Y2837848D01*
X5933935Y2842609D01*
X5938696Y2844989D01*
X5948217D01*
X5952978Y2842609D01*
X5957739Y2837848D01*
X5960119Y2833087D01*
X5962500Y2825946D01*
Y2814043D01*
X5960119Y2806902D01*
X5957739Y2802141D01*
X5952978Y2797380D01*
X5948217Y2795000D01*
X5938696D01*
X5933935Y2797380D01*
X5929174Y2802141D01*
X5926793Y2806902D01*
X5912749Y2835468D02*
X5907988Y2837848D01*
X5900846Y2844989D01*
Y2795000D01*
X5861807Y2844989D02*
X5868949Y2842609D01*
X5873709Y2835468D01*
X5876090Y2823565D01*
Y2816424D01*
X5873709Y2804522D01*
X5868949Y2797380D01*
X5861807Y2795000D01*
X5857046D01*
X5849905Y2797380D01*
X5845144Y2804522D01*
X5842764Y2816424D01*
Y2823565D01*
X5845144Y2835468D01*
X5849905Y2842609D01*
X5857046Y2844989D01*
X5861807D01*
X5829195Y2833087D02*
Y2835468D01*
X5826815Y2840228D01*
X5824434Y2842609D01*
X5819673Y2844989D01*
X5810152D01*
X5805391Y2842609D01*
X5803010Y2840228D01*
X5800630Y2835468D01*
Y2830707D01*
X5803010Y2825946D01*
X5807771Y2818804D01*
X5831576Y2795000D01*
X5798250D01*
X544178Y2447510D02*
X537513Y2450843D01*
X530848Y2457508D01*
X527515Y2464174D01*
Y2477504D01*
X530848Y2484170D01*
X537513Y2490835D01*
X544178Y2494167D01*
X554176Y2497500D01*
X570839D01*
X580837Y2494167D01*
X587502Y2490835D01*
X594167Y2484170D01*
X597500Y2477504D01*
Y2464174D01*
X594167Y2457508D01*
X587502Y2450843D01*
X580837Y2447510D01*
X540845Y2427848D02*
X537513Y2421183D01*
X527515Y2411185D01*
X597500D01*
X527515Y2356530D02*
X530848Y2366528D01*
X540845Y2373193D01*
X557508Y2376526D01*
X567506D01*
X584170Y2373193D01*
X594167Y2366528D01*
X597500Y2356530D01*
Y2349864D01*
X594167Y2339867D01*
X584170Y2333202D01*
X567506Y2329869D01*
X557508D01*
X540845Y2333202D01*
X530848Y2339867D01*
X527515Y2349864D01*
Y2356530D01*
X540845Y2314205D02*
X537513Y2307540D01*
X527515Y2297542D01*
X597500D01*
X372511Y8643322D02*
X375843Y8649987D01*
X382509Y8656652D01*
X389174Y8659985D01*
X402504D01*
X409170Y8656652D01*
X415835Y8649987D01*
X419167Y8643322D01*
X422500Y8633324D01*
Y8616661D01*
X419167Y8606663D01*
X415835Y8599998D01*
X409170Y8593333D01*
X402504Y8590000D01*
X389174D01*
X382509Y8593333D01*
X375843Y8599998D01*
X372511Y8606663D01*
X352848Y8646655D02*
X346183Y8649987D01*
X336185Y8659985D01*
Y8590000D01*
X281530Y8659985D02*
X291528Y8656652D01*
X298193Y8646655D01*
X301526Y8629992D01*
Y8619994D01*
X298193Y8603331D01*
X291528Y8593333D01*
X281530Y8590000D01*
X274865D01*
X264867Y8593333D01*
X258202Y8603331D01*
X254869Y8619994D01*
Y8629992D01*
X258202Y8646655D01*
X264867Y8656652D01*
X274865Y8659985D01*
X281530D01*
X219210D02*
X229208Y8656652D01*
X235873Y8646655D01*
X239206Y8629992D01*
Y8619994D01*
X235873Y8603331D01*
X229208Y8593333D01*
X219210Y8590000D01*
X212544D01*
X202547Y8593333D01*
X195881Y8603331D01*
X192549Y8619994D01*
Y8629992D01*
X195881Y8646655D01*
X202547Y8656652D01*
X212544Y8659985D01*
X219210D01*
X4542485Y8107500D02*
X4472500D01*
X4542485D02*
Y8137494D01*
X4539152Y8147491D01*
X4535820Y8150824D01*
X4529155Y8154157D01*
X4522490D01*
X4515824Y8150824D01*
X4512492Y8147491D01*
X4509159Y8137494D01*
Y8107500D01*
Y8130828D02*
X4472500Y8154157D01*
X4519157Y8213144D02*
X4509159Y8209812D01*
X4502494Y8203146D01*
X4499161Y8193148D01*
Y8189816D01*
X4502494Y8179818D01*
X4509159Y8173153D01*
X4519157Y8169820D01*
X4522490D01*
X4532487Y8173153D01*
X4539152Y8179818D01*
X4542485Y8189816D01*
Y8193148D01*
X4539152Y8203146D01*
X4532487Y8209812D01*
X4519157Y8213144D01*
X4502494D01*
X4485831Y8209812D01*
X4475833Y8203146D01*
X4472500Y8193148D01*
Y8186483D01*
X4475833Y8176485D01*
X4482498Y8173153D01*
X4525822Y8235473D02*
X4529155D01*
X4535820Y8238805D01*
X4539152Y8242138D01*
X4542485Y8248803D01*
Y8262134D01*
X4539152Y8268799D01*
X4535820Y8272132D01*
X4529155Y8275464D01*
X4522490D01*
X4515824Y8272132D01*
X4505826Y8265467D01*
X4472500Y8232140D01*
Y8278797D01*
X6938935Y6880470D02*
X6940839Y6884278D01*
X6944648Y6888087D01*
X6948457Y6889991D01*
X6956074D01*
X6959882Y6888087D01*
X6963691Y6884278D01*
X6965596Y6880470D01*
X6967500Y6874757D01*
Y6865235D01*
X6965596Y6859522D01*
X6963691Y6855713D01*
X6959882Y6851904D01*
X6956074Y6850000D01*
X6948457D01*
X6944648Y6851904D01*
X6940839Y6855713D01*
X6938935Y6859522D01*
X6901038Y6889991D02*
X6920081Y6850000D01*
X6927699Y6889991D02*
X6901038D01*
X6865427D02*
X6884470Y6850000D01*
X6892088Y6889991D02*
X6865427D01*
X1327485Y8532500D02*
X1257500D01*
X1327485D02*
Y8562494D01*
X1324152Y8572492D01*
X1320820Y8575824D01*
X1314155Y8579157D01*
X1307489D01*
X1300824Y8575824D01*
X1297491Y8572492D01*
X1294159Y8562494D01*
Y8532500D01*
Y8555828D02*
X1257500Y8579157D01*
X1310822Y8598153D02*
X1314155D01*
X1320820Y8601485D01*
X1324152Y8604818D01*
X1327485Y8611483D01*
Y8624814D01*
X1324152Y8631479D01*
X1320820Y8634812D01*
X1314155Y8638144D01*
X1307489D01*
X1300824Y8634812D01*
X1290826Y8628147D01*
X1257500Y8594820D01*
Y8641477D01*
X1314155Y8657140D02*
X1317487Y8663806D01*
X1327485Y8673804D01*
X1257500D01*
X3222500Y2879985D02*
Y2829996D01*
X3219167Y2819998D01*
X3212502Y2813333D01*
X3202504Y2810000D01*
X3195839D01*
X3185841Y2813333D01*
X3179176Y2819998D01*
X3175843Y2829996D01*
Y2879985D01*
X3156514D02*
Y2810000D01*
Y2879985D02*
X3126521D01*
X3116523Y2876652D01*
X3113190Y2873320D01*
X3109857Y2866655D01*
Y2859989D01*
X3113190Y2853324D01*
X3116523Y2849992D01*
X3126521Y2846659D01*
X3156514D02*
X3126521D01*
X3116523Y2843326D01*
X3113190Y2839994D01*
X3109857Y2833328D01*
Y2823330D01*
X3113190Y2816665D01*
X3116523Y2813333D01*
X3126521Y2810000D01*
X3156514D01*
X3054202Y2869987D02*
X3057535Y2876652D01*
X3067533Y2879985D01*
X3074198D01*
X3084196Y2876652D01*
X3090861Y2866655D01*
X3094194Y2849992D01*
Y2833328D01*
X3090861Y2819998D01*
X3084196Y2813333D01*
X3074198Y2810000D01*
X3070866D01*
X3060868Y2813333D01*
X3054202Y2819998D01*
X3050870Y2829996D01*
Y2833328D01*
X3054202Y2843326D01*
X3060868Y2849992D01*
X3070866Y2853324D01*
X3074198D01*
X3084196Y2849992D01*
X3090861Y2843326D01*
X3094194Y2833328D01*
X5647489Y5535000D02*
X5611783D01*
X5604641Y5537381D01*
X5599881Y5542141D01*
X5597500Y5549283D01*
Y5554044D01*
X5599881Y5561185D01*
X5604641Y5565946D01*
X5611783Y5568326D01*
X5647489D01*
Y5582133D02*
X5597500D01*
X5647489D02*
Y5603557D01*
X5645109Y5610698D01*
X5642728Y5613078D01*
X5637968Y5615459D01*
X5633207D01*
X5628446Y5613078D01*
X5626065Y5610698D01*
X5623685Y5603557D01*
Y5582133D02*
Y5603557D01*
X5621304Y5610698D01*
X5618924Y5613078D01*
X5614163Y5615459D01*
X5607022D01*
X5602261Y5613078D01*
X5599881Y5610698D01*
X5597500Y5603557D01*
Y5582133D01*
X5647489Y5655212D02*
Y5631408D01*
X5626065Y5629028D01*
X5628446Y5631408D01*
X5630826Y5638549D01*
Y5645691D01*
X5628446Y5652832D01*
X5623685Y5657593D01*
X5616544Y5659973D01*
X5611783D01*
X5604641Y5657593D01*
X5599881Y5652832D01*
X5597500Y5645691D01*
Y5638549D01*
X5599881Y5631408D01*
X5602261Y5629028D01*
X5607022Y5626647D01*
X5104985Y4305000D02*
X5054996D01*
X5044998Y4308333D01*
X5038333Y4314998D01*
X5035000Y4324996D01*
Y4331661D01*
X5038333Y4341659D01*
X5044998Y4348324D01*
X5054996Y4351657D01*
X5104985D01*
Y4370986D02*
X5035000D01*
X5104985D02*
Y4400980D01*
X5101652Y4410977D01*
X5098320Y4414310D01*
X5091655Y4417643D01*
X5084990D01*
X5078324Y4414310D01*
X5074992Y4410977D01*
X5071659Y4400980D01*
Y4370986D02*
Y4400980D01*
X5068326Y4410977D01*
X5064994Y4414310D01*
X5058328Y4417643D01*
X5048331D01*
X5041665Y4414310D01*
X5038333Y4410977D01*
X5035000Y4400980D01*
Y4370986D01*
X5104985Y4466632D02*
X5058328Y4433306D01*
Y4483296D01*
X5104985Y4466632D02*
X5035000D01*
X5727511Y3198361D02*
X5763217D01*
X5770359Y3195981D01*
X5775120Y3191220D01*
X5777500Y3184079D01*
Y3179318D01*
X5775120Y3172177D01*
X5770359Y3167416D01*
X5763217Y3165035D01*
X5727511D01*
Y3151229D02*
X5777500D01*
X5727511D02*
Y3129805D01*
X5729891Y3122663D01*
X5732272Y3120283D01*
X5737032Y3117903D01*
X5741793D01*
X5746554Y3120283D01*
X5748935Y3122663D01*
X5751315Y3129805D01*
Y3151229D02*
Y3129805D01*
X5753696Y3122663D01*
X5756076Y3120283D01*
X5760837Y3117903D01*
X5767978D01*
X5772739Y3120283D01*
X5775120Y3122663D01*
X5777500Y3129805D01*
Y3151229D01*
X5727511Y3101953D02*
Y3075769D01*
X5746554Y3090051D01*
Y3082910D01*
X5748935Y3078149D01*
X5751315Y3075769D01*
X5758457Y3073388D01*
X5763217D01*
X5770359Y3075769D01*
X5775120Y3080530D01*
X5777500Y3087671D01*
Y3094812D01*
X5775120Y3101953D01*
X5772739Y3104334D01*
X5767978Y3106714D01*
X912500Y2724985D02*
Y2674996D01*
X909167Y2664998D01*
X902502Y2658333D01*
X892504Y2655000D01*
X885839D01*
X875841Y2658333D01*
X869176Y2664998D01*
X865843Y2674996D01*
Y2724985D01*
X846514D02*
Y2655000D01*
Y2724985D02*
X816521D01*
X806523Y2721652D01*
X803190Y2718320D01*
X799857Y2711655D01*
Y2704990D01*
X803190Y2698324D01*
X806523Y2694992D01*
X816521Y2691659D01*
X846514D02*
X816521D01*
X806523Y2688326D01*
X803190Y2684994D01*
X799857Y2678328D01*
Y2668330D01*
X803190Y2661665D01*
X806523Y2658333D01*
X816521Y2655000D01*
X846514D01*
X780861Y2708322D02*
Y2711655D01*
X777529Y2718320D01*
X774196Y2721652D01*
X767531Y2724985D01*
X754200D01*
X747535Y2721652D01*
X744202Y2718320D01*
X740870Y2711655D01*
Y2704990D01*
X744202Y2698324D01*
X750868Y2688326D01*
X784194Y2655000D01*
X737537D01*
X800000Y8869989D02*
Y8834283D01*
X797619Y8827141D01*
X792859Y8822380D01*
X785717Y8820000D01*
X780957D01*
X773815Y8822380D01*
X769054Y8827141D01*
X766674Y8834283D01*
Y8869989D01*
X752867D02*
Y8820000D01*
Y8869989D02*
X731443D01*
X724302Y8867609D01*
X721922Y8865228D01*
X719541Y8860467D01*
Y8855706D01*
X721922Y8850945D01*
X724302Y8848565D01*
X731443Y8846185D01*
X752867D02*
X731443D01*
X724302Y8843804D01*
X721922Y8841424D01*
X719541Y8836663D01*
Y8829522D01*
X721922Y8824761D01*
X724302Y8822380D01*
X731443Y8820000D01*
X752867D01*
X708353Y8860467D02*
X703592Y8862848D01*
X696451Y8869989D01*
Y8820000D01*
X4442500Y2789985D02*
Y2720000D01*
Y2789985D02*
X4412506D01*
X4402508Y2786652D01*
X4399176Y2783320D01*
X4395843Y2776655D01*
Y2769989D01*
X4399176Y2763324D01*
X4402508Y2759991D01*
X4412506Y2756659D01*
X4442500D01*
X4419172D02*
X4395843Y2720000D01*
X4336856Y2766657D02*
X4340188Y2756659D01*
X4346853Y2749993D01*
X4356851Y2746661D01*
X4360184D01*
X4370182Y2749993D01*
X4376847Y2756659D01*
X4380180Y2766657D01*
Y2769989D01*
X4376847Y2779987D01*
X4370182Y2786652D01*
X4360184Y2789985D01*
X4356851D01*
X4346853Y2786652D01*
X4340188Y2779987D01*
X4336856Y2766657D01*
Y2749993D01*
X4340188Y2733330D01*
X4346853Y2723333D01*
X4356851Y2720000D01*
X4363517D01*
X4373514Y2723333D01*
X4376847Y2729998D01*
X4317860Y2776655D02*
X4311194Y2779987D01*
X4301196Y2789985D01*
Y2720000D01*
X4085000Y3122485D02*
Y3052500D01*
Y3122485D02*
X4055006D01*
X4045008Y3119153D01*
X4041676Y3115820D01*
X4038343Y3109155D01*
Y3102490D01*
X4041676Y3095824D01*
X4045008Y3092492D01*
X4055006Y3089159D01*
X4085000D01*
X4061672D02*
X4038343Y3052500D01*
X3979356Y3099157D02*
X3982688Y3089159D01*
X3989353Y3082494D01*
X3999351Y3079161D01*
X4002684D01*
X4012682Y3082494D01*
X4019347Y3089159D01*
X4022680Y3099157D01*
Y3102490D01*
X4019347Y3112487D01*
X4012682Y3119153D01*
X4002684Y3122485D01*
X3999351D01*
X3989353Y3119153D01*
X3982688Y3112487D01*
X3979356Y3099157D01*
Y3082494D01*
X3982688Y3065831D01*
X3989353Y3055833D01*
X3999351Y3052500D01*
X4006017D01*
X4016015Y3055833D01*
X4019347Y3062498D01*
X3940364Y3122485D02*
X3950362Y3119153D01*
X3957027Y3109155D01*
X3960360Y3092492D01*
Y3082494D01*
X3957027Y3065831D01*
X3950362Y3055833D01*
X3940364Y3052500D01*
X3933699D01*
X3923701Y3055833D01*
X3917036Y3065831D01*
X3913703Y3082494D01*
Y3092492D01*
X3917036Y3109155D01*
X3923701Y3119153D01*
X3933699Y3122485D01*
X3940364D01*
X2737485Y7420000D02*
X2667500D01*
X2737485D02*
Y7449993D01*
X2734153Y7459991D01*
X2730820Y7463324D01*
X2724155Y7466657D01*
X2717490D01*
X2710824Y7463324D01*
X2707492Y7459991D01*
X2704159Y7449993D01*
Y7420000D01*
Y7443328D02*
X2667500Y7466657D01*
X2737485Y7498983D02*
X2734153Y7488985D01*
X2727487Y7485653D01*
X2720822D01*
X2714157Y7488985D01*
X2710824Y7495650D01*
X2707492Y7508981D01*
X2704159Y7518979D01*
X2697494Y7525644D01*
X2690829Y7528977D01*
X2680831D01*
X2674165Y7525644D01*
X2670833Y7522312D01*
X2667500Y7512314D01*
Y7498983D01*
X2670833Y7488985D01*
X2674165Y7485653D01*
X2680831Y7482320D01*
X2690829D01*
X2697494Y7485653D01*
X2704159Y7492318D01*
X2707492Y7502316D01*
X2710824Y7515646D01*
X2714157Y7522312D01*
X2720822Y7525644D01*
X2727487D01*
X2734153Y7522312D01*
X2737485Y7512314D01*
Y7498983D01*
X2714157Y7587964D02*
X2704159Y7584632D01*
X2697494Y7577967D01*
X2694161Y7567969D01*
Y7564636D01*
X2697494Y7554638D01*
X2704159Y7547973D01*
X2714157Y7544640D01*
X2717490D01*
X2727487Y7547973D01*
X2734153Y7554638D01*
X2737485Y7564636D01*
Y7567969D01*
X2734153Y7577967D01*
X2727487Y7584632D01*
X2714157Y7587964D01*
X2697494D01*
X2680831Y7584632D01*
X2670833Y7577967D01*
X2667500Y7567969D01*
Y7561303D01*
X2670833Y7551305D01*
X2677498Y7547973D01*
X2739985Y7112500D02*
X2670000D01*
X2739985D02*
Y7142494D01*
X2736652Y7152492D01*
X2733320Y7155824D01*
X2726655Y7159157D01*
X2719989D01*
X2713324Y7155824D01*
X2709992Y7152492D01*
X2706659Y7142494D01*
Y7112500D01*
Y7135829D02*
X2670000Y7159157D01*
X2739985Y7191483D02*
X2736652Y7181486D01*
X2729987Y7178153D01*
X2723322D01*
X2716657Y7181486D01*
X2713324Y7188151D01*
X2709992Y7201481D01*
X2706659Y7211479D01*
X2699994Y7218144D01*
X2693328Y7221477D01*
X2683330D01*
X2676665Y7218144D01*
X2673333Y7214812D01*
X2670000Y7204814D01*
Y7191483D01*
X2673333Y7181486D01*
X2676665Y7178153D01*
X2683330Y7174820D01*
X2693328D01*
X2699994Y7178153D01*
X2706659Y7184818D01*
X2709992Y7194816D01*
X2713324Y7208147D01*
X2716657Y7214812D01*
X2723322Y7218144D01*
X2729987D01*
X2736652Y7214812D01*
X2739985Y7204814D01*
Y7191483D01*
Y7253804D02*
X2736652Y7243806D01*
X2729987Y7240473D01*
X2723322D01*
X2716657Y7243806D01*
X2713324Y7250471D01*
X2709992Y7263802D01*
X2706659Y7273799D01*
X2699994Y7280464D01*
X2693328Y7283797D01*
X2683330D01*
X2676665Y7280464D01*
X2673333Y7277132D01*
X2670000Y7267134D01*
Y7253804D01*
X2673333Y7243806D01*
X2676665Y7240473D01*
X2683330Y7237140D01*
X2693328D01*
X2699994Y7240473D01*
X2706659Y7247138D01*
X2709992Y7257136D01*
X2713324Y7270467D01*
X2716657Y7277132D01*
X2723322Y7280464D01*
X2729987D01*
X2736652Y7277132D01*
X2739985Y7267134D01*
Y7253804D01*
X6527515Y6137500D02*
X6597500D01*
X6527515D02*
Y6107506D01*
X6530847Y6097509D01*
X6534180Y6094176D01*
X6540845Y6090843D01*
X6547510D01*
X6554176Y6094176D01*
X6557508Y6097509D01*
X6560841Y6107506D01*
Y6137500D01*
Y6114172D02*
X6597500Y6090843D01*
X6527515Y6058517D02*
X6530847Y6068515D01*
X6537513Y6071847D01*
X6544178D01*
X6550843Y6068515D01*
X6554176Y6061849D01*
X6557508Y6048519D01*
X6560841Y6038521D01*
X6567506Y6031856D01*
X6574172Y6028523D01*
X6584169D01*
X6590835Y6031856D01*
X6594167Y6035188D01*
X6597500Y6045186D01*
Y6058517D01*
X6594167Y6068515D01*
X6590835Y6071847D01*
X6584169Y6075180D01*
X6574172D01*
X6567506Y6071847D01*
X6560841Y6065182D01*
X6557508Y6055184D01*
X6554176Y6041854D01*
X6550843Y6035188D01*
X6544178Y6031856D01*
X6537513D01*
X6530847Y6035188D01*
X6527515Y6045186D01*
Y6058517D01*
Y5979533D02*
X6574172Y6012860D01*
Y5962870D01*
X6527515Y5979533D02*
X6597500D01*
X4460000Y7004985D02*
Y6935000D01*
Y7004985D02*
X4430006D01*
X4420008Y7001652D01*
X4416676Y6998320D01*
X4413343Y6991655D01*
Y6984990D01*
X4416676Y6978324D01*
X4420008Y6974992D01*
X4430006Y6971659D01*
X4460000D01*
X4436672D02*
X4413343Y6935000D01*
X4381017Y7004985D02*
X4391015Y7001652D01*
X4394347Y6994987D01*
Y6988322D01*
X4391015Y6981657D01*
X4384349Y6978324D01*
X4371019Y6974992D01*
X4361021Y6971659D01*
X4354356Y6964994D01*
X4351023Y6958328D01*
Y6948331D01*
X4354356Y6941665D01*
X4357688Y6938333D01*
X4367686Y6935000D01*
X4381017D01*
X4391015Y6938333D01*
X4394347Y6941665D01*
X4397680Y6948331D01*
Y6958328D01*
X4394347Y6964994D01*
X4387682Y6971659D01*
X4377684Y6974992D01*
X4364353Y6978324D01*
X4357688Y6981657D01*
X4354356Y6988322D01*
Y6994987D01*
X4357688Y7001652D01*
X4367686Y7004985D01*
X4381017D01*
X4332027Y6988322D02*
Y6991655D01*
X4328694Y6998320D01*
X4325362Y7001652D01*
X4318696Y7004985D01*
X4305366D01*
X4298701Y7001652D01*
X4295368Y6998320D01*
X4292036Y6991655D01*
Y6984990D01*
X4295368Y6978324D01*
X4302033Y6968326D01*
X4335360Y6935000D01*
X4288703D01*
X312500Y2357485D02*
Y2287500D01*
Y2357485D02*
X282506D01*
X272508Y2354153D01*
X269176Y2350820D01*
X265843Y2344155D01*
Y2337490D01*
X269176Y2330824D01*
X272508Y2327492D01*
X282506Y2324159D01*
X312500D01*
X289172D02*
X265843Y2287500D01*
X233517Y2357485D02*
X243515Y2354153D01*
X246847Y2347487D01*
Y2340822D01*
X243515Y2334157D01*
X236849Y2330824D01*
X223519Y2327492D01*
X213521Y2324159D01*
X206856Y2317494D01*
X203523Y2310828D01*
Y2300831D01*
X206856Y2294165D01*
X210188Y2290833D01*
X220186Y2287500D01*
X233517D01*
X243515Y2290833D01*
X246847Y2294165D01*
X250180Y2300831D01*
Y2310828D01*
X246847Y2317494D01*
X240182Y2324159D01*
X230184Y2327492D01*
X216854Y2330824D01*
X210188Y2334157D01*
X206856Y2340822D01*
Y2347487D01*
X210188Y2354153D01*
X220186Y2357485D01*
X233517D01*
X187860Y2344155D02*
X181194Y2347487D01*
X171197Y2357485D01*
Y2287500D01*
X984985Y7410000D02*
X915000D01*
X984985D02*
Y7439994D01*
X981652Y7449991D01*
X978320Y7453324D01*
X971655Y7456657D01*
X964989D01*
X958324Y7453324D01*
X954991Y7449991D01*
X951659Y7439994D01*
Y7410000D01*
Y7433328D02*
X915000Y7456657D01*
X984985Y7488983D02*
X981652Y7478985D01*
X974987Y7475653D01*
X968322D01*
X961657Y7478985D01*
X958324Y7485651D01*
X954991Y7498981D01*
X951659Y7508979D01*
X944994Y7515644D01*
X938328Y7518977D01*
X928330D01*
X921665Y7515644D01*
X918333Y7512312D01*
X915000Y7502314D01*
Y7488983D01*
X918333Y7478985D01*
X921665Y7475653D01*
X928330Y7472320D01*
X938328D01*
X944994Y7475653D01*
X951659Y7482318D01*
X954991Y7492316D01*
X958324Y7505646D01*
X961657Y7512312D01*
X968322Y7515644D01*
X974987D01*
X981652Y7512312D01*
X984985Y7502314D01*
Y7488983D01*
Y7554636D02*
X981652Y7544638D01*
X971655Y7537973D01*
X954991Y7534640D01*
X944994D01*
X928330Y7537973D01*
X918333Y7544638D01*
X915000Y7554636D01*
Y7561301D01*
X918333Y7571299D01*
X928330Y7577964D01*
X944994Y7581297D01*
X954991D01*
X971655Y7577964D01*
X981652Y7571299D01*
X984985Y7561301D01*
Y7554636D01*
X6520015Y5792500D02*
X6590000D01*
X6520015D02*
Y5762506D01*
X6523348Y5752508D01*
X6526680Y5749176D01*
X6533345Y5745843D01*
X6540011D01*
X6546676Y5749176D01*
X6550008Y5752508D01*
X6553341Y5762506D01*
Y5792500D01*
Y5769172D02*
X6590000Y5745843D01*
X6520015Y5683523D02*
X6590000Y5716849D01*
X6520015Y5730180D02*
Y5683523D01*
X6543343Y5624536D02*
X6553341Y5627868D01*
X6560006Y5634533D01*
X6563339Y5644531D01*
Y5647864D01*
X6560006Y5657862D01*
X6553341Y5664527D01*
X6543343Y5667860D01*
X6540011D01*
X6530013Y5664527D01*
X6523348Y5657862D01*
X6520015Y5647864D01*
Y5644531D01*
X6523348Y5634533D01*
X6530013Y5627868D01*
X6543343Y5624536D01*
X6560006D01*
X6576670Y5627868D01*
X6586667Y5634533D01*
X6590000Y5644531D01*
Y5651196D01*
X6586667Y5661194D01*
X6580002Y5664527D01*
X4145000Y7077485D02*
Y7007500D01*
Y7077485D02*
X4115007D01*
X4105009Y7074152D01*
X4101676Y7070820D01*
X4098343Y7064155D01*
Y7057490D01*
X4101676Y7050824D01*
X4105009Y7047492D01*
X4115007Y7044159D01*
X4145000D01*
X4121672D02*
X4098343Y7007500D01*
X4036023Y7077485D02*
X4069349Y7007500D01*
X4082680Y7077485D02*
X4036023D01*
X4003697D02*
X4013695Y7074152D01*
X4017027Y7067487D01*
Y7060822D01*
X4013695Y7054157D01*
X4007029Y7050824D01*
X3993699Y7047492D01*
X3983701Y7044159D01*
X3977036Y7037494D01*
X3973703Y7030828D01*
Y7020831D01*
X3977036Y7014165D01*
X3980368Y7010833D01*
X3990366Y7007500D01*
X4003697D01*
X4013695Y7010833D01*
X4017027Y7014165D01*
X4020360Y7020831D01*
Y7030828D01*
X4017027Y7037494D01*
X4010362Y7044159D01*
X4000364Y7047492D01*
X3987033Y7050824D01*
X3980368Y7054157D01*
X3977036Y7060822D01*
Y7067487D01*
X3980368Y7074152D01*
X3990366Y7077485D01*
X4003697D01*
X512500Y3014985D02*
Y2945000D01*
Y3014985D02*
X482507D01*
X472509Y3011652D01*
X469176Y3008320D01*
X465843Y3001655D01*
Y2994989D01*
X469176Y2988324D01*
X472509Y2984991D01*
X482507Y2981659D01*
X512500D01*
X489172D02*
X465843Y2945000D01*
X403523Y3014985D02*
X436850Y2945000D01*
X450180Y3014985D02*
X403523D01*
X341203D02*
X374529Y2945000D01*
X387860Y3014985D02*
X341203D01*
X1027485Y7665000D02*
X957500D01*
X1027485D02*
Y7694993D01*
X1024152Y7704991D01*
X1020820Y7708324D01*
X1014155Y7711657D01*
X1007489D01*
X1000824Y7708324D01*
X997492Y7704991D01*
X994159Y7694993D01*
Y7665000D01*
Y7688328D02*
X957500Y7711657D01*
X1027485Y7773977D02*
X957500Y7740651D01*
X1027485Y7727320D02*
Y7773977D01*
X1017487Y7829632D02*
X1024152Y7826299D01*
X1027485Y7816301D01*
Y7809636D01*
X1024152Y7799638D01*
X1014155Y7792973D01*
X997492Y7789640D01*
X980828D01*
X967498Y7792973D01*
X960833Y7799638D01*
X957500Y7809636D01*
Y7812969D01*
X960833Y7822967D01*
X967498Y7829632D01*
X977496Y7832964D01*
X980828D01*
X990826Y7829632D01*
X997492Y7822967D01*
X1000824Y7812969D01*
Y7809636D01*
X997492Y7799638D01*
X990826Y7792973D01*
X980828Y7789640D01*
X7165015Y6722500D02*
X7235000D01*
X7165015D02*
Y6692506D01*
X7168348Y6682508D01*
X7171680Y6679176D01*
X7178345Y6675843D01*
X7185011D01*
X7191676Y6679176D01*
X7195008Y6682508D01*
X7198341Y6692506D01*
Y6722500D01*
Y6699172D02*
X7235000Y6675843D01*
X7165015Y6613523D02*
X7235000Y6646849D01*
X7165015Y6660180D02*
Y6613523D01*
Y6557868D02*
Y6591194D01*
X7195008Y6594527D01*
X7191676Y6591194D01*
X7188343Y6581196D01*
Y6571198D01*
X7191676Y6561201D01*
X7198341Y6554536D01*
X7208339Y6551203D01*
X7215004D01*
X7225002Y6554536D01*
X7231667Y6561201D01*
X7235000Y6571198D01*
Y6581196D01*
X7231667Y6591194D01*
X7228335Y6594527D01*
X7221670Y6597860D01*
X6910000Y6767491D02*
Y6727500D01*
Y6767491D02*
X6892861D01*
X6887148Y6765587D01*
X6885243Y6763682D01*
X6883339Y6759874D01*
Y6756065D01*
X6885243Y6752256D01*
X6887148Y6750352D01*
X6892861Y6748448D01*
X6910000D01*
X6896669D02*
X6883339Y6727500D01*
X6847728Y6767491D02*
X6866771Y6727500D01*
X6874389Y6767491D02*
X6847728D01*
X6819734D02*
X6838777Y6740830D01*
X6810212D01*
X6819734Y6767491D02*
Y6727500D01*
X6915000Y7739991D02*
Y7700000D01*
Y7739991D02*
X6897861D01*
X6892148Y7738087D01*
X6890243Y7736183D01*
X6888339Y7732374D01*
Y7728565D01*
X6890243Y7724757D01*
X6892148Y7722852D01*
X6897861Y7720948D01*
X6915000D01*
X6901669D02*
X6888339Y7700000D01*
X6852728Y7739991D02*
X6871771Y7700000D01*
X6879389Y7739991D02*
X6852728D01*
X6839969D02*
X6819021D01*
X6830447Y7724757D01*
X6824734D01*
X6820925Y7722852D01*
X6819021Y7720948D01*
X6817116Y7715235D01*
Y7711426D01*
X6819021Y7705713D01*
X6822829Y7701904D01*
X6828542Y7700000D01*
X6834256D01*
X6839969Y7701904D01*
X6841873Y7703809D01*
X6843777Y7707618D01*
X7260000Y7904985D02*
Y7835000D01*
Y7904985D02*
X7230006D01*
X7220008Y7901652D01*
X7216676Y7898320D01*
X7213343Y7891655D01*
Y7884990D01*
X7216676Y7878324D01*
X7220008Y7874992D01*
X7230006Y7871659D01*
X7260000D01*
X7236672D02*
X7213343Y7835000D01*
X7151023Y7904985D02*
X7184349Y7835000D01*
X7197680Y7904985D02*
X7151023D01*
X7132027Y7888322D02*
Y7891655D01*
X7128694Y7898320D01*
X7125362Y7901652D01*
X7118696Y7904985D01*
X7105366D01*
X7098701Y7901652D01*
X7095368Y7898320D01*
X7092036Y7891655D01*
Y7884990D01*
X7095368Y7878324D01*
X7102033Y7868326D01*
X7135360Y7835000D01*
X7088703D01*
X7150015Y6955000D02*
X7220000D01*
X7150015D02*
Y6925006D01*
X7153348Y6915009D01*
X7156680Y6911676D01*
X7163345Y6908343D01*
X7170011D01*
X7176676Y6911676D01*
X7180008Y6915009D01*
X7183341Y6925006D01*
Y6955000D01*
Y6931672D02*
X7220000Y6908343D01*
X7150015Y6846023D02*
X7220000Y6879349D01*
X7150015Y6892680D02*
Y6846023D01*
X7163345Y6830360D02*
X7160013Y6823695D01*
X7150015Y6813697D01*
X7220000D01*
X7197485Y7630000D02*
X7127500D01*
X7197485D02*
Y7659994D01*
X7194152Y7669992D01*
X7190820Y7673324D01*
X7184155Y7676657D01*
X7177490D01*
X7170824Y7673324D01*
X7167492Y7669992D01*
X7164159Y7659994D01*
Y7630000D01*
Y7653328D02*
X7127500Y7676657D01*
X7197485Y7738977D02*
X7127500Y7705651D01*
X7197485Y7692320D02*
Y7738977D01*
Y7774636D02*
X7194152Y7764638D01*
X7184155Y7757973D01*
X7167492Y7754640D01*
X7157494D01*
X7140831Y7757973D01*
X7130833Y7764638D01*
X7127500Y7774636D01*
Y7781301D01*
X7130833Y7791299D01*
X7140831Y7797964D01*
X7157494Y7801297D01*
X7167492D01*
X7184155Y7797964D01*
X7194152Y7791299D01*
X7197485Y7781301D01*
Y7774636D01*
X6222515Y6670000D02*
X6292500D01*
X6222515D02*
Y6640007D01*
X6225848Y6630009D01*
X6229180Y6626676D01*
X6235845Y6623343D01*
X6242511D01*
X6249176Y6626676D01*
X6252508Y6630009D01*
X6255841Y6640007D01*
Y6670000D01*
Y6646672D02*
X6292500Y6623343D01*
X6232513Y6567688D02*
X6225848Y6571021D01*
X6222515Y6581019D01*
Y6587684D01*
X6225848Y6597682D01*
X6235845Y6604347D01*
X6252508Y6607680D01*
X6269172D01*
X6282502Y6604347D01*
X6289167Y6597682D01*
X6292500Y6587684D01*
Y6584352D01*
X6289167Y6574354D01*
X6282502Y6567688D01*
X6272504Y6564356D01*
X6269172D01*
X6259174Y6567688D01*
X6252508Y6574354D01*
X6249176Y6584352D01*
Y6587684D01*
X6252508Y6597682D01*
X6259174Y6604347D01*
X6269172Y6607680D01*
X6245843Y6505702D02*
X6255841Y6509034D01*
X6262506Y6515699D01*
X6265839Y6525697D01*
Y6529030D01*
X6262506Y6539028D01*
X6255841Y6545693D01*
X6245843Y6549026D01*
X6242511D01*
X6232513Y6545693D01*
X6225848Y6539028D01*
X6222515Y6529030D01*
Y6525697D01*
X6225848Y6515699D01*
X6232513Y6509034D01*
X6245843Y6505702D01*
X6262506D01*
X6279170Y6509034D01*
X6289167Y6515699D01*
X6292500Y6525697D01*
Y6532363D01*
X6289167Y6542361D01*
X6282502Y6545693D01*
X6602500Y6752491D02*
Y6712500D01*
Y6752491D02*
X6585361D01*
X6579648Y6750587D01*
X6577743Y6748682D01*
X6575839Y6744874D01*
Y6741065D01*
X6577743Y6737257D01*
X6579648Y6735352D01*
X6585361Y6733448D01*
X6602500D01*
X6589169D02*
X6575839Y6712500D01*
X6544036Y6746778D02*
X6545941Y6750587D01*
X6551654Y6752491D01*
X6555462D01*
X6561176Y6750587D01*
X6564984Y6744874D01*
X6566889Y6735352D01*
Y6725830D01*
X6564984Y6718213D01*
X6561176Y6714404D01*
X6555462Y6712500D01*
X6553558D01*
X6547845Y6714404D01*
X6544036Y6718213D01*
X6542132Y6723926D01*
Y6725830D01*
X6544036Y6731543D01*
X6547845Y6735352D01*
X6553558Y6737257D01*
X6555462D01*
X6561176Y6735352D01*
X6564984Y6731543D01*
X6566889Y6725830D01*
X6523850Y6752491D02*
X6529563Y6750587D01*
X6531468Y6746778D01*
Y6742969D01*
X6529563Y6739161D01*
X6525755Y6737257D01*
X6518137Y6735352D01*
X6512424Y6733448D01*
X6508615Y6729639D01*
X6506711Y6725830D01*
Y6720117D01*
X6508615Y6716309D01*
X6510520Y6714404D01*
X6516233Y6712500D01*
X6523850D01*
X6529563Y6714404D01*
X6531468Y6716309D01*
X6533372Y6720117D01*
Y6725830D01*
X6531468Y6729639D01*
X6527659Y6733448D01*
X6521946Y6735352D01*
X6514329Y6737257D01*
X6510520Y6739161D01*
X6508615Y6742969D01*
Y6746778D01*
X6510520Y6750587D01*
X6516233Y6752491D01*
X6523850D01*
X6592500Y7742489D02*
Y7692500D01*
Y7742489D02*
X6571076D01*
X6563935Y7740109D01*
X6561554Y7737728D01*
X6559174Y7732968D01*
Y7728207D01*
X6561554Y7723446D01*
X6563935Y7721065D01*
X6571076Y7718685D01*
X6592500D01*
X6575837D02*
X6559174Y7692500D01*
X6519420Y7735348D02*
X6521801Y7740109D01*
X6528942Y7742489D01*
X6533703D01*
X6540844Y7740109D01*
X6545605Y7732968D01*
X6547986Y7721065D01*
Y7709163D01*
X6545605Y7699641D01*
X6540844Y7694880D01*
X6533703Y7692500D01*
X6531322D01*
X6524181Y7694880D01*
X6519420Y7699641D01*
X6517040Y7706783D01*
Y7709163D01*
X6519420Y7716304D01*
X6524181Y7721065D01*
X6531322Y7723446D01*
X6533703D01*
X6540844Y7721065D01*
X6545605Y7716304D01*
X6547986Y7709163D01*
X6472764Y7742489D02*
X6496568Y7692500D01*
X6506090Y7742489D02*
X6472764D01*
X6372500Y7877489D02*
Y7827500D01*
Y7877489D02*
X6351076D01*
X6343935Y7875109D01*
X6341554Y7872728D01*
X6339174Y7867968D01*
Y7863207D01*
X6341554Y7858446D01*
X6343935Y7856065D01*
X6351076Y7853685D01*
X6372500D01*
X6355837D02*
X6339174Y7827500D01*
X6299420Y7870348D02*
X6301801Y7875109D01*
X6308942Y7877489D01*
X6313703D01*
X6320845Y7875109D01*
X6325605Y7867968D01*
X6327986Y7856065D01*
Y7844163D01*
X6325605Y7834641D01*
X6320845Y7829880D01*
X6313703Y7827500D01*
X6311323D01*
X6304181Y7829880D01*
X6299420Y7834641D01*
X6297040Y7841783D01*
Y7844163D01*
X6299420Y7851304D01*
X6304181Y7856065D01*
X6311323Y7858446D01*
X6313703D01*
X6320845Y7856065D01*
X6325605Y7851304D01*
X6327986Y7844163D01*
X6257525Y7870348D02*
X6259905Y7875109D01*
X6267047Y7877489D01*
X6271807D01*
X6278949Y7875109D01*
X6283710Y7867968D01*
X6286090Y7856065D01*
Y7844163D01*
X6283710Y7834641D01*
X6278949Y7829880D01*
X6271807Y7827500D01*
X6269427D01*
X6262286Y7829880D01*
X6257525Y7834641D01*
X6255144Y7841783D01*
Y7844163D01*
X6257525Y7851304D01*
X6262286Y7856065D01*
X6269427Y7858446D01*
X6271807D01*
X6278949Y7856065D01*
X6283710Y7851304D01*
X6286090Y7844163D01*
X6217515Y6925000D02*
X6287500D01*
X6217515D02*
Y6895007D01*
X6220848Y6885009D01*
X6224180Y6881676D01*
X6230845Y6878343D01*
X6237511D01*
X6244176Y6881676D01*
X6247508Y6885009D01*
X6250841Y6895007D01*
Y6925000D01*
Y6901672D02*
X6287500Y6878343D01*
X6227513Y6822688D02*
X6220848Y6826021D01*
X6217515Y6836019D01*
Y6842684D01*
X6220848Y6852682D01*
X6230845Y6859347D01*
X6247508Y6862680D01*
X6264172D01*
X6277502Y6859347D01*
X6284167Y6852682D01*
X6287500Y6842684D01*
Y6839352D01*
X6284167Y6829354D01*
X6277502Y6822688D01*
X6267504Y6819356D01*
X6264172D01*
X6254174Y6822688D01*
X6247508Y6829354D01*
X6244176Y6839352D01*
Y6842684D01*
X6247508Y6852682D01*
X6254174Y6859347D01*
X6264172Y6862680D01*
X6217515Y6764034D02*
Y6797361D01*
X6247508Y6800693D01*
X6244176Y6797361D01*
X6240843Y6787363D01*
Y6777365D01*
X6244176Y6767367D01*
X6250841Y6760702D01*
X6260839Y6757369D01*
X6267504D01*
X6277502Y6760702D01*
X6284167Y6767367D01*
X6287500Y6777365D01*
Y6787363D01*
X6284167Y6797361D01*
X6280835Y6800693D01*
X6274170Y6804026D01*
X6307489Y7537500D02*
X6257500D01*
X6307489D02*
Y7558924D01*
X6305109Y7566065D01*
X6302728Y7568446D01*
X6297968Y7570826D01*
X6293207D01*
X6288446Y7568446D01*
X6286065Y7566065D01*
X6283685Y7558924D01*
Y7537500D01*
Y7554163D02*
X6257500Y7570826D01*
X6300348Y7610580D02*
X6305109Y7608199D01*
X6307489Y7601058D01*
Y7596297D01*
X6305109Y7589156D01*
X6297968Y7584395D01*
X6286065Y7582014D01*
X6274163D01*
X6264641Y7584395D01*
X6259881Y7589156D01*
X6257500Y7596297D01*
Y7598677D01*
X6259881Y7605819D01*
X6264641Y7610580D01*
X6271783Y7612960D01*
X6274163D01*
X6281304Y7610580D01*
X6286065Y7605819D01*
X6288446Y7598677D01*
Y7596297D01*
X6286065Y7589156D01*
X6281304Y7584395D01*
X6274163Y7582014D01*
X6307489Y7647714D02*
X6274163Y7623910D01*
Y7659617D01*
X6307489Y7647714D02*
X6257500D01*
X6240015Y4965000D02*
X6310000D01*
X6240015D02*
Y4935006D01*
X6243348Y4925008D01*
X6246680Y4921676D01*
X6253345Y4918343D01*
X6260011D01*
X6266676Y4921676D01*
X6270009Y4925008D01*
X6273341Y4935006D01*
Y4965000D01*
Y4941672D02*
X6310000Y4918343D01*
X6250013Y4862688D02*
X6243348Y4866021D01*
X6240015Y4876019D01*
Y4882684D01*
X6243348Y4892682D01*
X6253345Y4899347D01*
X6270009Y4902680D01*
X6286672D01*
X6300002Y4899347D01*
X6306667Y4892682D01*
X6310000Y4882684D01*
Y4879351D01*
X6306667Y4869353D01*
X6300002Y4862688D01*
X6290004Y4859356D01*
X6286672D01*
X6276674Y4862688D01*
X6270009Y4869353D01*
X6266676Y4879351D01*
Y4882684D01*
X6270009Y4892682D01*
X6276674Y4899347D01*
X6286672Y4902680D01*
X6256678Y4840693D02*
X6253345D01*
X6246680Y4837360D01*
X6243348Y4834028D01*
X6240015Y4827362D01*
Y4814032D01*
X6243348Y4807367D01*
X6246680Y4804034D01*
X6253345Y4800702D01*
X6260011D01*
X6266676Y4804034D01*
X6276674Y4810699D01*
X6310000Y4844026D01*
Y4797369D01*
X1645000Y7337485D02*
Y7267500D01*
Y7337485D02*
X1615006D01*
X1605008Y7334152D01*
X1601676Y7330820D01*
X1598343Y7324155D01*
Y7317490D01*
X1601676Y7310824D01*
X1605008Y7307492D01*
X1615006Y7304159D01*
X1645000D01*
X1621672D02*
X1598343Y7267500D01*
X1542688Y7327487D02*
X1546021Y7334152D01*
X1556019Y7337485D01*
X1562684D01*
X1572682Y7334152D01*
X1579347Y7324155D01*
X1582680Y7307492D01*
Y7290828D01*
X1579347Y7277498D01*
X1572682Y7270833D01*
X1562684Y7267500D01*
X1559351D01*
X1549354Y7270833D01*
X1542688Y7277498D01*
X1539356Y7287496D01*
Y7290828D01*
X1542688Y7300826D01*
X1549354Y7307492D01*
X1559351Y7310824D01*
X1562684D01*
X1572682Y7307492D01*
X1579347Y7300826D01*
X1582680Y7290828D01*
X1524026Y7324155D02*
X1517360Y7327487D01*
X1507362Y7337485D01*
Y7267500D01*
X6877500Y5094985D02*
Y5025000D01*
Y5094985D02*
X6847506D01*
X6837509Y5091653D01*
X6834176Y5088320D01*
X6830843Y5081655D01*
Y5074990D01*
X6834176Y5068324D01*
X6837509Y5064992D01*
X6847506Y5061659D01*
X6877500D01*
X6854172D02*
X6830843Y5025000D01*
X6775188Y5084987D02*
X6778521Y5091653D01*
X6788519Y5094985D01*
X6795184D01*
X6805182Y5091653D01*
X6811847Y5081655D01*
X6815180Y5064992D01*
Y5048328D01*
X6811847Y5034998D01*
X6805182Y5028333D01*
X6795184Y5025000D01*
X6791852D01*
X6781854Y5028333D01*
X6775188Y5034998D01*
X6771856Y5044996D01*
Y5048328D01*
X6775188Y5058326D01*
X6781854Y5064992D01*
X6791852Y5068324D01*
X6795184D01*
X6805182Y5064992D01*
X6811847Y5058326D01*
X6815180Y5048328D01*
X6736530Y5094985D02*
X6746528Y5091653D01*
X6753193Y5081655D01*
X6756526Y5064992D01*
Y5054994D01*
X6753193Y5038331D01*
X6746528Y5028333D01*
X6736530Y5025000D01*
X6729865D01*
X6719867Y5028333D01*
X6713202Y5038331D01*
X6709869Y5054994D01*
Y5064992D01*
X6713202Y5081655D01*
X6719867Y5091653D01*
X6729865Y5094985D01*
X6736530D01*
X6097485Y6560000D02*
X6027500D01*
X6097485D02*
Y6589994D01*
X6094152Y6599992D01*
X6090820Y6603324D01*
X6084155Y6606657D01*
X6077489D01*
X6070824Y6603324D01*
X6067492Y6599992D01*
X6064159Y6589994D01*
Y6560000D01*
Y6583328D02*
X6027500Y6606657D01*
X6097485Y6662312D02*
Y6628985D01*
X6067492Y6625653D01*
X6070824Y6628985D01*
X6074157Y6638983D01*
Y6648981D01*
X6070824Y6658979D01*
X6064159Y6665644D01*
X6054161Y6668977D01*
X6047496D01*
X6037498Y6665644D01*
X6030833Y6658979D01*
X6027500Y6648981D01*
Y6638983D01*
X6030833Y6628985D01*
X6034165Y6625653D01*
X6040830Y6622320D01*
X6074157Y6727964D02*
X6064159Y6724632D01*
X6057494Y6717967D01*
X6054161Y6707969D01*
Y6704636D01*
X6057494Y6694638D01*
X6064159Y6687973D01*
X6074157Y6684640D01*
X6077489D01*
X6087487Y6687973D01*
X6094152Y6694638D01*
X6097485Y6704636D01*
Y6707969D01*
X6094152Y6717967D01*
X6087487Y6724632D01*
X6074157Y6727964D01*
X6057494D01*
X6040830Y6724632D01*
X6030833Y6717967D01*
X6027500Y6707969D01*
Y6701304D01*
X6030833Y6691306D01*
X6037498Y6687973D01*
X5600011Y6797500D02*
X5650000D01*
X5600011D02*
Y6776076D01*
X5602391Y6768935D01*
X5604772Y6766554D01*
X5609532Y6764174D01*
X5614293D01*
X5619054Y6766554D01*
X5621435Y6768935D01*
X5623815Y6776076D01*
Y6797500D01*
Y6780837D02*
X5650000Y6764174D01*
X5600011Y6724420D02*
Y6748225D01*
X5621435Y6750605D01*
X5619054Y6748225D01*
X5616674Y6741084D01*
Y6733942D01*
X5619054Y6726801D01*
X5623815Y6722040D01*
X5630956Y6719660D01*
X5635717D01*
X5642859Y6722040D01*
X5647619Y6726801D01*
X5650000Y6733942D01*
Y6741084D01*
X5647619Y6748225D01*
X5645239Y6750605D01*
X5640478Y6752986D01*
X5600011Y6696569D02*
X5602391Y6703710D01*
X5607152Y6706091D01*
X5611913D01*
X5616674Y6703710D01*
X5619054Y6698950D01*
X5621435Y6689428D01*
X5623815Y6682287D01*
X5628576Y6677526D01*
X5633337Y6675145D01*
X5640478D01*
X5645239Y6677526D01*
X5647619Y6679906D01*
X5650000Y6687048D01*
Y6696569D01*
X5647619Y6703710D01*
X5645239Y6706091D01*
X5640478Y6708471D01*
X5633337D01*
X5628576Y6706091D01*
X5623815Y6701330D01*
X5621435Y6694189D01*
X5619054Y6684667D01*
X5616674Y6679906D01*
X5611913Y6677526D01*
X5607152D01*
X5602391Y6679906D01*
X5600011Y6687048D01*
Y6696569D01*
X5782500Y7722491D02*
Y7682500D01*
Y7722491D02*
X5765361D01*
X5759648Y7720587D01*
X5757743Y7718683D01*
X5755839Y7714874D01*
Y7711065D01*
X5757743Y7707257D01*
X5759648Y7705352D01*
X5765361Y7703448D01*
X5782500D01*
X5769170D02*
X5755839Y7682500D01*
X5724037Y7722491D02*
X5743080D01*
X5744984Y7705352D01*
X5743080Y7707257D01*
X5737367Y7709161D01*
X5731654D01*
X5725941Y7707257D01*
X5722132Y7703448D01*
X5720228Y7697735D01*
Y7693926D01*
X5722132Y7688213D01*
X5725941Y7684404D01*
X5731654Y7682500D01*
X5737367D01*
X5743080Y7684404D01*
X5744984Y7686309D01*
X5746889Y7690117D01*
X5684617Y7722491D02*
X5703660Y7682500D01*
X5711277Y7722491D02*
X5684617D01*
X6059989Y7735000D02*
X6010000D01*
X6059989D02*
Y7756424D01*
X6057609Y7763565D01*
X6055228Y7765946D01*
X6050467Y7768326D01*
X6045706D01*
X6040945Y7765946D01*
X6038565Y7763565D01*
X6036185Y7756424D01*
Y7735000D01*
Y7751663D02*
X6010000Y7768326D01*
X6059989Y7808080D02*
Y7784275D01*
X6038565Y7781895D01*
X6040945Y7784275D01*
X6043326Y7791416D01*
Y7798558D01*
X6040945Y7805699D01*
X6036185Y7810460D01*
X6029043Y7812840D01*
X6024283D01*
X6017141Y7810460D01*
X6012380Y7805699D01*
X6010000Y7798558D01*
Y7791416D01*
X6012380Y7784275D01*
X6014761Y7781895D01*
X6019522Y7779514D01*
X6052848Y7852594D02*
X6057609Y7850213D01*
X6059989Y7843072D01*
Y7838311D01*
X6057609Y7831170D01*
X6050467Y7826409D01*
X6038565Y7824029D01*
X6026663D01*
X6017141Y7826409D01*
X6012380Y7831170D01*
X6010000Y7838311D01*
Y7840692D01*
X6012380Y7847833D01*
X6017141Y7852594D01*
X6024283Y7854974D01*
X6026663D01*
X6033804Y7852594D01*
X6038565Y7847833D01*
X6040945Y7840692D01*
Y7838311D01*
X6038565Y7831170D01*
X6033804Y7826409D01*
X6026663Y7824029D01*
X3642500Y6812491D02*
Y6772500D01*
Y6812491D02*
X3625361D01*
X3619648Y6810587D01*
X3617743Y6808683D01*
X3615839Y6804874D01*
Y6801065D01*
X3617743Y6797257D01*
X3619648Y6795352D01*
X3625361Y6793448D01*
X3642500D01*
X3629170D02*
X3615839Y6772500D01*
X3584037Y6812491D02*
X3603080D01*
X3604984Y6795352D01*
X3603080Y6797257D01*
X3597367Y6799161D01*
X3591654D01*
X3585941Y6797257D01*
X3582132Y6793448D01*
X3580228Y6787735D01*
Y6783926D01*
X3582132Y6778213D01*
X3585941Y6774404D01*
X3591654Y6772500D01*
X3597367D01*
X3603080Y6774404D01*
X3604984Y6776309D01*
X3606889Y6780118D01*
X3548425Y6812491D02*
X3567469D01*
X3569373Y6795352D01*
X3567469Y6797257D01*
X3561756Y6799161D01*
X3556042D01*
X3550329Y6797257D01*
X3546521Y6793448D01*
X3544616Y6787735D01*
Y6783926D01*
X3546521Y6778213D01*
X3550329Y6774404D01*
X3556042Y6772500D01*
X3561756D01*
X3567469Y6774404D01*
X3569373Y6776309D01*
X3571277Y6780118D01*
X6094985Y6792500D02*
X6025000D01*
X6094985D02*
Y6822494D01*
X6091652Y6832492D01*
X6088320Y6835824D01*
X6081655Y6839157D01*
X6074989D01*
X6068324Y6835824D01*
X6064991Y6832492D01*
X6061659Y6822494D01*
Y6792500D01*
Y6815828D02*
X6025000Y6839157D01*
X6094985Y6894812D02*
Y6861485D01*
X6064991Y6858153D01*
X6068324Y6861485D01*
X6071657Y6871483D01*
Y6881481D01*
X6068324Y6891479D01*
X6061659Y6898144D01*
X6051661Y6901477D01*
X6044996D01*
X6034998Y6898144D01*
X6028333Y6891479D01*
X6025000Y6881481D01*
Y6871483D01*
X6028333Y6861485D01*
X6031665Y6858153D01*
X6038330Y6854820D01*
X6094985Y6950467D02*
X6048328Y6917140D01*
Y6967130D01*
X6094985Y6950467D02*
X6025000D01*
X6054989Y7535000D02*
X6005000D01*
X6054989D02*
Y7556424D01*
X6052609Y7563565D01*
X6050228Y7565945D01*
X6045467Y7568326D01*
X6040706D01*
X6035946Y7565945D01*
X6033565Y7563565D01*
X6031185Y7556424D01*
Y7535000D01*
Y7551663D02*
X6005000Y7568326D01*
X6054989Y7608080D02*
Y7584275D01*
X6033565Y7581895D01*
X6035946Y7584275D01*
X6038326Y7591416D01*
Y7598558D01*
X6035946Y7605699D01*
X6031185Y7610460D01*
X6024043Y7612840D01*
X6019283D01*
X6012141Y7610460D01*
X6007380Y7605699D01*
X6005000Y7598558D01*
Y7591416D01*
X6007380Y7584275D01*
X6009761Y7581895D01*
X6014522Y7579514D01*
X6054989Y7628789D02*
Y7654974D01*
X6035946Y7640692D01*
Y7647833D01*
X6033565Y7652594D01*
X6031185Y7654974D01*
X6024043Y7657355D01*
X6019283D01*
X6012141Y7654974D01*
X6007380Y7650213D01*
X6005000Y7643072D01*
Y7635931D01*
X6007380Y7628789D01*
X6009761Y7626409D01*
X6014522Y7624028D01*
X3879985Y6876250D02*
X3810000D01*
X3879985D02*
Y6906244D01*
X3876652Y6916242D01*
X3873320Y6919574D01*
X3866655Y6922907D01*
X3859989D01*
X3853324Y6919574D01*
X3849992Y6916242D01*
X3846659Y6906244D01*
Y6876250D01*
Y6899579D02*
X3810000Y6922907D01*
X3879985Y6978562D02*
Y6945236D01*
X3849992Y6941903D01*
X3853324Y6945236D01*
X3856657Y6955233D01*
Y6965231D01*
X3853324Y6975229D01*
X3846659Y6981894D01*
X3836661Y6985227D01*
X3829996D01*
X3819998Y6981894D01*
X3813333Y6975229D01*
X3810000Y6965231D01*
Y6955233D01*
X3813333Y6945236D01*
X3816665Y6941903D01*
X3823330Y6938570D01*
X3863322Y7004223D02*
X3866655D01*
X3873320Y7007556D01*
X3876652Y7010888D01*
X3879985Y7017554D01*
Y7030884D01*
X3876652Y7037549D01*
X3873320Y7040882D01*
X3866655Y7044215D01*
X3859989D01*
X3853324Y7040882D01*
X3843326Y7034217D01*
X3810000Y7000890D01*
Y7047547D01*
X6542500Y2679985D02*
Y2610000D01*
Y2679985D02*
X6512506D01*
X6502508Y2676653D01*
X6499176Y2673320D01*
X6495843Y2666655D01*
Y2659990D01*
X6499176Y2653324D01*
X6502508Y2649992D01*
X6512506Y2646659D01*
X6542500D01*
X6519172D02*
X6495843Y2610000D01*
X6440188Y2679985D02*
X6473515D01*
X6476847Y2649992D01*
X6473515Y2653324D01*
X6463517Y2656657D01*
X6453519D01*
X6443521Y2653324D01*
X6436856Y2646659D01*
X6433523Y2636661D01*
Y2629996D01*
X6436856Y2619998D01*
X6443521Y2613333D01*
X6453519Y2610000D01*
X6463517D01*
X6473515Y2613333D01*
X6476847Y2616665D01*
X6480180Y2623331D01*
X6417860Y2666655D02*
X6411194Y2669987D01*
X6401196Y2679985D01*
Y2610000D01*
X5147515Y6707500D02*
X5217500D01*
X5147515D02*
Y6677506D01*
X5150848Y6667508D01*
X5154180Y6664176D01*
X5160845Y6660843D01*
X5167511D01*
X5174176Y6664176D01*
X5177509Y6667508D01*
X5180841Y6677506D01*
Y6707500D01*
Y6684172D02*
X5217500Y6660843D01*
X5147515Y6605188D02*
Y6638515D01*
X5177509Y6641847D01*
X5174176Y6638515D01*
X5170843Y6628517D01*
Y6618519D01*
X5174176Y6608521D01*
X5180841Y6601856D01*
X5190839Y6598523D01*
X5197504D01*
X5207502Y6601856D01*
X5214167Y6608521D01*
X5217500Y6618519D01*
Y6628517D01*
X5214167Y6638515D01*
X5210835Y6641847D01*
X5204170Y6645180D01*
X5147515Y6562864D02*
X5150848Y6572862D01*
X5160845Y6579527D01*
X5177509Y6582860D01*
X5187507D01*
X5204170Y6579527D01*
X5214167Y6572862D01*
X5217500Y6562864D01*
Y6556198D01*
X5214167Y6546201D01*
X5204170Y6539536D01*
X5187507Y6536203D01*
X5177509D01*
X5160845Y6539536D01*
X5150848Y6546201D01*
X5147515Y6556198D01*
Y6562864D01*
X5090000Y6822489D02*
Y6772500D01*
Y6822489D02*
X5068576D01*
X5061435Y6820109D01*
X5059054Y6817728D01*
X5056674Y6812968D01*
Y6808207D01*
X5059054Y6803446D01*
X5061435Y6801065D01*
X5068576Y6798685D01*
X5090000D01*
X5073337D02*
X5056674Y6772500D01*
X5021681Y6822489D02*
X5045486Y6789163D01*
X5009779D01*
X5021681Y6822489D02*
Y6772500D01*
X4970026Y6805826D02*
X4972406Y6798685D01*
X4977167Y6793924D01*
X4984308Y6791543D01*
X4986689D01*
X4993830Y6793924D01*
X4998591Y6798685D01*
X5000971Y6805826D01*
Y6808207D01*
X4998591Y6815348D01*
X4993830Y6820109D01*
X4986689Y6822489D01*
X4984308D01*
X4977167Y6820109D01*
X4972406Y6815348D01*
X4970026Y6805826D01*
Y6793924D01*
X4972406Y6782022D01*
X4977167Y6774881D01*
X4984308Y6772500D01*
X4989069D01*
X4996210Y6774881D01*
X4998591Y6779641D01*
X5505000Y7752489D02*
Y7702500D01*
Y7752489D02*
X5483576D01*
X5476435Y7750109D01*
X5474054Y7747728D01*
X5471674Y7742967D01*
Y7738207D01*
X5474054Y7733446D01*
X5476435Y7731065D01*
X5483576Y7728685D01*
X5505000D01*
X5488337D02*
X5471674Y7702500D01*
X5436681Y7752489D02*
X5460486Y7719163D01*
X5424779D01*
X5436681Y7752489D02*
Y7702500D01*
X5404069Y7752489D02*
X5411210Y7750109D01*
X5413591Y7745348D01*
Y7740587D01*
X5411210Y7735826D01*
X5406450Y7733446D01*
X5396928Y7731065D01*
X5389787Y7728685D01*
X5385026Y7723924D01*
X5382645Y7719163D01*
Y7712022D01*
X5385026Y7707261D01*
X5387406Y7704880D01*
X5394548Y7702500D01*
X5404069D01*
X5411210Y7704880D01*
X5413591Y7707261D01*
X5415971Y7712022D01*
Y7719163D01*
X5413591Y7723924D01*
X5408830Y7728685D01*
X5401689Y7731065D01*
X5392167Y7733446D01*
X5387406Y7735826D01*
X5385026Y7740587D01*
Y7745348D01*
X5387406Y7750109D01*
X5394548Y7752489D01*
X5404069D01*
X5087515Y7837500D02*
X5157500D01*
X5087515D02*
Y7807506D01*
X5090848Y7797508D01*
X5094180Y7794176D01*
X5100845Y7790843D01*
X5107510D01*
X5114176Y7794176D01*
X5117508Y7797508D01*
X5120841Y7807506D01*
Y7837500D01*
Y7814172D02*
X5157500Y7790843D01*
X5087515Y7741853D02*
X5134172Y7775180D01*
Y7725190D01*
X5087515Y7741853D02*
X5157500D01*
X5087515Y7666203D02*
X5157500Y7699529D01*
X5087515Y7712860D02*
Y7666203D01*
X6915000Y2997485D02*
Y2927500D01*
Y2997485D02*
X6885006D01*
X6875008Y2994153D01*
X6871676Y2990820D01*
X6868343Y2984155D01*
Y2977490D01*
X6871676Y2970824D01*
X6875008Y2967492D01*
X6885006Y2964159D01*
X6915000D01*
X6891672D02*
X6868343Y2927500D01*
X6819353Y2997485D02*
X6852680Y2950828D01*
X6802690D01*
X6819353Y2997485D02*
Y2927500D01*
X6750368Y2987487D02*
X6753701Y2994153D01*
X6763698Y2997485D01*
X6770364D01*
X6780362Y2994153D01*
X6787027Y2984155D01*
X6790360Y2967492D01*
Y2950828D01*
X6787027Y2937498D01*
X6780362Y2930833D01*
X6770364Y2927500D01*
X6767031D01*
X6757033Y2930833D01*
X6750368Y2937498D01*
X6747036Y2947496D01*
Y2950828D01*
X6750368Y2960826D01*
X6757033Y2967492D01*
X6767031Y2970824D01*
X6770364D01*
X6780362Y2967492D01*
X6787027Y2960826D01*
X6790360Y2950828D01*
X5137515Y6942500D02*
X5207500D01*
X5137515D02*
Y6912506D01*
X5140848Y6902508D01*
X5144180Y6899176D01*
X5150845Y6895843D01*
X5157511D01*
X5164176Y6899176D01*
X5167509Y6902508D01*
X5170841Y6912506D01*
Y6942500D01*
Y6919172D02*
X5207500Y6895843D01*
X5137515Y6846853D02*
X5184172Y6880180D01*
Y6830190D01*
X5137515Y6846853D02*
X5207500D01*
X5137515Y6777868D02*
Y6811194D01*
X5167509Y6814527D01*
X5164176Y6811194D01*
X5160843Y6801196D01*
Y6791199D01*
X5164176Y6781201D01*
X5170841Y6774536D01*
X5180839Y6771203D01*
X5187504D01*
X5197502Y6774536D01*
X5204167Y6781201D01*
X5207500Y6791199D01*
Y6801196D01*
X5204167Y6811194D01*
X5200835Y6814527D01*
X5194170Y6817860D01*
X5297500Y7442485D02*
Y7372500D01*
Y7442485D02*
X5267506D01*
X5257508Y7439153D01*
X5254176Y7435820D01*
X5250843Y7429155D01*
Y7422490D01*
X5254176Y7415824D01*
X5257508Y7412492D01*
X5267506Y7409159D01*
X5297500D01*
X5274172D02*
X5250843Y7372500D01*
X5201853Y7442485D02*
X5235180Y7395828D01*
X5185190D01*
X5201853Y7442485D02*
Y7372500D01*
X5139533Y7442485D02*
X5172860Y7395828D01*
X5122870D01*
X5139533Y7442485D02*
Y7372500D01*
X3287500Y8127485D02*
Y8057500D01*
Y8127485D02*
X3257506D01*
X3247508Y8124152D01*
X3244176Y8120820D01*
X3240843Y8114155D01*
Y8107489D01*
X3244176Y8100824D01*
X3247508Y8097492D01*
X3257506Y8094159D01*
X3287500D01*
X3264172D02*
X3240843Y8057500D01*
X3191853Y8127485D02*
X3225180Y8080828D01*
X3175190D01*
X3191853Y8127485D02*
Y8057500D01*
X3156194Y8127485D02*
X3119536D01*
X3139531Y8100824D01*
X3129533D01*
X3122868Y8097492D01*
X3119536Y8094159D01*
X3116203Y8084161D01*
Y8077496D01*
X3119536Y8067498D01*
X3126201Y8060833D01*
X3136198Y8057500D01*
X3146196D01*
X3156194Y8060833D01*
X3159527Y8064165D01*
X3162860Y8070830D01*
X6174989Y8760000D02*
X6125000D01*
X6174989D02*
Y8781424D01*
X6172609Y8788565D01*
X6170228Y8790946D01*
X6165467Y8793326D01*
X6160707D01*
X6155946Y8790946D01*
X6153565Y8788565D01*
X6151185Y8781424D01*
Y8760000D01*
Y8776663D02*
X6125000Y8793326D01*
X6174989Y8828319D02*
X6141663Y8804514D01*
Y8840221D01*
X6174989Y8828319D02*
X6125000D01*
X6163087Y8851409D02*
X6165467D01*
X6170228Y8853790D01*
X6172609Y8856170D01*
X6174989Y8860931D01*
Y8870452D01*
X6172609Y8875213D01*
X6170228Y8877594D01*
X6165467Y8879974D01*
X6160707D01*
X6155946Y8877594D01*
X6148804Y8872833D01*
X6125000Y8849029D01*
Y8882355D01*
X5932500Y8754991D02*
Y8715000D01*
Y8754991D02*
X5915361D01*
X5909648Y8753087D01*
X5907743Y8751183D01*
X5905839Y8747374D01*
Y8743565D01*
X5907743Y8739757D01*
X5909648Y8737852D01*
X5915361Y8735948D01*
X5932500D01*
X5919170D02*
X5905839Y8715000D01*
X5877845Y8754991D02*
X5896889Y8728331D01*
X5868323D01*
X5877845Y8754991D02*
Y8715000D01*
X5861277Y8747374D02*
X5857469Y8749278D01*
X5851756Y8754991D01*
Y8715000D01*
X4870009Y8642500D02*
X4910000D01*
X4870009D02*
Y8625361D01*
X4871913Y8619648D01*
X4873818Y8617743D01*
X4877626Y8615839D01*
X4881435D01*
X4885243Y8617743D01*
X4887148Y8619648D01*
X4889052Y8625361D01*
Y8642500D01*
Y8629170D02*
X4910000Y8615839D01*
X4870009Y8587845D02*
X4896670Y8606889D01*
Y8578323D01*
X4870009Y8587845D02*
X4910000D01*
X4870009Y8559851D02*
X4871913Y8565565D01*
X4877626Y8569373D01*
X4887148Y8571277D01*
X4892861D01*
X4902383Y8569373D01*
X4908096Y8565565D01*
X4910000Y8559851D01*
Y8556043D01*
X4908096Y8550330D01*
X4902383Y8546521D01*
X4892861Y8544617D01*
X4887148D01*
X4877626Y8546521D01*
X4871913Y8550330D01*
X4870009Y8556043D01*
Y8559851D01*
X4862500Y8929989D02*
Y8880000D01*
Y8929989D02*
X4841076D01*
X4833935Y8927609D01*
X4831554Y8925228D01*
X4829174Y8920468D01*
Y8915707D01*
X4831554Y8910946D01*
X4833935Y8908565D01*
X4841076Y8906185D01*
X4862500D01*
X4845837D02*
X4829174Y8880000D01*
X4813225Y8929989D02*
X4787040D01*
X4801323Y8910946D01*
X4794181D01*
X4789420Y8908565D01*
X4787040Y8906185D01*
X4784660Y8899043D01*
Y8894283D01*
X4787040Y8887141D01*
X4791801Y8882381D01*
X4798942Y8880000D01*
X4806084D01*
X4813225Y8882381D01*
X4815605Y8884761D01*
X4817986Y8889522D01*
X4742526Y8913326D02*
X4744906Y8906185D01*
X4749667Y8901424D01*
X4756808Y8899043D01*
X4759189D01*
X4766330Y8901424D01*
X4771091Y8906185D01*
X4773472Y8913326D01*
Y8915707D01*
X4771091Y8922848D01*
X4766330Y8927609D01*
X4759189Y8929989D01*
X4756808D01*
X4749667Y8927609D01*
X4744906Y8922848D01*
X4742526Y8913326D01*
Y8901424D01*
X4744906Y8889522D01*
X4749667Y8882381D01*
X4756808Y8880000D01*
X4761569D01*
X4768711Y8882381D01*
X4771091Y8887141D01*
X5085000Y8927489D02*
Y8877500D01*
Y8927489D02*
X5063576D01*
X5056435Y8925109D01*
X5054054Y8922728D01*
X5051674Y8917967D01*
Y8913206D01*
X5054054Y8908445D01*
X5056435Y8906065D01*
X5063576Y8903685D01*
X5085000D01*
X5068337D02*
X5051674Y8877500D01*
X5035725Y8927489D02*
X5009540D01*
X5023823Y8908445D01*
X5016681D01*
X5011920Y8906065D01*
X5009540Y8903685D01*
X5007160Y8896543D01*
Y8891783D01*
X5009540Y8884641D01*
X5014301Y8879880D01*
X5021442Y8877500D01*
X5028584D01*
X5035725Y8879880D01*
X5038105Y8882261D01*
X5040486Y8887022D01*
X4962645Y8927489D02*
X4986450Y8877500D01*
X4995971Y8927489D02*
X4962645D01*
X6000000Y8072489D02*
Y8022500D01*
Y8072489D02*
X5978576D01*
X5971435Y8070109D01*
X5969054Y8067728D01*
X5966674Y8062968D01*
Y8058207D01*
X5969054Y8053446D01*
X5971435Y8051065D01*
X5978576Y8048685D01*
X6000000D01*
X5983337D02*
X5966674Y8022500D01*
X5950725Y8072489D02*
X5924540D01*
X5938823Y8053446D01*
X5931681D01*
X5926920Y8051065D01*
X5924540Y8048685D01*
X5922160Y8041543D01*
Y8036783D01*
X5924540Y8029641D01*
X5929301Y8024881D01*
X5936442Y8022500D01*
X5943583D01*
X5950725Y8024881D01*
X5953105Y8027261D01*
X5955486Y8032022D01*
X5882406Y8065348D02*
X5884787Y8070109D01*
X5891928Y8072489D01*
X5896689D01*
X5903830Y8070109D01*
X5908591Y8062968D01*
X5910971Y8051065D01*
Y8039163D01*
X5908591Y8029641D01*
X5903830Y8024881D01*
X5896689Y8022500D01*
X5894308D01*
X5887167Y8024881D01*
X5882406Y8029641D01*
X5880026Y8036783D01*
Y8039163D01*
X5882406Y8046304D01*
X5887167Y8051065D01*
X5894308Y8053446D01*
X5896689D01*
X5903830Y8051065D01*
X5908591Y8046304D01*
X5910971Y8039163D01*
X5897489Y8247500D02*
X5847500D01*
X5897489D02*
Y8268924D01*
X5895109Y8276065D01*
X5892728Y8278445D01*
X5887968Y8280826D01*
X5883207D01*
X5878446Y8278445D01*
X5876065Y8276065D01*
X5873685Y8268924D01*
Y8247500D01*
Y8264163D02*
X5847500Y8280826D01*
X5897489Y8296775D02*
Y8322960D01*
X5878446Y8308677D01*
Y8315819D01*
X5876065Y8320579D01*
X5873685Y8322960D01*
X5866544Y8325340D01*
X5861783D01*
X5854641Y8322960D01*
X5849881Y8318199D01*
X5847500Y8311058D01*
Y8303916D01*
X5849881Y8296775D01*
X5852261Y8294395D01*
X5857022Y8292014D01*
X5897489Y8365094D02*
Y8341289D01*
X5876065Y8338909D01*
X5878446Y8341289D01*
X5880826Y8348431D01*
Y8355572D01*
X5878446Y8362713D01*
X5873685Y8367474D01*
X5866544Y8369854D01*
X5861783D01*
X5854641Y8367474D01*
X5849881Y8362713D01*
X5847500Y8355572D01*
Y8348431D01*
X5849881Y8341289D01*
X5852261Y8338909D01*
X5857022Y8336528D01*
X4865011Y8377500D02*
X4915000D01*
X4865011D02*
Y8356076D01*
X4867391Y8348935D01*
X4869772Y8346554D01*
X4874533Y8344174D01*
X4879294D01*
X4884054Y8346554D01*
X4886435Y8348935D01*
X4888815Y8356076D01*
Y8377500D01*
Y8360837D02*
X4915000Y8344174D01*
X4865011Y8328225D02*
Y8302040D01*
X4884054Y8316322D01*
Y8309181D01*
X4886435Y8304420D01*
X4888815Y8302040D01*
X4895957Y8299660D01*
X4900717D01*
X4907859Y8302040D01*
X4912620Y8306801D01*
X4915000Y8313942D01*
Y8321083D01*
X4912620Y8328225D01*
X4910239Y8330605D01*
X4905478Y8332986D01*
X4865011Y8264667D02*
X4898337Y8288471D01*
Y8252765D01*
X4865011Y8264667D02*
X4915000D01*
X4845000Y8017489D02*
Y7967500D01*
Y8017489D02*
X4823576D01*
X4816435Y8015109D01*
X4814054Y8012728D01*
X4811674Y8007967D01*
Y8003206D01*
X4814054Y7998446D01*
X4816435Y7996065D01*
X4823576Y7993685D01*
X4845000D01*
X4828337D02*
X4811674Y7967500D01*
X4795725Y8017489D02*
X4769540D01*
X4783823Y7998446D01*
X4776681D01*
X4771920Y7996065D01*
X4769540Y7993685D01*
X4767160Y7986543D01*
Y7981783D01*
X4769540Y7974641D01*
X4774301Y7969880D01*
X4781442Y7967500D01*
X4788584D01*
X4795725Y7969880D01*
X4798105Y7972261D01*
X4800486Y7977022D01*
X4751210Y8017489D02*
X4725026D01*
X4739308Y7998446D01*
X4732167D01*
X4727406Y7996065D01*
X4725026Y7993685D01*
X4722645Y7986543D01*
Y7981783D01*
X4725026Y7974641D01*
X4729787Y7969880D01*
X4736928Y7967500D01*
X4744069D01*
X4751210Y7969880D01*
X4753591Y7972261D01*
X4755971Y7977022D01*
X5815000Y8077489D02*
Y8027500D01*
Y8077489D02*
X5793576D01*
X5786435Y8075109D01*
X5784054Y8072728D01*
X5781674Y8067968D01*
Y8063207D01*
X5784054Y8058446D01*
X5786435Y8056065D01*
X5793576Y8053685D01*
X5815000D01*
X5798337D02*
X5781674Y8027500D01*
X5765725Y8077489D02*
X5739540D01*
X5753823Y8058446D01*
X5746681D01*
X5741920Y8056065D01*
X5739540Y8053685D01*
X5737160Y8046543D01*
Y8041783D01*
X5739540Y8034641D01*
X5744301Y8029881D01*
X5751442Y8027500D01*
X5758584D01*
X5765725Y8029881D01*
X5768105Y8032261D01*
X5770486Y8037022D01*
X5723591Y8065587D02*
Y8067968D01*
X5721211Y8072728D01*
X5718830Y8075109D01*
X5714069Y8077489D01*
X5704548D01*
X5699787Y8075109D01*
X5697406Y8072728D01*
X5695026Y8067968D01*
Y8063207D01*
X5697406Y8058446D01*
X5702167Y8051304D01*
X5725972Y8027500D01*
X5692645D01*
X5092500Y8032489D02*
Y7982500D01*
Y8032489D02*
X5071076D01*
X5063935Y8030109D01*
X5061555Y8027728D01*
X5059174Y8022967D01*
Y8018206D01*
X5061555Y8013445D01*
X5063935Y8011065D01*
X5071076Y8008685D01*
X5092500D01*
X5075837D02*
X5059174Y7982500D01*
X5043225Y8032489D02*
X5017040D01*
X5031323Y8013445D01*
X5024181D01*
X5019420Y8011065D01*
X5017040Y8008685D01*
X5014660Y8001543D01*
Y7996783D01*
X5017040Y7989641D01*
X5021801Y7984880D01*
X5028942Y7982500D01*
X5036084D01*
X5043225Y7984880D01*
X5045605Y7987261D01*
X5047986Y7992022D01*
X5003472Y8022967D02*
X4998711Y8025348D01*
X4991569Y8032489D01*
Y7982500D01*
X2702515Y3532500D02*
X2772500D01*
X2702515D02*
Y3502506D01*
X2705848Y3492508D01*
X2709180Y3489176D01*
X2715845Y3485843D01*
X2722510D01*
X2729176Y3489176D01*
X2732508Y3492508D01*
X2735841Y3502506D01*
Y3532500D01*
Y3509172D02*
X2772500Y3485843D01*
X2702515Y3463515D02*
Y3426856D01*
X2729176Y3446851D01*
Y3436853D01*
X2732508Y3430188D01*
X2735841Y3426856D01*
X2745839Y3423523D01*
X2752504D01*
X2762502Y3426856D01*
X2769167Y3433521D01*
X2772500Y3443519D01*
Y3453517D01*
X2769167Y3463515D01*
X2765835Y3466847D01*
X2759169Y3470180D01*
X2702515Y3387864D02*
X2705848Y3397862D01*
X2715845Y3404527D01*
X2732508Y3407860D01*
X2742506D01*
X2759169Y3404527D01*
X2769167Y3397862D01*
X2772500Y3387864D01*
Y3381198D01*
X2769167Y3371201D01*
X2759169Y3364536D01*
X2742506Y3361203D01*
X2732508D01*
X2715845Y3364536D01*
X2705848Y3371201D01*
X2702515Y3381198D01*
Y3387864D01*
X4285000Y4222485D02*
Y4152500D01*
Y4222485D02*
X4255006D01*
X4245009Y4219152D01*
X4241676Y4215820D01*
X4238343Y4209155D01*
Y4202489D01*
X4241676Y4195824D01*
X4245009Y4192491D01*
X4255006Y4189159D01*
X4285000D01*
X4261672D02*
X4238343Y4152500D01*
X4219347Y4205822D02*
Y4209155D01*
X4216015Y4215820D01*
X4212682Y4219152D01*
X4206017Y4222485D01*
X4192686D01*
X4186021Y4219152D01*
X4182688Y4215820D01*
X4179356Y4209155D01*
Y4202489D01*
X4182688Y4195824D01*
X4189354Y4185826D01*
X4222680Y4152500D01*
X4176023D01*
X4117036Y4199157D02*
X4120368Y4189159D01*
X4127033Y4182494D01*
X4137031Y4179161D01*
X4140364D01*
X4150362Y4182494D01*
X4157027Y4189159D01*
X4160360Y4199157D01*
Y4202489D01*
X4157027Y4212487D01*
X4150362Y4219152D01*
X4140364Y4222485D01*
X4137031D01*
X4127033Y4219152D01*
X4120368Y4212487D01*
X4117036Y4199157D01*
Y4182494D01*
X4120368Y4165830D01*
X4127033Y4155833D01*
X4137031Y4152500D01*
X4143697D01*
X4153695Y4155833D01*
X4157027Y4162498D01*
X4422500Y4802485D02*
Y4732500D01*
Y4802485D02*
X4392506D01*
X4382508Y4799152D01*
X4379176Y4795820D01*
X4375843Y4789155D01*
Y4782490D01*
X4379176Y4775824D01*
X4382508Y4772492D01*
X4392506Y4769159D01*
X4422500D01*
X4399172D02*
X4375843Y4732500D01*
X4356847Y4785822D02*
Y4789155D01*
X4353515Y4795820D01*
X4350182Y4799152D01*
X4343517Y4802485D01*
X4330186D01*
X4323521Y4799152D01*
X4320188Y4795820D01*
X4316856Y4789155D01*
Y4782490D01*
X4320188Y4775824D01*
X4326853Y4765826D01*
X4360180Y4732500D01*
X4313523D01*
X4281196Y4802485D02*
X4291194Y4799152D01*
X4294527Y4792487D01*
Y4785822D01*
X4291194Y4779157D01*
X4284529Y4775824D01*
X4271198Y4772492D01*
X4261201Y4769159D01*
X4254536Y4762494D01*
X4251203Y4755828D01*
Y4745830D01*
X4254536Y4739165D01*
X4257868Y4735833D01*
X4267866Y4732500D01*
X4281196D01*
X4291194Y4735833D01*
X4294527Y4739165D01*
X4297860Y4745830D01*
Y4755828D01*
X4294527Y4762494D01*
X4287862Y4769159D01*
X4277864Y4772492D01*
X4264533Y4775824D01*
X4257868Y4779157D01*
X4254536Y4785822D01*
Y4792487D01*
X4257868Y4799152D01*
X4267866Y4802485D01*
X4281196D01*
X3625000Y3699985D02*
Y3630000D01*
Y3699985D02*
X3595007D01*
X3585009Y3696652D01*
X3581676Y3693320D01*
X3578343Y3686655D01*
Y3679990D01*
X3581676Y3673324D01*
X3585009Y3669992D01*
X3595007Y3666659D01*
X3625000D01*
X3601672D02*
X3578343Y3630000D01*
X3559347Y3683322D02*
Y3686655D01*
X3556015Y3693320D01*
X3552682Y3696652D01*
X3546017Y3699985D01*
X3532686D01*
X3526021Y3696652D01*
X3522688Y3693320D01*
X3519356Y3686655D01*
Y3679990D01*
X3522688Y3673324D01*
X3529354Y3663326D01*
X3562680Y3630000D01*
X3516023D01*
X3453703Y3699985D02*
X3487029Y3630000D01*
X3500360Y3699985D02*
X3453703D01*
X567500Y3347485D02*
Y3277500D01*
Y3347485D02*
X537506D01*
X527508Y3344152D01*
X524176Y3340820D01*
X520843Y3334155D01*
Y3327489D01*
X524176Y3320824D01*
X527508Y3317491D01*
X537506Y3314159D01*
X567500D01*
X544172D02*
X520843Y3277500D01*
X501847Y3330822D02*
Y3334155D01*
X498515Y3340820D01*
X495182Y3344152D01*
X488517Y3347485D01*
X475186D01*
X468521Y3344152D01*
X465188Y3340820D01*
X461856Y3334155D01*
Y3327489D01*
X465188Y3320824D01*
X471854Y3310826D01*
X505180Y3277500D01*
X458523D01*
X402868Y3337487D02*
X406201Y3344152D01*
X416199Y3347485D01*
X422864D01*
X432862Y3344152D01*
X439527Y3334155D01*
X442860Y3317491D01*
Y3300828D01*
X439527Y3287498D01*
X432862Y3280833D01*
X422864Y3277500D01*
X419531D01*
X409533Y3280833D01*
X402868Y3287498D01*
X399536Y3297496D01*
Y3300828D01*
X402868Y3310826D01*
X409533Y3317491D01*
X419531Y3320824D01*
X422864D01*
X432862Y3317491D01*
X439527Y3310826D01*
X442860Y3300828D01*
X1240000Y3714985D02*
Y3645000D01*
Y3714985D02*
X1210006D01*
X1200009Y3711652D01*
X1196676Y3708320D01*
X1193343Y3701655D01*
Y3694990D01*
X1196676Y3688324D01*
X1200009Y3684992D01*
X1210006Y3681659D01*
X1240000D01*
X1216672D02*
X1193343Y3645000D01*
X1174347Y3698322D02*
Y3701655D01*
X1171015Y3708320D01*
X1167682Y3711652D01*
X1161017Y3714985D01*
X1147686D01*
X1141021Y3711652D01*
X1137688Y3708320D01*
X1134356Y3701655D01*
Y3694990D01*
X1137688Y3688324D01*
X1144354Y3678326D01*
X1177680Y3645000D01*
X1131023D01*
X1075368Y3714985D02*
X1108695D01*
X1112027Y3684992D01*
X1108695Y3688324D01*
X1098697Y3691657D01*
X1088699D01*
X1078701Y3688324D01*
X1072036Y3681659D01*
X1068703Y3671661D01*
Y3664996D01*
X1072036Y3654998D01*
X1078701Y3648333D01*
X1088699Y3645000D01*
X1098697D01*
X1108695Y3648333D01*
X1112027Y3651665D01*
X1115360Y3658331D01*
X5237500Y3187489D02*
Y3137500D01*
Y3187489D02*
X5216076D01*
X5208935Y3185109D01*
X5206554Y3182728D01*
X5204174Y3177967D01*
Y3173207D01*
X5206554Y3168446D01*
X5208935Y3166065D01*
X5216076Y3163685D01*
X5237500D01*
X5220837D02*
X5204174Y3137500D01*
X5190605Y3175587D02*
Y3177967D01*
X5188225Y3182728D01*
X5185845Y3185109D01*
X5181084Y3187489D01*
X5171562D01*
X5166801Y3185109D01*
X5164420Y3182728D01*
X5162040Y3177967D01*
Y3173207D01*
X5164420Y3168446D01*
X5169181Y3161304D01*
X5192986Y3137500D01*
X5159660D01*
X5124667Y3187489D02*
X5148472Y3154163D01*
X5112765D01*
X5124667Y3187489D02*
Y3137500D01*
X5307500Y3787485D02*
Y3717500D01*
Y3787485D02*
X5277506D01*
X5267508Y3784152D01*
X5264176Y3780820D01*
X5260843Y3774155D01*
Y3767490D01*
X5264176Y3760824D01*
X5267508Y3757492D01*
X5277506Y3754159D01*
X5307500D01*
X5284172D02*
X5260843Y3717500D01*
X5241847Y3770822D02*
Y3774155D01*
X5238515Y3780820D01*
X5235182Y3784152D01*
X5228517Y3787485D01*
X5215186D01*
X5208521Y3784152D01*
X5205188Y3780820D01*
X5201856Y3774155D01*
Y3767490D01*
X5205188Y3760824D01*
X5211853Y3750826D01*
X5245180Y3717500D01*
X5198523D01*
X5176194Y3787485D02*
X5139536D01*
X5159531Y3760824D01*
X5149533D01*
X5142868Y3757492D01*
X5139536Y3754159D01*
X5136203Y3744161D01*
Y3737496D01*
X5139536Y3727498D01*
X5146201Y3720833D01*
X5156198Y3717500D01*
X5166196D01*
X5176194Y3720833D01*
X5179527Y3724165D01*
X5182860Y3730830D01*
X4937500Y5057489D02*
Y5007500D01*
Y5057489D02*
X4916076D01*
X4908935Y5055109D01*
X4906554Y5052728D01*
X4904174Y5047968D01*
Y5043207D01*
X4906554Y5038446D01*
X4908935Y5036065D01*
X4916076Y5033685D01*
X4937500D01*
X4920837D02*
X4904174Y5007500D01*
X4890605Y5045587D02*
Y5047968D01*
X4888225Y5052728D01*
X4885844Y5055109D01*
X4881083Y5057489D01*
X4871562D01*
X4866801Y5055109D01*
X4864420Y5052728D01*
X4862040Y5047968D01*
Y5043207D01*
X4864420Y5038446D01*
X4869181Y5031304D01*
X4892986Y5007500D01*
X4859660D01*
X4846091Y5045587D02*
Y5047968D01*
X4843710Y5052728D01*
X4841330Y5055109D01*
X4836569Y5057489D01*
X4827047D01*
X4822287Y5055109D01*
X4819906Y5052728D01*
X4817526Y5047968D01*
Y5043207D01*
X4819906Y5038446D01*
X4824667Y5031304D01*
X4848471Y5007500D01*
X4815145D01*
X4877489Y5672500D02*
X4827500D01*
X4877489D02*
Y5693924D01*
X4875109Y5701065D01*
X4872728Y5703446D01*
X4867968Y5705826D01*
X4863207D01*
X4858446Y5703446D01*
X4856065Y5701065D01*
X4853685Y5693924D01*
Y5672500D01*
Y5689163D02*
X4827500Y5705826D01*
X4865587Y5719395D02*
X4867968D01*
X4872728Y5721775D01*
X4875109Y5724155D01*
X4877489Y5728916D01*
Y5738438D01*
X4875109Y5743199D01*
X4872728Y5745580D01*
X4867968Y5747960D01*
X4863207D01*
X4858446Y5745580D01*
X4851304Y5740819D01*
X4827500Y5717014D01*
Y5750340D01*
X4877489Y5775811D02*
X4875109Y5768670D01*
X4867968Y5763909D01*
X4856065Y5761528D01*
X4848924D01*
X4837022Y5763909D01*
X4829881Y5768670D01*
X4827500Y5775811D01*
Y5780572D01*
X4829881Y5787713D01*
X4837022Y5792474D01*
X4848924Y5794855D01*
X4856065D01*
X4867968Y5792474D01*
X4875109Y5787713D01*
X4877489Y5780572D01*
Y5775811D01*
X1327485Y7975000D02*
X1257500D01*
X1327485D02*
Y8004994D01*
X1324152Y8014992D01*
X1320820Y8018324D01*
X1314155Y8021657D01*
X1307489D01*
X1300824Y8018324D01*
X1297491Y8014992D01*
X1294159Y8004994D01*
Y7975000D01*
Y7998328D02*
X1257500Y8021657D01*
X1314155Y8037320D02*
X1317487Y8043985D01*
X1327485Y8053983D01*
X1257500D01*
X1304157Y8131967D02*
X1294159Y8128634D01*
X1287493Y8121969D01*
X1284161Y8111971D01*
Y8108638D01*
X1287493Y8098641D01*
X1294159Y8091975D01*
X1304157Y8088643D01*
X1307489D01*
X1317487Y8091975D01*
X1324152Y8098641D01*
X1327485Y8108638D01*
Y8111971D01*
X1324152Y8121969D01*
X1317487Y8128634D01*
X1304157Y8131967D01*
X1287493D01*
X1270830Y8128634D01*
X1260833Y8121969D01*
X1257500Y8111971D01*
Y8105306D01*
X1260833Y8095308D01*
X1267498Y8091975D01*
X2912500Y2827485D02*
Y2757500D01*
Y2827485D02*
X2882506D01*
X2872508Y2824152D01*
X2869176Y2820820D01*
X2865843Y2814155D01*
Y2807489D01*
X2869176Y2800824D01*
X2872508Y2797491D01*
X2882506Y2794159D01*
X2912500D01*
X2889172D02*
X2865843Y2757500D01*
X2850180Y2814155D02*
X2843515Y2817487D01*
X2833517Y2827485D01*
Y2757500D01*
X2782194Y2827485D02*
X2792192Y2824152D01*
X2795525Y2817487D01*
Y2810822D01*
X2792192Y2804157D01*
X2785527Y2800824D01*
X2772196Y2797491D01*
X2762198Y2794159D01*
X2755533Y2787494D01*
X2752200Y2780828D01*
Y2770830D01*
X2755533Y2764165D01*
X2758866Y2760833D01*
X2768864Y2757500D01*
X2782194D01*
X2792192Y2760833D01*
X2795525Y2764165D01*
X2798857Y2770830D01*
Y2780828D01*
X2795525Y2787494D01*
X2788859Y2794159D01*
X2778862Y2797491D01*
X2765531Y2800824D01*
X2758866Y2804157D01*
X2755533Y2810822D01*
Y2817487D01*
X2758866Y2824152D01*
X2768864Y2827485D01*
X2782194D01*
X5879985Y5190000D02*
X5810000D01*
X5879985D02*
Y5219994D01*
X5876652Y5229992D01*
X5873320Y5233324D01*
X5866655Y5236657D01*
X5859990D01*
X5853324Y5233324D01*
X5849992Y5229992D01*
X5846659Y5219994D01*
Y5190000D01*
Y5213328D02*
X5810000Y5236657D01*
X5866655Y5252320D02*
X5869987Y5258985D01*
X5879985Y5268983D01*
X5810000D01*
X5879985Y5350299D02*
X5810000Y5316973D01*
X5879985Y5303643D02*
Y5350299D01*
X5884985Y5565000D02*
X5815000D01*
X5884985D02*
Y5594994D01*
X5881652Y5604992D01*
X5878320Y5608324D01*
X5871655Y5611657D01*
X5864990D01*
X5858324Y5608324D01*
X5854992Y5604992D01*
X5851659Y5594994D01*
Y5565000D01*
Y5588328D02*
X5815000Y5611657D01*
X5871655Y5627320D02*
X5874987Y5633985D01*
X5884985Y5643983D01*
X5815000D01*
X5884985Y5718634D02*
Y5685308D01*
X5854992Y5681975D01*
X5858324Y5685308D01*
X5861657Y5695306D01*
Y5705304D01*
X5858324Y5715301D01*
X5851659Y5721967D01*
X5841661Y5725299D01*
X5834996D01*
X5824998Y5721967D01*
X5818333Y5715301D01*
X5815000Y5705304D01*
Y5695306D01*
X5818333Y5685308D01*
X5821665Y5681975D01*
X5828330Y5678643D01*
X5139985Y4012500D02*
X5070000D01*
X5139985D02*
Y4042494D01*
X5136652Y4052492D01*
X5133320Y4055824D01*
X5126655Y4059157D01*
X5119990D01*
X5113324Y4055824D01*
X5109992Y4052492D01*
X5106659Y4042494D01*
Y4012500D01*
Y4035828D02*
X5070000Y4059157D01*
X5126655Y4074820D02*
X5129987Y4081485D01*
X5139985Y4091483D01*
X5070000D01*
X5139985Y4159469D02*
X5093328Y4126143D01*
Y4176132D01*
X5139985Y4159469D02*
X5070000D01*
X6242485Y3072500D02*
X6172500D01*
X6242485D02*
Y3102494D01*
X6239152Y3112492D01*
X6235820Y3115824D01*
X6229155Y3119157D01*
X6222489D01*
X6215824Y3115824D01*
X6212492Y3112492D01*
X6209159Y3102494D01*
Y3072500D01*
Y3095828D02*
X6172500Y3119157D01*
X6229155Y3134820D02*
X6232487Y3141485D01*
X6242485Y3151483D01*
X6172500D01*
X6242485Y3192808D02*
Y3229467D01*
X6215824Y3209471D01*
Y3219469D01*
X6212492Y3226134D01*
X6209159Y3229467D01*
X6199161Y3232799D01*
X6192496D01*
X6182498Y3229467D01*
X6175833Y3222802D01*
X6172500Y3212804D01*
Y3202806D01*
X6175833Y3192808D01*
X6179165Y3189475D01*
X6185830Y3186143D01*
X5174985Y4615000D02*
X5105000D01*
X5174985D02*
Y4644994D01*
X5171652Y4654991D01*
X5168320Y4658324D01*
X5161655Y4661657D01*
X5154989D01*
X5148324Y4658324D01*
X5144991Y4654991D01*
X5141659Y4644994D01*
Y4615000D01*
Y4638328D02*
X5105000Y4661657D01*
X5161655Y4677320D02*
X5164987Y4683985D01*
X5174985Y4693983D01*
X5105000D01*
X5158322Y4731975D02*
X5161655D01*
X5168320Y4735308D01*
X5171652Y4738641D01*
X5174985Y4745306D01*
Y4758636D01*
X5171652Y4765301D01*
X5168320Y4768634D01*
X5161655Y4771967D01*
X5154989D01*
X5148324Y4768634D01*
X5138326Y4761969D01*
X5105000Y4728643D01*
Y4775299D01*
X6252485Y3422500D02*
X6182500D01*
X6252485D02*
Y3452493D01*
X6249152Y3462491D01*
X6245820Y3465824D01*
X6239155Y3469157D01*
X6232489D01*
X6225824Y3465824D01*
X6222491Y3462491D01*
X6219159Y3452493D01*
Y3422500D01*
Y3445828D02*
X6182500Y3469157D01*
X6239155Y3484820D02*
X6242487Y3491485D01*
X6252485Y3501483D01*
X6182500D01*
X6239155Y3536143D02*
X6242487Y3542808D01*
X6252485Y3552806D01*
X6182500D01*
X1370000Y3272485D02*
Y3202500D01*
Y3272485D02*
X1340006D01*
X1330009Y3269152D01*
X1326676Y3265820D01*
X1323343Y3259155D01*
Y3252490D01*
X1326676Y3245824D01*
X1330009Y3242492D01*
X1340006Y3239159D01*
X1370000D01*
X1346672D02*
X1323343Y3202500D01*
X1307680Y3259155D02*
X1301015Y3262487D01*
X1291017Y3272485D01*
Y3202500D01*
X1236362Y3272485D02*
X1246359Y3269152D01*
X1253025Y3259155D01*
X1256357Y3242492D01*
Y3232494D01*
X1253025Y3215830D01*
X1246359Y3205833D01*
X1236362Y3202500D01*
X1229696D01*
X1219699Y3205833D01*
X1213033Y3215830D01*
X1209701Y3232494D01*
Y3242492D01*
X1213033Y3259155D01*
X1219699Y3269152D01*
X1229696Y3272485D01*
X1236362D01*
X1152500D02*
Y3202500D01*
Y3272485D02*
X1122507D01*
X1112509Y3269152D01*
X1109176Y3265820D01*
X1105843Y3259155D01*
Y3252490D01*
X1109176Y3245824D01*
X1112509Y3242492D01*
X1122507Y3239159D01*
X1152500D01*
X1129172D02*
X1105843Y3202500D01*
X1046856Y3249157D02*
X1050188Y3239159D01*
X1056854Y3232494D01*
X1066852Y3229161D01*
X1070184D01*
X1080182Y3232494D01*
X1086847Y3239159D01*
X1090180Y3249157D01*
Y3252490D01*
X1086847Y3262487D01*
X1080182Y3269152D01*
X1070184Y3272485D01*
X1066852D01*
X1056854Y3269152D01*
X1050188Y3262487D01*
X1046856Y3249157D01*
Y3232494D01*
X1050188Y3215830D01*
X1056854Y3205833D01*
X1066852Y3202500D01*
X1073517D01*
X1083515Y3205833D01*
X1086847Y3212498D01*
X855000Y8672491D02*
Y8632500D01*
Y8672491D02*
X837861D01*
X832148Y8670587D01*
X830243Y8668682D01*
X828339Y8664874D01*
Y8661065D01*
X830243Y8657256D01*
X832148Y8655352D01*
X837861Y8653448D01*
X855000D01*
X841670D02*
X828339Y8632500D01*
X809867Y8672491D02*
X815580Y8670587D01*
X817485Y8666778D01*
Y8662969D01*
X815580Y8659161D01*
X811771Y8657256D01*
X804154Y8655352D01*
X798441Y8653448D01*
X794632Y8649639D01*
X792728Y8645830D01*
Y8640117D01*
X794632Y8636309D01*
X796537Y8634404D01*
X802250Y8632500D01*
X809867D01*
X815580Y8634404D01*
X817485Y8636309D01*
X819389Y8640117D01*
Y8645830D01*
X817485Y8649639D01*
X813676Y8653448D01*
X807963Y8655352D01*
X800345Y8657256D01*
X796537Y8659161D01*
X794632Y8662969D01*
Y8666778D01*
X796537Y8670587D01*
X802250Y8672491D01*
X809867D01*
X1129985Y8897500D02*
X1060000D01*
X1129985D02*
Y8927494D01*
X1126652Y8937492D01*
X1123320Y8940824D01*
X1116655Y8944157D01*
X1109989D01*
X1103324Y8940824D01*
X1099991Y8937492D01*
X1096659Y8927494D01*
Y8897500D01*
Y8920828D02*
X1060000Y8944157D01*
X1129985Y9006477D02*
X1060000Y8973151D01*
X1129985Y8959820D02*
Y9006477D01*
X3322485Y2370000D02*
X3252500D01*
X3322485D02*
Y2399994D01*
X3319152Y2409992D01*
X3315820Y2413324D01*
X3309155Y2416657D01*
X3302489D01*
X3295824Y2413324D01*
X3292492Y2409992D01*
X3289159Y2399994D01*
Y2370000D01*
Y2393328D02*
X3252500Y2416657D01*
X3312487Y2472312D02*
X3319152Y2468979D01*
X3322485Y2458981D01*
Y2452316D01*
X3319152Y2442318D01*
X3309155Y2435653D01*
X3292492Y2432320D01*
X3275828D01*
X3262498Y2435653D01*
X3255833Y2442318D01*
X3252500Y2452316D01*
Y2455649D01*
X3255833Y2465647D01*
X3262498Y2472312D01*
X3272496Y2475644D01*
X3275828D01*
X3285826Y2472312D01*
X3292492Y2465647D01*
X3295824Y2455649D01*
Y2452316D01*
X3292492Y2442318D01*
X3285826Y2435653D01*
X3275828Y2432320D01*
X3367485Y2575000D02*
X3297500D01*
X3367485D02*
Y2604994D01*
X3364152Y2614991D01*
X3360820Y2618324D01*
X3354155Y2621657D01*
X3347489D01*
X3340824Y2618324D01*
X3337491Y2614991D01*
X3334159Y2604994D01*
Y2575000D01*
Y2598328D02*
X3297500Y2621657D01*
X3367485Y2677312D02*
Y2643985D01*
X3337491Y2640653D01*
X3340824Y2643985D01*
X3344157Y2653983D01*
Y2663981D01*
X3340824Y2673979D01*
X3334159Y2680644D01*
X3324161Y2683977D01*
X3317496D01*
X3307498Y2680644D01*
X3300833Y2673979D01*
X3297500Y2663981D01*
Y2653983D01*
X3300833Y2643985D01*
X3304165Y2640653D01*
X3310830Y2637320D01*
X1030000Y2702491D02*
Y2662500D01*
Y2702491D02*
X1012861D01*
X1007148Y2700587D01*
X1005243Y2698682D01*
X1003339Y2694874D01*
Y2691065D01*
X1005243Y2687256D01*
X1007148Y2685352D01*
X1012861Y2683448D01*
X1030000D01*
X1016670D02*
X1003339Y2662500D01*
X975345Y2702491D02*
X994389Y2675830D01*
X965823D01*
X975345Y2702491D02*
Y2662500D01*
X1447485Y2332500D02*
X1377500D01*
X1447485D02*
Y2362494D01*
X1444152Y2372492D01*
X1440820Y2375824D01*
X1434155Y2379157D01*
X1427489D01*
X1420824Y2375824D01*
X1417491Y2372492D01*
X1414159Y2362494D01*
Y2332500D01*
Y2355828D02*
X1377500Y2379157D01*
X1447485Y2401485D02*
Y2438144D01*
X1420824Y2418149D01*
Y2428147D01*
X1417491Y2434812D01*
X1414159Y2438144D01*
X1404161Y2441477D01*
X1397496D01*
X1387498Y2438144D01*
X1380833Y2431479D01*
X1377500Y2421481D01*
Y2411483D01*
X1380833Y2401485D01*
X1384165Y2398153D01*
X1390830Y2394820D01*
X1172500Y7267485D02*
Y7197500D01*
Y7267485D02*
X1142506D01*
X1132509Y7264152D01*
X1129176Y7260820D01*
X1125843Y7254155D01*
Y7247489D01*
X1129176Y7240824D01*
X1132509Y7237491D01*
X1142506Y7234159D01*
X1172500D01*
X1149172D02*
X1125843Y7197500D01*
X1106847Y7250822D02*
Y7254155D01*
X1103515Y7260820D01*
X1100182Y7264152D01*
X1093517Y7267485D01*
X1080186D01*
X1073521Y7264152D01*
X1070188Y7260820D01*
X1066856Y7254155D01*
Y7247489D01*
X1070188Y7240824D01*
X1076854Y7230826D01*
X1110180Y7197500D01*
X1063523D01*
X915000Y7279985D02*
Y7210000D01*
Y7279985D02*
X885006D01*
X875008Y7276652D01*
X871676Y7273320D01*
X868343Y7266655D01*
Y7259990D01*
X871676Y7253324D01*
X875008Y7249992D01*
X885006Y7246659D01*
X915000D01*
X891672D02*
X868343Y7210000D01*
X852680Y7266655D02*
X846015Y7269987D01*
X836017Y7279985D01*
Y7210000D01*
X7102489Y7144283D02*
X7100109Y7139522D01*
X7095348Y7134761D01*
X7090587Y7132380D01*
X7083446Y7130000D01*
X7071543D01*
X7064402Y7132380D01*
X7059641Y7134761D01*
X7054880Y7139522D01*
X7052500Y7144283D01*
Y7153804D01*
X7054880Y7158565D01*
X7059641Y7163326D01*
X7064402Y7165707D01*
X7071543Y7168087D01*
X7083446D01*
X7090587Y7165707D01*
X7095348Y7163326D01*
X7100109Y7158565D01*
X7102489Y7153804D01*
Y7144283D01*
X7076304Y7179751D02*
Y7201175D01*
X7078685Y7208317D01*
X7081065Y7210697D01*
X7085826Y7213077D01*
X7092968D01*
X7097728Y7210697D01*
X7100109Y7208317D01*
X7102489Y7201175D01*
Y7179751D01*
X7052500D01*
Y7301630D02*
X7102489Y7282586D01*
X7052500Y7263543D01*
X7069163Y7270684D02*
Y7294488D01*
X7102489Y7313294D02*
X7052500D01*
X7102489D02*
X7052500Y7332337D01*
X7102489Y7351381D02*
X7052500Y7332337D01*
X7102489Y7351381D02*
X7052500D01*
X7076304Y7365664D02*
Y7387088D01*
X7078685Y7394229D01*
X7081065Y7396609D01*
X7085826Y7398990D01*
X7092968D01*
X7097728Y7396609D01*
X7100109Y7394229D01*
X7102489Y7387088D01*
Y7365664D01*
X7052500D01*
X7102489Y7414939D02*
Y7441124D01*
X7083446Y7426841D01*
Y7433982D01*
X7081065Y7438743D01*
X7078685Y7441124D01*
X7071543Y7443504D01*
X7066783D01*
X7059641Y7441124D01*
X7054880Y7436363D01*
X7052500Y7429221D01*
Y7422080D01*
X7054880Y7414939D01*
X7057261Y7412558D01*
X7062022Y7410178D01*
X5992489Y7094283D02*
X5990109Y7089522D01*
X5985348Y7084761D01*
X5980587Y7082381D01*
X5973446Y7080000D01*
X5961543D01*
X5954402Y7082381D01*
X5949641Y7084761D01*
X5944880Y7089522D01*
X5942500Y7094283D01*
Y7103804D01*
X5944880Y7108565D01*
X5949641Y7113326D01*
X5954402Y7115707D01*
X5961543Y7118087D01*
X5973446D01*
X5980587Y7115707D01*
X5985348Y7113326D01*
X5990109Y7108565D01*
X5992489Y7103804D01*
Y7094283D01*
X5966304Y7129751D02*
Y7151175D01*
X5968685Y7158317D01*
X5971065Y7160697D01*
X5975826Y7163077D01*
X5982967D01*
X5987728Y7160697D01*
X5990109Y7158317D01*
X5992489Y7151175D01*
Y7129751D01*
X5942500D01*
Y7251630D02*
X5992489Y7232586D01*
X5942500Y7213543D01*
X5959163Y7220684D02*
Y7244488D01*
X5992489Y7263294D02*
X5942500D01*
X5992489D02*
X5942500Y7282337D01*
X5992489Y7301381D02*
X5942500Y7282337D01*
X5992489Y7301381D02*
X5942500D01*
X5966304Y7315664D02*
Y7337088D01*
X5968685Y7344229D01*
X5971065Y7346609D01*
X5975826Y7348990D01*
X5982967D01*
X5987728Y7346609D01*
X5990109Y7344229D01*
X5992489Y7337088D01*
Y7315664D01*
X5942500D01*
X5980587Y7362559D02*
X5982967D01*
X5987728Y7364939D01*
X5990109Y7367319D01*
X5992489Y7372080D01*
Y7381602D01*
X5990109Y7386363D01*
X5987728Y7388743D01*
X5982967Y7391124D01*
X5978206D01*
X5973446Y7388743D01*
X5966304Y7383982D01*
X5942500Y7360178D01*
Y7393504D01*
X5520717Y8192489D02*
X5525478Y8190109D01*
X5530239Y8185348D01*
X5532620Y8180587D01*
X5535000Y8173446D01*
Y8161543D01*
X5532620Y8154402D01*
X5530239Y8149641D01*
X5525478Y8144881D01*
X5520717Y8142500D01*
X5511196D01*
X5506435Y8144881D01*
X5501674Y8149641D01*
X5499294Y8154402D01*
X5496913Y8161543D01*
Y8173446D01*
X5499294Y8180587D01*
X5501674Y8185348D01*
X5506435Y8190109D01*
X5511196Y8192489D01*
X5520717D01*
X5485249Y8166304D02*
X5463825D01*
X5456684Y8168685D01*
X5454303Y8171065D01*
X5451923Y8175826D01*
Y8182968D01*
X5454303Y8187728D01*
X5456684Y8190109D01*
X5463825Y8192489D01*
X5485249D01*
Y8142500D01*
X5363370D02*
X5382414Y8192489D01*
X5401457Y8142500D01*
X5394316Y8159163D02*
X5370512D01*
X5351706Y8192489D02*
Y8142500D01*
Y8192489D02*
X5332663Y8142500D01*
X5313619Y8192489D02*
X5332663Y8142500D01*
X5313619Y8192489D02*
Y8142500D01*
X5299336Y8166304D02*
X5277912D01*
X5270771Y8168685D01*
X5268391Y8171065D01*
X5266010Y8175826D01*
Y8182968D01*
X5268391Y8187728D01*
X5270771Y8190109D01*
X5277912Y8192489D01*
X5299336D01*
Y8142500D01*
X5254822Y8182968D02*
X5250061Y8185348D01*
X5242920Y8192489D01*
Y8142500D01*
X5577500Y3607485D02*
Y3537500D01*
Y3607485D02*
X5554172D01*
X5544174Y3604152D01*
X5537508Y3597487D01*
X5534176Y3590822D01*
X5530843Y3580824D01*
Y3564161D01*
X5534176Y3554163D01*
X5537508Y3547498D01*
X5544174Y3540833D01*
X5554172Y3537500D01*
X5577500D01*
X5475188Y3597487D02*
X5478521Y3604152D01*
X5488519Y3607485D01*
X5495184D01*
X5505182Y3604152D01*
X5511847Y3594155D01*
X5515180Y3577491D01*
Y3560828D01*
X5511847Y3547498D01*
X5505182Y3540833D01*
X5495184Y3537500D01*
X5491851D01*
X5481853Y3540833D01*
X5475188Y3547498D01*
X5471856Y3557496D01*
Y3560828D01*
X5475188Y3570826D01*
X5481853Y3577491D01*
X5491851Y3580824D01*
X5495184D01*
X5505182Y3577491D01*
X5511847Y3570826D01*
X5515180Y3560828D01*
X3020000Y3679985D02*
Y3610000D01*
Y3679985D02*
X2996672D01*
X2986674Y3676652D01*
X2980009Y3669987D01*
X2976676Y3663322D01*
X2973343Y3653324D01*
Y3636661D01*
X2976676Y3626663D01*
X2980009Y3619998D01*
X2986674Y3613333D01*
X2996672Y3610000D01*
X3020000D01*
X2917688Y3679985D02*
X2951015D01*
X2954347Y3649991D01*
X2951015Y3653324D01*
X2941017Y3656657D01*
X2931019D01*
X2921021Y3653324D01*
X2914356Y3646659D01*
X2911023Y3636661D01*
Y3629996D01*
X2914356Y3619998D01*
X2921021Y3613333D01*
X2931019Y3610000D01*
X2941017D01*
X2951015Y3613333D01*
X2954347Y3616665D01*
X2957680Y3623330D01*
X4612500Y4659985D02*
Y4590000D01*
Y4659985D02*
X4589172D01*
X4579174Y4656652D01*
X4572509Y4649987D01*
X4569176Y4643322D01*
X4565843Y4633324D01*
Y4616661D01*
X4569176Y4606663D01*
X4572509Y4599998D01*
X4579174Y4593333D01*
X4589172Y4590000D01*
X4612500D01*
X4516854Y4659985D02*
X4550180Y4613328D01*
X4500190D01*
X4516854Y4659985D02*
Y4590000D01*
X862500Y3792485D02*
Y3722500D01*
Y3792485D02*
X839172D01*
X829174Y3789152D01*
X822508Y3782487D01*
X819176Y3775822D01*
X815843Y3765824D01*
Y3749161D01*
X819176Y3739163D01*
X822508Y3732498D01*
X829174Y3725833D01*
X839172Y3722500D01*
X862500D01*
X793515Y3792485D02*
X756856D01*
X776851Y3765824D01*
X766853D01*
X760188Y3762492D01*
X756856Y3759159D01*
X753523Y3749161D01*
Y3742496D01*
X756856Y3732498D01*
X763521Y3725833D01*
X773519Y3722500D01*
X783517D01*
X793515Y3725833D01*
X796847Y3729165D01*
X800180Y3735830D01*
X5140000Y5704989D02*
Y5655000D01*
Y5704989D02*
X5123337D01*
X5116196Y5702609D01*
X5111435Y5697848D01*
X5109054Y5693087D01*
X5106674Y5685946D01*
Y5674044D01*
X5109054Y5666902D01*
X5111435Y5662141D01*
X5116196Y5657381D01*
X5123337Y5655000D01*
X5140000D01*
X5093105Y5693087D02*
Y5695468D01*
X5090725Y5700228D01*
X5088344Y5702609D01*
X5083583Y5704989D01*
X5074062D01*
X5069301Y5702609D01*
X5066920Y5700228D01*
X5064540Y5695468D01*
Y5690707D01*
X5066920Y5685946D01*
X5071681Y5678804D01*
X5095486Y5655000D01*
X5062160D01*
X592500Y8197485D02*
Y8127500D01*
Y8197485D02*
X569172D01*
X559174Y8194152D01*
X552508Y8187487D01*
X549176Y8180822D01*
X545843Y8170824D01*
Y8154161D01*
X549176Y8144163D01*
X552508Y8137498D01*
X559174Y8130833D01*
X569172Y8127500D01*
X592500D01*
X530180Y8184155D02*
X523515Y8187487D01*
X513517Y8197485D01*
Y8127500D01*
X6731793Y7873087D02*
X6734174Y7877848D01*
X6738935Y7882609D01*
X6743696Y7884989D01*
X6753217D01*
X6757978Y7882609D01*
X6762739Y7877848D01*
X6765120Y7873087D01*
X6767500Y7865946D01*
Y7854043D01*
X6765120Y7846902D01*
X6762739Y7842141D01*
X6757978Y7837381D01*
X6753217Y7835000D01*
X6743696D01*
X6738935Y7837381D01*
X6734174Y7842141D01*
X6731793Y7846902D01*
X6686803Y7868326D02*
X6689183Y7861185D01*
X6693944Y7856424D01*
X6701086Y7854043D01*
X6703466D01*
X6710608Y7856424D01*
X6715368Y7861185D01*
X6717749Y7868326D01*
Y7870707D01*
X6715368Y7877848D01*
X6710608Y7882609D01*
X6703466Y7884989D01*
X6701086D01*
X6693944Y7882609D01*
X6689183Y7877848D01*
X6686803Y7868326D01*
Y7856424D01*
X6689183Y7844522D01*
X6693944Y7837381D01*
X6701086Y7835000D01*
X6705847D01*
X6712988Y7837381D01*
X6715368Y7842141D01*
X6642289Y7868326D02*
X6644669Y7861185D01*
X6649430Y7856424D01*
X6656571Y7854043D01*
X6658952D01*
X6666093Y7856424D01*
X6670854Y7861185D01*
X6673235Y7868326D01*
Y7870707D01*
X6670854Y7877848D01*
X6666093Y7882609D01*
X6658952Y7884989D01*
X6656571D01*
X6649430Y7882609D01*
X6644669Y7877848D01*
X6642289Y7868326D01*
Y7856424D01*
X6644669Y7844522D01*
X6649430Y7837381D01*
X6656571Y7835000D01*
X6661332D01*
X6668474Y7837381D01*
X6670854Y7842141D01*
X5561794Y8015587D02*
X5564174Y8020348D01*
X5568935Y8025109D01*
X5573696Y8027489D01*
X5583217D01*
X5587978Y8025109D01*
X5592739Y8020348D01*
X5595120Y8015587D01*
X5597500Y8008446D01*
Y7996543D01*
X5595120Y7989402D01*
X5592739Y7984641D01*
X5587978Y7979880D01*
X5583217Y7977500D01*
X5573696D01*
X5568935Y7979880D01*
X5564174Y7984641D01*
X5561794Y7989402D01*
X5516803Y8010826D02*
X5519184Y8003685D01*
X5523945Y7998924D01*
X5531086Y7996543D01*
X5533466D01*
X5540608Y7998924D01*
X5545368Y8003685D01*
X5547749Y8010826D01*
Y8013206D01*
X5545368Y8020348D01*
X5540608Y8025109D01*
X5533466Y8027489D01*
X5531086D01*
X5523945Y8025109D01*
X5519184Y8020348D01*
X5516803Y8010826D01*
Y7998924D01*
X5519184Y7987022D01*
X5523945Y7979880D01*
X5531086Y7977500D01*
X5535847D01*
X5542988Y7979880D01*
X5545368Y7984641D01*
X5491332Y8027489D02*
X5498474Y8025109D01*
X5500854Y8020348D01*
Y8015587D01*
X5498474Y8010826D01*
X5493713Y8008446D01*
X5484191Y8006065D01*
X5477050Y8003685D01*
X5472289Y7998924D01*
X5469909Y7994163D01*
Y7987022D01*
X5472289Y7982261D01*
X5474669Y7979880D01*
X5481811Y7977500D01*
X5491332D01*
X5498474Y7979880D01*
X5500854Y7982261D01*
X5503235Y7987022D01*
Y7994163D01*
X5500854Y7998924D01*
X5496093Y8003685D01*
X5488952Y8006065D01*
X5479430Y8008446D01*
X5474669Y8010826D01*
X5472289Y8015587D01*
Y8020348D01*
X5474669Y8025109D01*
X5481811Y8027489D01*
X5491332D01*
X5802511Y6573322D02*
X5805843Y6579987D01*
X5812509Y6586652D01*
X5819174Y6589985D01*
X5832504D01*
X5839170Y6586652D01*
X5845835Y6579987D01*
X5849167Y6573322D01*
X5852500Y6563324D01*
Y6546661D01*
X5849167Y6536663D01*
X5845835Y6529998D01*
X5839170Y6523333D01*
X5832504Y6520000D01*
X5819174D01*
X5812509Y6523333D01*
X5805843Y6529998D01*
X5802511Y6536663D01*
X5739524Y6566657D02*
X5742857Y6556659D01*
X5749522Y6549994D01*
X5759520Y6546661D01*
X5762853D01*
X5772850Y6549994D01*
X5779515Y6556659D01*
X5782848Y6566657D01*
Y6569989D01*
X5779515Y6579987D01*
X5772850Y6586652D01*
X5762853Y6589985D01*
X5759520D01*
X5749522Y6586652D01*
X5742857Y6579987D01*
X5739524Y6566657D01*
Y6549994D01*
X5742857Y6533330D01*
X5749522Y6523333D01*
X5759520Y6520000D01*
X5766185D01*
X5776183Y6523333D01*
X5779515Y6529998D01*
X5673871Y6589985D02*
X5707198Y6520000D01*
X5720528Y6589985D02*
X5673871D01*
X5606913Y6921793D02*
X5602152Y6924174D01*
X5597391Y6928935D01*
X5595011Y6933696D01*
Y6943217D01*
X5597391Y6947978D01*
X5602152Y6952739D01*
X5606913Y6955119D01*
X5614054Y6957500D01*
X5625956D01*
X5633098Y6955119D01*
X5637859Y6952739D01*
X5642619Y6947978D01*
X5645000Y6943217D01*
Y6933696D01*
X5642619Y6928935D01*
X5637859Y6924174D01*
X5633098Y6921793D01*
X5611674Y6876803D02*
X5618815Y6879183D01*
X5623576Y6883944D01*
X5625956Y6891086D01*
Y6893466D01*
X5623576Y6900607D01*
X5618815Y6905368D01*
X5611674Y6907749D01*
X5609293D01*
X5602152Y6905368D01*
X5597391Y6900607D01*
X5595011Y6893466D01*
Y6891086D01*
X5597391Y6883944D01*
X5602152Y6879183D01*
X5611674Y6876803D01*
X5623576D01*
X5635478Y6879183D01*
X5642619Y6883944D01*
X5645000Y6891086D01*
Y6895847D01*
X5642619Y6902988D01*
X5637859Y6905368D01*
X5602152Y6834669D02*
X5597391Y6837050D01*
X5595011Y6844191D01*
Y6848952D01*
X5597391Y6856093D01*
X5604532Y6860854D01*
X5616435Y6863234D01*
X5628337D01*
X5637859Y6860854D01*
X5642619Y6856093D01*
X5645000Y6848952D01*
Y6846571D01*
X5642619Y6839430D01*
X5637859Y6834669D01*
X5630717Y6832289D01*
X5628337D01*
X5621196Y6834669D01*
X5616435Y6839430D01*
X5614054Y6846571D01*
Y6848952D01*
X5616435Y6856093D01*
X5621196Y6860854D01*
X5628337Y6863234D01*
X5026435Y8522969D02*
X5028339Y8526778D01*
X5032148Y8530587D01*
X5035957Y8532491D01*
X5043574D01*
X5047383Y8530587D01*
X5051191Y8526778D01*
X5053096Y8522969D01*
X5055000Y8517257D01*
Y8507735D01*
X5053096Y8502022D01*
X5051191Y8498213D01*
X5047383Y8494404D01*
X5043574Y8492500D01*
X5035957D01*
X5032148Y8494404D01*
X5028339Y8498213D01*
X5026435Y8502022D01*
X4990442Y8519161D02*
X4992347Y8513448D01*
X4996156Y8509639D01*
X5001869Y8507735D01*
X5003773D01*
X5009486Y8509639D01*
X5013295Y8513448D01*
X5015199Y8519161D01*
Y8521065D01*
X5013295Y8526778D01*
X5009486Y8530587D01*
X5003773Y8532491D01*
X5001869D01*
X4996156Y8530587D01*
X4992347Y8526778D01*
X4990442Y8519161D01*
Y8509639D01*
X4992347Y8500117D01*
X4996156Y8494404D01*
X5001869Y8492500D01*
X5005677D01*
X5011390Y8494404D01*
X5013295Y8498213D01*
X4956736Y8532491D02*
X4975779D01*
X4977683Y8515352D01*
X4975779Y8517257D01*
X4970066Y8519161D01*
X4964353D01*
X4958640Y8517257D01*
X4954831Y8513448D01*
X4952927Y8507735D01*
Y8503926D01*
X4954831Y8498213D01*
X4958640Y8494404D01*
X4964353Y8492500D01*
X4970066D01*
X4975779Y8494404D01*
X4977683Y8496309D01*
X4979588Y8500117D01*
X4032511Y4640822D02*
X4035843Y4647487D01*
X4042509Y4654152D01*
X4049174Y4657485D01*
X4062504D01*
X4069170Y4654152D01*
X4075835Y4647487D01*
X4079167Y4640822D01*
X4082500Y4630824D01*
Y4614161D01*
X4079167Y4604163D01*
X4075835Y4597498D01*
X4069170Y4590833D01*
X4062504Y4587500D01*
X4049174D01*
X4042509Y4590833D01*
X4035843Y4597498D01*
X4032511Y4604163D01*
X3969524Y4634157D02*
X3972857Y4624159D01*
X3979522Y4617494D01*
X3989520Y4614161D01*
X3992853D01*
X4002850Y4617494D01*
X4009515Y4624159D01*
X4012848Y4634157D01*
Y4637490D01*
X4009515Y4647487D01*
X4002850Y4654152D01*
X3992853Y4657485D01*
X3989520D01*
X3979522Y4654152D01*
X3972857Y4647487D01*
X3969524Y4634157D01*
Y4617494D01*
X3972857Y4600831D01*
X3979522Y4590833D01*
X3989520Y4587500D01*
X3996185D01*
X4006183Y4590833D01*
X4009515Y4597498D01*
X3917202Y4657485D02*
X3950528Y4610828D01*
X3900539D01*
X3917202Y4657485D02*
Y4587500D01*
X3297511Y3905822D02*
X3300843Y3912487D01*
X3307508Y3919152D01*
X3314174Y3922485D01*
X3327504D01*
X3334170Y3919152D01*
X3340835Y3912487D01*
X3344167Y3905822D01*
X3347500Y3895824D01*
Y3879161D01*
X3344167Y3869163D01*
X3340835Y3862498D01*
X3334170Y3855833D01*
X3327504Y3852500D01*
X3314174D01*
X3307508Y3855833D01*
X3300843Y3862498D01*
X3297511Y3869163D01*
X3261185Y3922485D02*
X3271183Y3919152D01*
X3274515Y3912487D01*
Y3905822D01*
X3271183Y3899157D01*
X3264518Y3895824D01*
X3251187Y3892492D01*
X3241189Y3889159D01*
X3234524Y3882494D01*
X3231191Y3875828D01*
Y3865830D01*
X3234524Y3859165D01*
X3237857Y3855833D01*
X3247855Y3852500D01*
X3261185D01*
X3271183Y3855833D01*
X3274515Y3859165D01*
X3277848Y3865830D01*
Y3875828D01*
X3274515Y3882494D01*
X3267850Y3889159D01*
X3257853Y3892492D01*
X3244522Y3895824D01*
X3237857Y3899157D01*
X3234524Y3905822D01*
Y3912487D01*
X3237857Y3919152D01*
X3247855Y3922485D01*
X3261185D01*
X3172204Y3899157D02*
X3175536Y3889159D01*
X3182202Y3882494D01*
X3192200Y3879161D01*
X3195532D01*
X3205530Y3882494D01*
X3212195Y3889159D01*
X3215528Y3899157D01*
Y3902490D01*
X3212195Y3912487D01*
X3205530Y3919152D01*
X3195532Y3922485D01*
X3192200D01*
X3182202Y3919152D01*
X3175536Y3912487D01*
X3172204Y3899157D01*
Y3882494D01*
X3175536Y3865830D01*
X3182202Y3855833D01*
X3192200Y3852500D01*
X3198865D01*
X3208863Y3855833D01*
X3212195Y3862498D01*
X867511Y4083322D02*
X870843Y4089987D01*
X877509Y4096652D01*
X884174Y4099985D01*
X897504D01*
X904170Y4096652D01*
X910835Y4089987D01*
X914167Y4083322D01*
X917500Y4073324D01*
Y4056661D01*
X914167Y4046663D01*
X910835Y4039998D01*
X904170Y4033333D01*
X897504Y4030000D01*
X884174D01*
X877509Y4033333D01*
X870843Y4039998D01*
X867511Y4046663D01*
X831185Y4099985D02*
X841183Y4096652D01*
X844515Y4089987D01*
Y4083322D01*
X841183Y4076657D01*
X834518Y4073324D01*
X821187Y4069992D01*
X811189Y4066659D01*
X804524Y4059994D01*
X801191Y4053328D01*
Y4043330D01*
X804524Y4036665D01*
X807857Y4033333D01*
X817855Y4030000D01*
X831185D01*
X841183Y4033333D01*
X844515Y4036665D01*
X847848Y4043330D01*
Y4053328D01*
X844515Y4059994D01*
X837850Y4066659D01*
X827853Y4069992D01*
X814522Y4073324D01*
X807857Y4076657D01*
X804524Y4083322D01*
Y4089987D01*
X807857Y4096652D01*
X817855Y4099985D01*
X831185D01*
X745536D02*
X778863D01*
X782195Y4069992D01*
X778863Y4073324D01*
X768865Y4076657D01*
X758867D01*
X748869Y4073324D01*
X742204Y4066659D01*
X738871Y4056661D01*
Y4049996D01*
X742204Y4039998D01*
X748869Y4033333D01*
X758867Y4030000D01*
X768865D01*
X778863Y4033333D01*
X782195Y4036665D01*
X785528Y4043330D01*
X5111793Y3548087D02*
X5114174Y3552848D01*
X5118935Y3557609D01*
X5123696Y3559989D01*
X5133217D01*
X5137978Y3557609D01*
X5142739Y3552848D01*
X5145120Y3548087D01*
X5147500Y3540946D01*
Y3529043D01*
X5145120Y3521902D01*
X5142739Y3517141D01*
X5137978Y3512381D01*
X5133217Y3510000D01*
X5123696D01*
X5118935Y3512381D01*
X5114174Y3517141D01*
X5111793Y3521902D01*
X5085847Y3559989D02*
X5092988Y3557609D01*
X5095368Y3552848D01*
Y3548087D01*
X5092988Y3543326D01*
X5088227Y3540946D01*
X5078705Y3538565D01*
X5071564Y3536185D01*
X5066803Y3531424D01*
X5064423Y3526663D01*
Y3519522D01*
X5066803Y3514761D01*
X5069183Y3512381D01*
X5076325Y3510000D01*
X5085847D01*
X5092988Y3512381D01*
X5095368Y3514761D01*
X5097749Y3519522D01*
Y3526663D01*
X5095368Y3531424D01*
X5090608Y3536185D01*
X5083466Y3538565D01*
X5073944Y3540946D01*
X5069183Y3543326D01*
X5066803Y3548087D01*
Y3552848D01*
X5069183Y3557609D01*
X5076325Y3559989D01*
X5085847D01*
X5038952D02*
X5046093Y3557609D01*
X5050854Y3550468D01*
X5053234Y3538565D01*
Y3531424D01*
X5050854Y3519522D01*
X5046093Y3512381D01*
X5038952Y3510000D01*
X5034191D01*
X5027050Y3512381D01*
X5022289Y3519522D01*
X5019908Y3531424D01*
Y3538565D01*
X5022289Y3550468D01*
X5027050Y3557609D01*
X5034191Y3559989D01*
X5038952D01*
X6920011Y6575822D02*
X6923343Y6582487D01*
X6930008Y6589152D01*
X6936674Y6592485D01*
X6950004D01*
X6956670Y6589152D01*
X6963335Y6582487D01*
X6966667Y6575822D01*
X6970000Y6565824D01*
Y6549161D01*
X6966667Y6539163D01*
X6963335Y6532498D01*
X6956670Y6525833D01*
X6950004Y6522500D01*
X6936674D01*
X6930008Y6525833D01*
X6923343Y6532498D01*
X6920011Y6539163D01*
X6853691Y6592485D02*
X6887018Y6522500D01*
X6900348Y6592485D02*
X6853691D01*
X6794704Y6569157D02*
X6798036Y6559159D01*
X6804702Y6552494D01*
X6814700Y6549161D01*
X6818032D01*
X6828030Y6552494D01*
X6834695Y6559159D01*
X6838028Y6569157D01*
Y6572490D01*
X6834695Y6582487D01*
X6828030Y6589152D01*
X6818032Y6592485D01*
X6814700D01*
X6804702Y6589152D01*
X6798036Y6582487D01*
X6794704Y6569157D01*
Y6552494D01*
X6798036Y6535830D01*
X6804702Y6525833D01*
X6814700Y6522500D01*
X6821365D01*
X6831363Y6525833D01*
X6834695Y6532498D01*
X6916793Y7883087D02*
X6919174Y7887848D01*
X6923935Y7892609D01*
X6928696Y7894989D01*
X6938217D01*
X6942978Y7892609D01*
X6947739Y7887848D01*
X6950119Y7883087D01*
X6952500Y7875946D01*
Y7864043D01*
X6950119Y7856902D01*
X6947739Y7852141D01*
X6942978Y7847381D01*
X6938217Y7845000D01*
X6928696D01*
X6923935Y7847381D01*
X6919174Y7852141D01*
X6916793Y7856902D01*
X6869423Y7894989D02*
X6893227Y7845000D01*
X6902749Y7894989D02*
X6869423D01*
X6846332D02*
X6853473Y7892609D01*
X6855854Y7887848D01*
Y7883087D01*
X6853473Y7878326D01*
X6848713Y7875946D01*
X6839191Y7873565D01*
X6832050Y7871185D01*
X6827289Y7866424D01*
X6824908Y7861663D01*
Y7854522D01*
X6827289Y7849761D01*
X6829669Y7847381D01*
X6836811Y7845000D01*
X6846332D01*
X6853473Y7847381D01*
X6855854Y7849761D01*
X6858234Y7854522D01*
Y7861663D01*
X6855854Y7866424D01*
X6851093Y7871185D01*
X6843952Y7873565D01*
X6834430Y7875946D01*
X6829669Y7878326D01*
X6827289Y7883087D01*
Y7887848D01*
X6829669Y7892609D01*
X6836811Y7894989D01*
X6846332D01*
X6931793Y7608087D02*
X6934174Y7612848D01*
X6938935Y7617609D01*
X6943696Y7619989D01*
X6953217D01*
X6957978Y7617609D01*
X6962739Y7612848D01*
X6965119Y7608087D01*
X6967500Y7600946D01*
Y7589043D01*
X6965119Y7581902D01*
X6962739Y7577141D01*
X6957978Y7572381D01*
X6953217Y7570000D01*
X6943696D01*
X6938935Y7572381D01*
X6934174Y7577141D01*
X6931793Y7581902D01*
X6884423Y7619989D02*
X6908227Y7570000D01*
X6917749Y7619989D02*
X6884423D01*
X6844669Y7612848D02*
X6847050Y7617609D01*
X6854191Y7619989D01*
X6858952D01*
X6866093Y7617609D01*
X6870854Y7610468D01*
X6873234Y7598565D01*
Y7586663D01*
X6870854Y7577141D01*
X6866093Y7572381D01*
X6858952Y7570000D01*
X6856571D01*
X6849430Y7572381D01*
X6844669Y7577141D01*
X6842289Y7584283D01*
Y7586663D01*
X6844669Y7593804D01*
X6849430Y7598565D01*
X6856571Y7600946D01*
X6858952D01*
X6866093Y7598565D01*
X6870854Y7593804D01*
X6873234Y7586663D01*
X6580010Y6568322D02*
X6583343Y6574987D01*
X6590008Y6581652D01*
X6596674Y6584985D01*
X6610004D01*
X6616670Y6581652D01*
X6623335Y6574987D01*
X6626667Y6568322D01*
X6630000Y6558324D01*
Y6541661D01*
X6626667Y6531663D01*
X6623335Y6524998D01*
X6616670Y6518333D01*
X6610004Y6515000D01*
X6596674D01*
X6590008Y6518333D01*
X6583343Y6524998D01*
X6580010Y6531663D01*
X6513691Y6584985D02*
X6547018Y6515000D01*
X6560348Y6584985D02*
X6513691D01*
X6458036D02*
X6491363D01*
X6494695Y6554991D01*
X6491363Y6558324D01*
X6481365Y6561657D01*
X6471367D01*
X6461369Y6558324D01*
X6454704Y6551659D01*
X6451371Y6541661D01*
Y6534996D01*
X6454704Y6524998D01*
X6461369Y6518333D01*
X6471367Y6515000D01*
X6481365D01*
X6491363Y6518333D01*
X6494695Y6521665D01*
X6498028Y6528330D01*
X6561793Y7885587D02*
X6564174Y7890348D01*
X6568935Y7895109D01*
X6573696Y7897489D01*
X6583217D01*
X6587978Y7895109D01*
X6592739Y7890348D01*
X6595119Y7885587D01*
X6597500Y7878446D01*
Y7866543D01*
X6595119Y7859402D01*
X6592739Y7854641D01*
X6587978Y7849880D01*
X6583217Y7847500D01*
X6573696D01*
X6568935Y7849880D01*
X6564174Y7854641D01*
X6561793Y7859402D01*
X6514423Y7897489D02*
X6538227Y7847500D01*
X6547749Y7897489D02*
X6514423D01*
X6479430D02*
X6503234Y7864163D01*
X6467528D01*
X6479430Y7897489D02*
Y7847500D01*
X6541435Y6875470D02*
X6543339Y6879278D01*
X6547148Y6883087D01*
X6550957Y6884991D01*
X6558574D01*
X6562383Y6883087D01*
X6566191Y6879278D01*
X6568096Y6875470D01*
X6570000Y6869757D01*
Y6860235D01*
X6568096Y6854522D01*
X6566191Y6850713D01*
X6562383Y6846904D01*
X6558574Y6845000D01*
X6550957D01*
X6547148Y6846904D01*
X6543339Y6850713D01*
X6541435Y6854522D01*
X6503538Y6884991D02*
X6522582Y6845000D01*
X6530199Y6884991D02*
X6503538D01*
X6492683Y6875470D02*
Y6877374D01*
X6490779Y6881183D01*
X6488875Y6883087D01*
X6485066Y6884991D01*
X6477449D01*
X6473640Y6883087D01*
X6471736Y6881183D01*
X6469831Y6877374D01*
Y6873565D01*
X6471736Y6869757D01*
X6475544Y6864043D01*
X6494588Y6845000D01*
X6467927D01*
X6521793Y7608087D02*
X6524174Y7612848D01*
X6528935Y7617609D01*
X6533696Y7619989D01*
X6543217D01*
X6547978Y7617609D01*
X6552739Y7612848D01*
X6555119Y7608087D01*
X6557500Y7600946D01*
Y7589043D01*
X6555119Y7581902D01*
X6552739Y7577141D01*
X6547978Y7572381D01*
X6543217Y7570000D01*
X6533696D01*
X6528935Y7572381D01*
X6524174Y7577141D01*
X6521793Y7581902D01*
X6474423Y7619989D02*
X6498227Y7570000D01*
X6507749Y7619989D02*
X6474423D01*
X6463234Y7610468D02*
X6458473Y7612848D01*
X6451332Y7619989D01*
Y7570000D01*
X5709293Y7853087D02*
X5711674Y7857848D01*
X5716435Y7862609D01*
X5721196Y7864989D01*
X5730717D01*
X5735478Y7862609D01*
X5740239Y7857848D01*
X5742619Y7853087D01*
X5745000Y7845946D01*
Y7834044D01*
X5742619Y7826902D01*
X5740239Y7822141D01*
X5735478Y7817381D01*
X5730717Y7815000D01*
X5721196D01*
X5716435Y7817381D01*
X5711674Y7822141D01*
X5709293Y7826902D01*
X5661923Y7864989D02*
X5685727Y7815000D01*
X5695249Y7864989D02*
X5661923D01*
X5636452D02*
X5643593Y7862609D01*
X5648354Y7855468D01*
X5650734Y7843565D01*
Y7836424D01*
X5648354Y7824522D01*
X5643593Y7817381D01*
X5636452Y7815000D01*
X5631691D01*
X5624550Y7817381D01*
X5619789Y7824522D01*
X5617408Y7836424D01*
Y7843565D01*
X5619789Y7855468D01*
X5624550Y7862609D01*
X5631691Y7864989D01*
X5636452D01*
X5794293Y7590587D02*
X5796674Y7595348D01*
X5801435Y7600109D01*
X5806196Y7602489D01*
X5815717D01*
X5820478Y7600109D01*
X5825239Y7595348D01*
X5827620Y7590587D01*
X5830000Y7583446D01*
Y7571543D01*
X5827620Y7564402D01*
X5825239Y7559641D01*
X5820478Y7554880D01*
X5815717Y7552500D01*
X5806196D01*
X5801435Y7554880D01*
X5796674Y7559641D01*
X5794293Y7564402D01*
X5751683Y7595348D02*
X5754064Y7600109D01*
X5761205Y7602489D01*
X5765966D01*
X5773108Y7600109D01*
X5777868Y7592968D01*
X5780249Y7581065D01*
Y7569163D01*
X5777868Y7559641D01*
X5773108Y7554880D01*
X5765966Y7552500D01*
X5763586D01*
X5756444Y7554880D01*
X5751683Y7559641D01*
X5749303Y7566783D01*
Y7569163D01*
X5751683Y7576304D01*
X5756444Y7581065D01*
X5763586Y7583446D01*
X5765966D01*
X5773108Y7581065D01*
X5777868Y7576304D01*
X5780249Y7569163D01*
X5726451Y7602489D02*
X5733592Y7600109D01*
X5735973Y7595348D01*
Y7590587D01*
X5733592Y7585826D01*
X5728831Y7583446D01*
X5719310Y7581065D01*
X5712168Y7578685D01*
X5707407Y7573924D01*
X5705027Y7569163D01*
Y7562022D01*
X5707407Y7557261D01*
X5709788Y7554880D01*
X5716929Y7552500D01*
X5726451D01*
X5733592Y7554880D01*
X5735973Y7557261D01*
X5738353Y7562022D01*
Y7569163D01*
X5735973Y7573924D01*
X5731212Y7578685D01*
X5724070Y7581065D01*
X5714549Y7583446D01*
X5709788Y7585826D01*
X5707407Y7590587D01*
Y7595348D01*
X5709788Y7600109D01*
X5716929Y7602489D01*
X5726451D01*
X5056794Y6683087D02*
X5059174Y6687848D01*
X5063935Y6692609D01*
X5068696Y6694989D01*
X5078217D01*
X5082978Y6692609D01*
X5087739Y6687848D01*
X5090120Y6683087D01*
X5092500Y6675945D01*
Y6664043D01*
X5090120Y6656902D01*
X5087739Y6652141D01*
X5082978Y6647380D01*
X5078217Y6645000D01*
X5068696D01*
X5063935Y6647380D01*
X5059174Y6652141D01*
X5056794Y6656902D01*
X5014184Y6687848D02*
X5016564Y6692609D01*
X5023705Y6694989D01*
X5028466D01*
X5035608Y6692609D01*
X5040368Y6685467D01*
X5042749Y6673565D01*
Y6661663D01*
X5040368Y6652141D01*
X5035608Y6647380D01*
X5028466Y6645000D01*
X5026086D01*
X5018944Y6647380D01*
X5014184Y6652141D01*
X5011803Y6659283D01*
Y6661663D01*
X5014184Y6668804D01*
X5018944Y6673565D01*
X5026086Y6675945D01*
X5028466D01*
X5035608Y6673565D01*
X5040368Y6668804D01*
X5042749Y6661663D01*
X4967527Y6694989D02*
X4991331Y6645000D01*
X5000853Y6694989D02*
X4967527D01*
X5391793Y7898087D02*
X5394174Y7902848D01*
X5398935Y7907609D01*
X5403696Y7909989D01*
X5413217D01*
X5417978Y7907609D01*
X5422739Y7902848D01*
X5425119Y7898087D01*
X5427500Y7890946D01*
Y7879043D01*
X5425119Y7871902D01*
X5422739Y7867141D01*
X5417978Y7862381D01*
X5413217Y7860000D01*
X5403696D01*
X5398935Y7862381D01*
X5394174Y7867141D01*
X5391793Y7871902D01*
X5349183Y7902848D02*
X5351564Y7907609D01*
X5358705Y7909989D01*
X5363466D01*
X5370607Y7907609D01*
X5375368Y7900468D01*
X5377749Y7888565D01*
Y7876663D01*
X5375368Y7867141D01*
X5370607Y7862381D01*
X5363466Y7860000D01*
X5361086D01*
X5353944Y7862381D01*
X5349183Y7867141D01*
X5346803Y7874283D01*
Y7876663D01*
X5349183Y7883804D01*
X5353944Y7888565D01*
X5361086Y7890946D01*
X5363466D01*
X5370607Y7888565D01*
X5375368Y7883804D01*
X5377749Y7876663D01*
X5307288Y7902848D02*
X5309668Y7907609D01*
X5316810Y7909989D01*
X5321570D01*
X5328712Y7907609D01*
X5333472Y7900468D01*
X5335853Y7888565D01*
Y7876663D01*
X5333472Y7867141D01*
X5328712Y7862381D01*
X5321570Y7860000D01*
X5319190D01*
X5312049Y7862381D01*
X5307288Y7867141D01*
X5304907Y7874283D01*
Y7876663D01*
X5307288Y7883804D01*
X5312049Y7888565D01*
X5319190Y7890946D01*
X5321570D01*
X5328712Y7888565D01*
X5333472Y7883804D01*
X5335853Y7876663D01*
X5056794Y6935587D02*
X5059174Y6940348D01*
X5063935Y6945109D01*
X5068696Y6947489D01*
X5078217D01*
X5082978Y6945109D01*
X5087739Y6940348D01*
X5090120Y6935587D01*
X5092500Y6928446D01*
Y6916543D01*
X5090120Y6909402D01*
X5087739Y6904641D01*
X5082978Y6899881D01*
X5078217Y6897500D01*
X5068696D01*
X5063935Y6899881D01*
X5059174Y6904641D01*
X5056794Y6909402D01*
X5014184Y6940348D02*
X5016564Y6945109D01*
X5023705Y6947489D01*
X5028466D01*
X5035608Y6945109D01*
X5040368Y6937968D01*
X5042749Y6926065D01*
Y6914163D01*
X5040368Y6904641D01*
X5035608Y6899881D01*
X5028466Y6897500D01*
X5026086D01*
X5018944Y6899881D01*
X5014184Y6904641D01*
X5011803Y6911783D01*
Y6914163D01*
X5014184Y6921304D01*
X5018944Y6926065D01*
X5026086Y6928446D01*
X5028466D01*
X5035608Y6926065D01*
X5040368Y6921304D01*
X5042749Y6914163D01*
X4972288Y6947489D02*
X4996092D01*
X4998473Y6926065D01*
X4996092Y6928446D01*
X4988951Y6930826D01*
X4981810D01*
X4974668Y6928446D01*
X4969908Y6923685D01*
X4967527Y6916543D01*
Y6911783D01*
X4969908Y6904641D01*
X4974668Y6899881D01*
X4981810Y6897500D01*
X4988951D01*
X4996092Y6899881D01*
X4998473Y6902261D01*
X5000853Y6907022D01*
X5401435Y7605470D02*
X5403339Y7609278D01*
X5407148Y7613087D01*
X5410957Y7614991D01*
X5418574D01*
X5422383Y7613087D01*
X5426191Y7609278D01*
X5428096Y7605470D01*
X5430000Y7599757D01*
Y7590235D01*
X5428096Y7584522D01*
X5426191Y7580713D01*
X5422383Y7576904D01*
X5418574Y7575000D01*
X5410957D01*
X5407148Y7576904D01*
X5403339Y7580713D01*
X5401435Y7584522D01*
X5367347Y7609278D02*
X5369251Y7613087D01*
X5374964Y7614991D01*
X5378773D01*
X5384486Y7613087D01*
X5388295Y7607374D01*
X5390199Y7597852D01*
Y7588331D01*
X5388295Y7580713D01*
X5384486Y7576904D01*
X5378773Y7575000D01*
X5376869D01*
X5371156Y7576904D01*
X5367347Y7580713D01*
X5365442Y7586426D01*
Y7588331D01*
X5367347Y7594043D01*
X5371156Y7597852D01*
X5376869Y7599757D01*
X5378773D01*
X5384486Y7597852D01*
X5388295Y7594043D01*
X5390199Y7588331D01*
X5337639Y7614991D02*
X5356682Y7588331D01*
X5328117D01*
X5337639Y7614991D02*
Y7575000D01*
X5760470Y8626065D02*
X5764278Y8624161D01*
X5768087Y8620352D01*
X5769991Y8616543D01*
Y8608926D01*
X5768087Y8605117D01*
X5764278Y8601309D01*
X5760470Y8599404D01*
X5754757Y8597500D01*
X5745235D01*
X5739522Y8599404D01*
X5735713Y8601309D01*
X5731904Y8605117D01*
X5730000Y8608926D01*
Y8616543D01*
X5731904Y8620352D01*
X5735713Y8624161D01*
X5739522Y8626065D01*
X5764278Y8660153D02*
X5768087Y8658249D01*
X5769991Y8652536D01*
Y8648727D01*
X5768087Y8643014D01*
X5762374Y8639205D01*
X5752852Y8637301D01*
X5743330D01*
X5735713Y8639205D01*
X5731904Y8643014D01*
X5730000Y8648727D01*
Y8650631D01*
X5731904Y8656344D01*
X5735713Y8660153D01*
X5741426Y8662058D01*
X5743330D01*
X5749043Y8660153D01*
X5752852Y8656344D01*
X5754757Y8650631D01*
Y8648727D01*
X5752852Y8643014D01*
X5749043Y8639205D01*
X5743330Y8637301D01*
X5762374Y8670818D02*
X5764278Y8674626D01*
X5769991Y8680339D01*
X5730000D01*
X5007030Y8686435D02*
X5003222Y8688339D01*
X4999413Y8692148D01*
X4997509Y8695957D01*
Y8703574D01*
X4999413Y8707383D01*
X5003222Y8711191D01*
X5007030Y8713096D01*
X5012743Y8715000D01*
X5022265D01*
X5027978Y8713096D01*
X5031787Y8711191D01*
X5035596Y8707383D01*
X5037500Y8703574D01*
Y8695957D01*
X5035596Y8692148D01*
X5031787Y8688339D01*
X5027978Y8686435D01*
X5003222Y8652347D02*
X4999413Y8654251D01*
X4997509Y8659964D01*
Y8663773D01*
X4999413Y8669486D01*
X5005126Y8673295D01*
X5014648Y8675199D01*
X5024170D01*
X5031787Y8673295D01*
X5035596Y8669486D01*
X5037500Y8663773D01*
Y8661869D01*
X5035596Y8656156D01*
X5031787Y8652347D01*
X5026074Y8650442D01*
X5024170D01*
X5018457Y8652347D01*
X5014648Y8656156D01*
X5012743Y8661869D01*
Y8663773D01*
X5014648Y8669486D01*
X5018457Y8673295D01*
X5024170Y8675199D01*
X4997509Y8630256D02*
X4999413Y8635970D01*
X5005126Y8639778D01*
X5014648Y8641682D01*
X5020361D01*
X5029882Y8639778D01*
X5035596Y8635970D01*
X5037500Y8630256D01*
Y8626448D01*
X5035596Y8620735D01*
X5029882Y8616926D01*
X5020361Y8615022D01*
X5014648D01*
X5005126Y8616926D01*
X4999413Y8620735D01*
X4997509Y8626448D01*
Y8630256D01*
X6030587Y8280707D02*
X6035348Y8278326D01*
X6040109Y8273565D01*
X6042489Y8268804D01*
Y8259283D01*
X6040109Y8254522D01*
X6035348Y8249761D01*
X6030587Y8247381D01*
X6023446Y8245000D01*
X6011543D01*
X6004402Y8247381D01*
X5999641Y8249761D01*
X5994881Y8254522D01*
X5992500Y8259283D01*
Y8268804D01*
X5994881Y8273565D01*
X5999641Y8278326D01*
X6004402Y8280707D01*
X6042489Y8323317D02*
Y8299512D01*
X6021065Y8297132D01*
X6023446Y8299512D01*
X6025826Y8306653D01*
Y8313795D01*
X6023446Y8320936D01*
X6018685Y8325697D01*
X6011543Y8328077D01*
X6006783D01*
X5999641Y8325697D01*
X5994881Y8320936D01*
X5992500Y8313795D01*
Y8306653D01*
X5994881Y8299512D01*
X5997261Y8297132D01*
X6002022Y8294751D01*
X6025826Y8370211D02*
X6018685Y8367831D01*
X6013924Y8363070D01*
X6011543Y8355929D01*
Y8353548D01*
X6013924Y8346407D01*
X6018685Y8341646D01*
X6025826Y8339266D01*
X6028207D01*
X6035348Y8341646D01*
X6040109Y8346407D01*
X6042489Y8353548D01*
Y8355929D01*
X6040109Y8363070D01*
X6035348Y8367831D01*
X6025826Y8370211D01*
X6013924D01*
X6002022Y8367831D01*
X5994881Y8363070D01*
X5992500Y8355929D01*
Y8351168D01*
X5994881Y8344026D01*
X5999641Y8341646D01*
X5686794Y8465587D02*
X5689174Y8470348D01*
X5693935Y8475109D01*
X5698696Y8477489D01*
X5708217D01*
X5712978Y8475109D01*
X5717739Y8470348D01*
X5720120Y8465587D01*
X5722500Y8458446D01*
Y8446543D01*
X5720120Y8439402D01*
X5717739Y8434641D01*
X5712978Y8429881D01*
X5708217Y8427500D01*
X5698696D01*
X5693935Y8429881D01*
X5689174Y8434641D01*
X5686794Y8439402D01*
X5644184Y8477489D02*
X5667988D01*
X5670368Y8456065D01*
X5667988Y8458446D01*
X5660847Y8460826D01*
X5653705D01*
X5646564Y8458446D01*
X5641803Y8453685D01*
X5639423Y8446543D01*
Y8441783D01*
X5641803Y8434641D01*
X5646564Y8429881D01*
X5653705Y8427500D01*
X5660847D01*
X5667988Y8429881D01*
X5670368Y8432261D01*
X5672749Y8437022D01*
X5594909Y8477489D02*
X5618713Y8427500D01*
X5628235Y8477489D02*
X5594909D01*
X5002030Y8253935D02*
X4998222Y8255839D01*
X4994413Y8259648D01*
X4992509Y8263457D01*
Y8271074D01*
X4994413Y8274883D01*
X4998222Y8278691D01*
X5002030Y8280596D01*
X5007743Y8282500D01*
X5017265D01*
X5022978Y8280596D01*
X5026787Y8278691D01*
X5030596Y8274883D01*
X5032500Y8271074D01*
Y8263457D01*
X5030596Y8259648D01*
X5026787Y8255839D01*
X5022978Y8253935D01*
X4992509Y8219847D02*
Y8238890D01*
X5009648Y8240795D01*
X5007743Y8238890D01*
X5005839Y8233177D01*
Y8227464D01*
X5007743Y8221751D01*
X5011552Y8217942D01*
X5017265Y8216038D01*
X5021074D01*
X5026787Y8217942D01*
X5030596Y8221751D01*
X5032500Y8227464D01*
Y8233177D01*
X5030596Y8238890D01*
X5028691Y8240795D01*
X5024883Y8242699D01*
X4998222Y8184236D02*
X4994413Y8186140D01*
X4992509Y8191853D01*
Y8195662D01*
X4994413Y8201375D01*
X5000126Y8205183D01*
X5009648Y8207088D01*
X5019170D01*
X5026787Y8205183D01*
X5030596Y8201375D01*
X5032500Y8195662D01*
Y8193757D01*
X5030596Y8188044D01*
X5026787Y8184236D01*
X5021074Y8182331D01*
X5019170D01*
X5013457Y8184236D01*
X5009648Y8188044D01*
X5007743Y8193757D01*
Y8195662D01*
X5009648Y8201375D01*
X5013457Y8205183D01*
X5019170Y8207088D01*
X240010Y3928322D02*
X243343Y3934987D01*
X250008Y3941653D01*
X256674Y3944985D01*
X270004D01*
X276669Y3941653D01*
X283335Y3934987D01*
X286667Y3928322D01*
X290000Y3918324D01*
Y3901661D01*
X286667Y3891663D01*
X283335Y3884998D01*
X276669Y3878333D01*
X270004Y3875000D01*
X256674D01*
X250008Y3878333D01*
X243343Y3884998D01*
X240010Y3891663D01*
X180357Y3944985D02*
X213683D01*
X217015Y3914992D01*
X213683Y3918324D01*
X203685Y3921657D01*
X193687D01*
X183689Y3918324D01*
X177024Y3911659D01*
X173691Y3901661D01*
Y3894996D01*
X177024Y3884998D01*
X183689Y3878333D01*
X193687Y3875000D01*
X203685D01*
X213683Y3878333D01*
X217015Y3881665D01*
X220348Y3888331D01*
X151363Y3944985D02*
X114704D01*
X134700Y3918324D01*
X124702D01*
X118036Y3914992D01*
X114704Y3911659D01*
X111371Y3901661D01*
Y3894996D01*
X114704Y3884998D01*
X121369Y3878333D01*
X131367Y3875000D01*
X141365D01*
X151363Y3878333D01*
X154695Y3881665D01*
X158028Y3888331D01*
X300011Y6028322D02*
X303343Y6034987D01*
X310009Y6041652D01*
X316674Y6044985D01*
X330004D01*
X336670Y6041652D01*
X343335Y6034987D01*
X346667Y6028322D01*
X350000Y6018324D01*
Y6001661D01*
X346667Y5991663D01*
X343335Y5984998D01*
X336670Y5978333D01*
X330004Y5975000D01*
X316674D01*
X310009Y5978333D01*
X303343Y5984998D01*
X300011Y5991663D01*
X240357Y6044985D02*
X273683D01*
X277015Y6014992D01*
X273683Y6018324D01*
X263685Y6021657D01*
X253687D01*
X243689Y6018324D01*
X237024Y6011659D01*
X233691Y6001661D01*
Y5994996D01*
X237024Y5984998D01*
X243689Y5978333D01*
X253687Y5975000D01*
X263685D01*
X273683Y5978333D01*
X277015Y5981665D01*
X280348Y5988330D01*
X214695Y6028322D02*
Y6031655D01*
X211363Y6038320D01*
X208030Y6041652D01*
X201365Y6044985D01*
X188034D01*
X181369Y6041652D01*
X178036Y6038320D01*
X174704Y6031655D01*
Y6024989D01*
X178036Y6018324D01*
X184702Y6008326D01*
X218028Y5975000D01*
X171371D01*
X388322Y7537489D02*
X394987Y7534157D01*
X401652Y7527491D01*
X404985Y7520826D01*
Y7507496D01*
X401652Y7500830D01*
X394987Y7494165D01*
X388322Y7490833D01*
X378324Y7487500D01*
X361661D01*
X351663Y7490833D01*
X344998Y7494165D01*
X338333Y7500830D01*
X335000Y7507496D01*
Y7520826D01*
X338333Y7527491D01*
X344998Y7534157D01*
X351663Y7537489D01*
X404985Y7590478D02*
X358328Y7557152D01*
Y7607141D01*
X404985Y7590478D02*
X335000D01*
X381657Y7662796D02*
X371659Y7659463D01*
X364994Y7652798D01*
X361661Y7642800D01*
Y7639468D01*
X364994Y7629470D01*
X371659Y7622805D01*
X381657Y7619472D01*
X384990D01*
X394987Y7622805D01*
X401652Y7629470D01*
X404985Y7639468D01*
Y7642800D01*
X401652Y7652798D01*
X394987Y7659463D01*
X381657Y7662796D01*
X364994D01*
X348331Y7659463D01*
X338333Y7652798D01*
X335000Y7642800D01*
Y7636135D01*
X338333Y7626137D01*
X344998Y7622805D01*
X4981793Y2960587D02*
X4984174Y2965348D01*
X4988935Y2970109D01*
X4993696Y2972489D01*
X5003217D01*
X5007978Y2970109D01*
X5012739Y2965348D01*
X5015120Y2960587D01*
X5017500Y2953446D01*
Y2941544D01*
X5015120Y2934402D01*
X5012739Y2929641D01*
X5007978Y2924881D01*
X5003217Y2922500D01*
X4993696D01*
X4988935Y2924881D01*
X4984174Y2929641D01*
X4981793Y2934402D01*
X4943944Y2972489D02*
X4967749Y2939163D01*
X4932042D01*
X4943944Y2972489D02*
Y2922500D01*
X4923235Y2962968D02*
X4918474Y2965348D01*
X4911332Y2972489D01*
Y2922500D01*
X4964293Y3345587D02*
X4966674Y3350348D01*
X4971435Y3355109D01*
X4976196Y3357489D01*
X4985717D01*
X4990478Y3355109D01*
X4995239Y3350348D01*
X4997619Y3345587D01*
X5000000Y3338446D01*
Y3326544D01*
X4997619Y3319402D01*
X4995239Y3314641D01*
X4990478Y3309881D01*
X4985717Y3307500D01*
X4976196D01*
X4971435Y3309881D01*
X4966674Y3314641D01*
X4964293Y3319402D01*
X4926444Y3357489D02*
X4950249Y3324163D01*
X4914542D01*
X4926444Y3357489D02*
Y3307500D01*
X4891452Y3357489D02*
X4898593Y3355109D01*
X4903354Y3347968D01*
X4905734Y3336065D01*
Y3328924D01*
X4903354Y3317022D01*
X4898593Y3309881D01*
X4891452Y3307500D01*
X4886691D01*
X4879550Y3309881D01*
X4874789Y3317022D01*
X4872408Y3328924D01*
Y3336065D01*
X4874789Y3347968D01*
X4879550Y3355109D01*
X4886691Y3357489D01*
X4891452D01*
X2972510Y4090822D02*
X2975843Y4097487D01*
X2982508Y4104152D01*
X2989174Y4107485D01*
X3002504D01*
X3009169Y4104152D01*
X3015835Y4097487D01*
X3019167Y4090822D01*
X3022500Y4080824D01*
Y4064161D01*
X3019167Y4054163D01*
X3015835Y4047498D01*
X3009169Y4040833D01*
X3002504Y4037500D01*
X2989174D01*
X2982508Y4040833D01*
X2975843Y4047498D01*
X2972510Y4054163D01*
X2946183Y4107485D02*
X2909524D01*
X2929520Y4080824D01*
X2919522D01*
X2912857Y4077491D01*
X2909524Y4074159D01*
X2906191Y4064161D01*
Y4057496D01*
X2909524Y4047498D01*
X2916189Y4040833D01*
X2926187Y4037500D01*
X2936185D01*
X2946183Y4040833D01*
X2949515Y4044165D01*
X2952848Y4050830D01*
X2847204Y4084157D02*
X2850536Y4074159D01*
X2857202Y4067494D01*
X2867199Y4064161D01*
X2870532D01*
X2880530Y4067494D01*
X2887195Y4074159D01*
X2890528Y4084157D01*
Y4087489D01*
X2887195Y4097487D01*
X2880530Y4104152D01*
X2870532Y4107485D01*
X2867199D01*
X2857202Y4104152D01*
X2850536Y4097487D01*
X2847204Y4084157D01*
Y4067494D01*
X2850536Y4050830D01*
X2857202Y4040833D01*
X2867199Y4037500D01*
X2873865D01*
X2883863Y4040833D01*
X2887195Y4047498D01*
X2729178Y3792511D02*
X2722513Y3795843D01*
X2715848Y3802509D01*
X2712515Y3809174D01*
Y3822504D01*
X2715848Y3829170D01*
X2722513Y3835835D01*
X2729178Y3839167D01*
X2739176Y3842500D01*
X2755839D01*
X2765837Y3839167D01*
X2772502Y3835835D01*
X2779167Y3829170D01*
X2782500Y3822504D01*
Y3809174D01*
X2779167Y3802509D01*
X2772502Y3795843D01*
X2765837Y3792511D01*
X2712515Y3766183D02*
Y3729524D01*
X2739176Y3749520D01*
Y3739522D01*
X2742508Y3732857D01*
X2745841Y3729524D01*
X2755839Y3726191D01*
X2762504D01*
X2772502Y3729524D01*
X2779167Y3736189D01*
X2782500Y3746187D01*
Y3756185D01*
X2779167Y3766183D01*
X2775835Y3769515D01*
X2769169Y3772848D01*
X2712515Y3693865D02*
X2715848Y3703863D01*
X2722513Y3707195D01*
X2729178D01*
X2735843Y3703863D01*
X2739176Y3697198D01*
X2742508Y3683867D01*
X2745841Y3673869D01*
X2752506Y3667204D01*
X2759172Y3663871D01*
X2769169D01*
X2775835Y3667204D01*
X2779167Y3670536D01*
X2782500Y3680534D01*
Y3693865D01*
X2779167Y3703863D01*
X2775835Y3707195D01*
X2769169Y3710528D01*
X2759172D01*
X2752506Y3707195D01*
X2745841Y3700530D01*
X2742508Y3690532D01*
X2739176Y3677202D01*
X2735843Y3670536D01*
X2729178Y3667204D01*
X2722513D01*
X2715848Y3670536D01*
X2712515Y3680534D01*
Y3693865D01*
X3997510Y4070822D02*
X4000843Y4077487D01*
X4007508Y4084152D01*
X4014174Y4087485D01*
X4027504D01*
X4034169Y4084152D01*
X4040835Y4077487D01*
X4044167Y4070822D01*
X4047500Y4060824D01*
Y4044161D01*
X4044167Y4034163D01*
X4040835Y4027498D01*
X4034169Y4020833D01*
X4027504Y4017500D01*
X4014174D01*
X4007508Y4020833D01*
X4000843Y4027498D01*
X3997510Y4034163D01*
X3971183Y4087485D02*
X3934524D01*
X3954520Y4060824D01*
X3944522D01*
X3937856Y4057492D01*
X3934524Y4054159D01*
X3931191Y4044161D01*
Y4037496D01*
X3934524Y4027498D01*
X3941189Y4020833D01*
X3951187Y4017500D01*
X3961185D01*
X3971183Y4020833D01*
X3974515Y4024165D01*
X3977848Y4030830D01*
X3868871Y4087485D02*
X3902197Y4017500D01*
X3915528Y4087485D02*
X3868871D01*
X3631678Y4247510D02*
X3625013Y4250843D01*
X3618348Y4257508D01*
X3615015Y4264174D01*
Y4277504D01*
X3618348Y4284169D01*
X3625013Y4290835D01*
X3631678Y4294167D01*
X3641676Y4297500D01*
X3658339D01*
X3668337Y4294167D01*
X3675002Y4290835D01*
X3681667Y4284169D01*
X3685000Y4277504D01*
Y4264174D01*
X3681667Y4257508D01*
X3675002Y4250843D01*
X3668337Y4247510D01*
X3615015Y4221183D02*
Y4184524D01*
X3641676Y4204520D01*
Y4194522D01*
X3645008Y4187856D01*
X3648341Y4184524D01*
X3658339Y4181191D01*
X3665004D01*
X3675002Y4184524D01*
X3681667Y4191189D01*
X3685000Y4201187D01*
Y4211185D01*
X3681667Y4221183D01*
X3678335Y4224515D01*
X3671670Y4227848D01*
X3625013Y4125536D02*
X3618348Y4128869D01*
X3615015Y4138867D01*
Y4145532D01*
X3618348Y4155530D01*
X3628345Y4162195D01*
X3645008Y4165528D01*
X3661672D01*
X3675002Y4162195D01*
X3681667Y4155530D01*
X3685000Y4145532D01*
Y4142199D01*
X3681667Y4132202D01*
X3675002Y4125536D01*
X3665004Y4122204D01*
X3661672D01*
X3651674Y4125536D01*
X3645008Y4132202D01*
X3641676Y4142199D01*
Y4145532D01*
X3645008Y4155530D01*
X3651674Y4162195D01*
X3661672Y4165528D01*
X351678Y3652511D02*
X345013Y3655843D01*
X338348Y3662509D01*
X335015Y3669174D01*
Y3682504D01*
X338348Y3689170D01*
X345013Y3695835D01*
X351678Y3699167D01*
X361676Y3702500D01*
X378339D01*
X388337Y3699167D01*
X395002Y3695835D01*
X401667Y3689170D01*
X405000Y3682504D01*
Y3669174D01*
X401667Y3662509D01*
X395002Y3655843D01*
X388337Y3652511D01*
X335015Y3626183D02*
Y3589524D01*
X361676Y3609520D01*
Y3599522D01*
X365008Y3592857D01*
X368341Y3589524D01*
X378339Y3586191D01*
X385004D01*
X395002Y3589524D01*
X401667Y3596189D01*
X405000Y3606187D01*
Y3616185D01*
X401667Y3626183D01*
X398335Y3629515D01*
X391670Y3632848D01*
X335015Y3530536D02*
Y3563863D01*
X365008Y3567195D01*
X361676Y3563863D01*
X358343Y3553865D01*
Y3543867D01*
X361676Y3533869D01*
X368341Y3527204D01*
X378339Y3523871D01*
X385004D01*
X395002Y3527204D01*
X401667Y3533869D01*
X405000Y3543867D01*
Y3553865D01*
X401667Y3563863D01*
X398335Y3567195D01*
X391670Y3570528D01*
X517511Y4058322D02*
X520843Y4064987D01*
X527508Y4071653D01*
X534174Y4074985D01*
X547504D01*
X554170Y4071653D01*
X560835Y4064987D01*
X564167Y4058322D01*
X567500Y4048324D01*
Y4031661D01*
X564167Y4021663D01*
X560835Y4014998D01*
X554170Y4008333D01*
X547504Y4005000D01*
X534174D01*
X527508Y4008333D01*
X520843Y4014998D01*
X517511Y4021663D01*
X491183Y4074985D02*
X454524D01*
X474520Y4048324D01*
X464522D01*
X457857Y4044992D01*
X454524Y4041659D01*
X451191Y4031661D01*
Y4024996D01*
X454524Y4014998D01*
X461189Y4008333D01*
X471187Y4005000D01*
X481185D01*
X491183Y4008333D01*
X494515Y4011665D01*
X497848Y4018331D01*
X402202Y4074985D02*
X435528Y4028328D01*
X385538D01*
X402202Y4074985D02*
Y4005000D01*
X5294293Y5993087D02*
X5296674Y5997848D01*
X5301435Y6002609D01*
X5306196Y6004989D01*
X5315717D01*
X5320478Y6002609D01*
X5325239Y5997848D01*
X5327620Y5993087D01*
X5330000Y5985946D01*
Y5974043D01*
X5327620Y5966902D01*
X5325239Y5962141D01*
X5320478Y5957381D01*
X5315717Y5955000D01*
X5306196D01*
X5301435Y5957381D01*
X5296674Y5962141D01*
X5294293Y5966902D01*
X5275488Y6004989D02*
X5249303D01*
X5263586Y5985946D01*
X5256444D01*
X5251683Y5983565D01*
X5249303Y5981185D01*
X5246923Y5974043D01*
Y5969283D01*
X5249303Y5962141D01*
X5254064Y5957381D01*
X5261205Y5955000D01*
X5268347D01*
X5275488Y5957381D01*
X5277868Y5959761D01*
X5280249Y5964522D01*
X5230974Y6004989D02*
X5204789D01*
X5219071Y5985946D01*
X5211930D01*
X5207169Y5983565D01*
X5204789Y5981185D01*
X5202408Y5974043D01*
Y5969283D01*
X5204789Y5962141D01*
X5209550Y5957381D01*
X5216691Y5955000D01*
X5223832D01*
X5230974Y5957381D01*
X5233354Y5959761D01*
X5235735Y5964522D01*
X531678Y8030011D02*
X525013Y8033343D01*
X518348Y8040009D01*
X515015Y8046674D01*
Y8060004D01*
X518348Y8066670D01*
X525013Y8073335D01*
X531678Y8076667D01*
X541676Y8080000D01*
X558339D01*
X568337Y8076667D01*
X575002Y8073335D01*
X581667Y8066670D01*
X585000Y8060004D01*
Y8046674D01*
X581667Y8040009D01*
X575002Y8033343D01*
X568337Y8030011D01*
X515015Y8003683D02*
Y7967024D01*
X541676Y7987020D01*
Y7977022D01*
X545009Y7970357D01*
X548341Y7967024D01*
X558339Y7963691D01*
X565004D01*
X575002Y7967024D01*
X581667Y7973689D01*
X585000Y7983687D01*
Y7993685D01*
X581667Y8003683D01*
X578335Y8007015D01*
X571670Y8010348D01*
X531678Y7944695D02*
X528345D01*
X521680Y7941363D01*
X518348Y7938030D01*
X515015Y7931365D01*
Y7918034D01*
X518348Y7911369D01*
X521680Y7908037D01*
X528345Y7904704D01*
X535011D01*
X541676Y7908037D01*
X551674Y7914702D01*
X585000Y7948028D01*
Y7901371D01*
X1390010Y8218322D02*
X1393343Y8224987D01*
X1400008Y8231652D01*
X1406674Y8234985D01*
X1420004D01*
X1426669Y8231652D01*
X1433335Y8224987D01*
X1436667Y8218322D01*
X1440000Y8208324D01*
Y8191661D01*
X1436667Y8181663D01*
X1433335Y8174998D01*
X1426669Y8168333D01*
X1420004Y8165000D01*
X1406674D01*
X1400008Y8168333D01*
X1393343Y8174998D01*
X1390010Y8181663D01*
X1363683Y8234985D02*
X1327024D01*
X1347020Y8208324D01*
X1337022D01*
X1330356Y8204991D01*
X1327024Y8201659D01*
X1323691Y8191661D01*
Y8184996D01*
X1327024Y8174998D01*
X1333689Y8168333D01*
X1343687Y8165000D01*
X1353685D01*
X1363683Y8168333D01*
X1367015Y8171665D01*
X1370348Y8178330D01*
X1308028Y8221655D02*
X1301363Y8224987D01*
X1291365Y8234985D01*
Y8165000D01*
X1663322Y8352490D02*
X1669987Y8349157D01*
X1676652Y8342492D01*
X1679985Y8335826D01*
Y8322496D01*
X1676652Y8315830D01*
X1669987Y8309165D01*
X1663322Y8305833D01*
X1653324Y8302500D01*
X1636661D01*
X1626663Y8305833D01*
X1619998Y8309165D01*
X1613333Y8315830D01*
X1610000Y8322496D01*
Y8335826D01*
X1613333Y8342492D01*
X1619998Y8349157D01*
X1626663Y8352490D01*
X1679985Y8378817D02*
Y8415476D01*
X1653324Y8395480D01*
Y8405478D01*
X1649992Y8412143D01*
X1646659Y8415476D01*
X1636661Y8418809D01*
X1629996D01*
X1619998Y8415476D01*
X1613333Y8408811D01*
X1610000Y8398813D01*
Y8388815D01*
X1613333Y8378817D01*
X1616665Y8375485D01*
X1623331Y8372152D01*
X1679985Y8454468D02*
X1676652Y8444470D01*
X1666655Y8437805D01*
X1649992Y8434472D01*
X1639994D01*
X1623331Y8437805D01*
X1613333Y8444470D01*
X1610000Y8454468D01*
Y8461133D01*
X1613333Y8471131D01*
X1623331Y8477796D01*
X1639994Y8481129D01*
X1649992D01*
X1666655Y8477796D01*
X1676652Y8471131D01*
X1679985Y8461133D01*
Y8454468D01*
X4716793Y5048087D02*
X4719174Y5052848D01*
X4723935Y5057609D01*
X4728696Y5059989D01*
X4738217D01*
X4742978Y5057609D01*
X4747739Y5052848D01*
X4750120Y5048087D01*
X4752500Y5040945D01*
Y5029043D01*
X4750120Y5021902D01*
X4747739Y5017141D01*
X4742978Y5012380D01*
X4738217Y5010000D01*
X4728696D01*
X4723935Y5012380D01*
X4719174Y5017141D01*
X4716793Y5021902D01*
X4700368Y5048087D02*
Y5050467D01*
X4697988Y5055228D01*
X4695608Y5057609D01*
X4690847Y5059989D01*
X4681325D01*
X4676564Y5057609D01*
X4674183Y5055228D01*
X4671803Y5050467D01*
Y5045706D01*
X4674183Y5040945D01*
X4678944Y5033804D01*
X4702749Y5010000D01*
X4669423D01*
X4627289Y5043326D02*
X4629669Y5036185D01*
X4634430Y5031424D01*
X4641571Y5029043D01*
X4643952D01*
X4651093Y5031424D01*
X4655854Y5036185D01*
X4658235Y5043326D01*
Y5045706D01*
X4655854Y5052848D01*
X4651093Y5057609D01*
X4643952Y5059989D01*
X4641571D01*
X4634430Y5057609D01*
X4629669Y5052848D01*
X4627289Y5043326D01*
Y5031424D01*
X4629669Y5019522D01*
X4634430Y5012380D01*
X4641571Y5010000D01*
X4646332D01*
X4653474Y5012380D01*
X4655854Y5017141D01*
X4714293Y5458087D02*
X4716674Y5462848D01*
X4721435Y5467609D01*
X4726196Y5469989D01*
X4735717D01*
X4740478Y5467609D01*
X4745239Y5462848D01*
X4747619Y5458087D01*
X4750000Y5450946D01*
Y5439043D01*
X4747619Y5431902D01*
X4745239Y5427141D01*
X4740478Y5422381D01*
X4735717Y5420000D01*
X4726196D01*
X4721435Y5422381D01*
X4716674Y5427141D01*
X4714293Y5431902D01*
X4697868Y5458087D02*
Y5460468D01*
X4695488Y5465228D01*
X4693107Y5467609D01*
X4688346Y5469989D01*
X4678825D01*
X4674064Y5467609D01*
X4671683Y5465228D01*
X4669303Y5460468D01*
Y5455707D01*
X4671683Y5450946D01*
X4676444Y5443804D01*
X4700249Y5420000D01*
X4666923D01*
X4643832Y5469989D02*
X4650973Y5467609D01*
X4653354Y5462848D01*
Y5458087D01*
X4650973Y5453326D01*
X4646213Y5450946D01*
X4636691Y5448565D01*
X4629550Y5446185D01*
X4624789Y5441424D01*
X4622408Y5436663D01*
Y5429522D01*
X4624789Y5424761D01*
X4627169Y5422381D01*
X4634311Y5420000D01*
X4643832D01*
X4650973Y5422381D01*
X4653354Y5424761D01*
X4655734Y5429522D01*
Y5436663D01*
X4653354Y5441424D01*
X4648593Y5446185D01*
X4641452Y5448565D01*
X4631930Y5450946D01*
X4627169Y5453326D01*
X4624789Y5458087D01*
Y5462848D01*
X4627169Y5467609D01*
X4634311Y5469989D01*
X4643832D01*
X2731678Y3097510D02*
X2725013Y3100843D01*
X2718348Y3107508D01*
X2715015Y3114174D01*
Y3127504D01*
X2718348Y3134170D01*
X2725013Y3140835D01*
X2731678Y3144167D01*
X2741676Y3147500D01*
X2758339D01*
X2768337Y3144167D01*
X2775002Y3140835D01*
X2781667Y3134170D01*
X2785000Y3127504D01*
Y3114174D01*
X2781667Y3107508D01*
X2775002Y3100843D01*
X2768337Y3097510D01*
X2731678Y3074515D02*
X2728345D01*
X2721680Y3071183D01*
X2718348Y3067850D01*
X2715015Y3061185D01*
Y3047854D01*
X2718348Y3041189D01*
X2721680Y3037857D01*
X2728345Y3034524D01*
X2735011D01*
X2741676Y3037857D01*
X2751674Y3044522D01*
X2785000Y3077848D01*
Y3031191D01*
X2715015Y2968871D02*
X2785000Y3002197D01*
X2715015Y3015528D02*
Y2968871D01*
X5519294Y5323087D02*
X5521674Y5327848D01*
X5526435Y5332609D01*
X5531196Y5334989D01*
X5540717D01*
X5545478Y5332609D01*
X5550239Y5327848D01*
X5552620Y5323087D01*
X5555000Y5315946D01*
Y5304043D01*
X5552620Y5296902D01*
X5550239Y5292141D01*
X5545478Y5287381D01*
X5540717Y5285000D01*
X5531196D01*
X5526435Y5287381D01*
X5521674Y5292141D01*
X5519294Y5296902D01*
X5502868Y5323087D02*
Y5325468D01*
X5500488Y5330228D01*
X5498108Y5332609D01*
X5493347Y5334989D01*
X5483825D01*
X5479064Y5332609D01*
X5476683Y5330228D01*
X5474303Y5325468D01*
Y5320707D01*
X5476683Y5315946D01*
X5481444Y5308804D01*
X5505249Y5285000D01*
X5471923D01*
X5432169Y5327848D02*
X5434550Y5332609D01*
X5441691Y5334989D01*
X5446452D01*
X5453593Y5332609D01*
X5458354Y5325468D01*
X5460735Y5313565D01*
Y5301663D01*
X5458354Y5292141D01*
X5453593Y5287381D01*
X5446452Y5285000D01*
X5444071D01*
X5436930Y5287381D01*
X5432169Y5292141D01*
X5429789Y5299283D01*
Y5301663D01*
X5432169Y5308804D01*
X5436930Y5313565D01*
X5444071Y5315946D01*
X5446452D01*
X5453593Y5313565D01*
X5458354Y5308804D01*
X5460735Y5301663D01*
X3525822Y3009989D02*
X3532487Y3006657D01*
X3539152Y2999991D01*
X3542485Y2993326D01*
Y2979996D01*
X3539152Y2973330D01*
X3532487Y2966665D01*
X3525822Y2963333D01*
X3515824Y2960000D01*
X3499161D01*
X3489163Y2963333D01*
X3482498Y2966665D01*
X3475833Y2973330D01*
X3472500Y2979996D01*
Y2993326D01*
X3475833Y2999991D01*
X3482498Y3006657D01*
X3489163Y3009989D01*
X3525822Y3032985D02*
X3529155D01*
X3535820Y3036317D01*
X3539152Y3039650D01*
X3542485Y3046315D01*
Y3059645D01*
X3539152Y3066311D01*
X3535820Y3069643D01*
X3529155Y3072976D01*
X3522490D01*
X3515824Y3069643D01*
X3505826Y3062978D01*
X3472500Y3029652D01*
Y3076309D01*
X3542485Y3131964D02*
Y3098637D01*
X3512492Y3095305D01*
X3515824Y3098637D01*
X3519157Y3108635D01*
Y3118633D01*
X3515824Y3128631D01*
X3509159Y3135296D01*
X3499161Y3138629D01*
X3492496D01*
X3482498Y3135296D01*
X3475833Y3128631D01*
X3472500Y3118633D01*
Y3108635D01*
X3475833Y3098637D01*
X3479165Y3095305D01*
X3485830Y3091972D01*
X5541793Y5710587D02*
X5544174Y5715348D01*
X5548935Y5720109D01*
X5553696Y5722489D01*
X5563217D01*
X5567978Y5720109D01*
X5572739Y5715348D01*
X5575119Y5710587D01*
X5577500Y5703446D01*
Y5691543D01*
X5575119Y5684402D01*
X5572739Y5679641D01*
X5567978Y5674880D01*
X5563217Y5672500D01*
X5553696D01*
X5548935Y5674880D01*
X5544174Y5679641D01*
X5541793Y5684402D01*
X5525368Y5710587D02*
Y5712967D01*
X5522988Y5717728D01*
X5520607Y5720109D01*
X5515846Y5722489D01*
X5506325D01*
X5501564Y5720109D01*
X5499183Y5717728D01*
X5496803Y5712967D01*
Y5708207D01*
X5499183Y5703446D01*
X5503944Y5696304D01*
X5527749Y5672500D01*
X5494423D01*
X5459430Y5722489D02*
X5483234Y5689163D01*
X5447528D01*
X5459430Y5722489D02*
Y5672500D01*
X4827511Y4030822D02*
X4830843Y4037487D01*
X4837508Y4044152D01*
X4844174Y4047485D01*
X4857504D01*
X4864170Y4044152D01*
X4870835Y4037487D01*
X4874167Y4030822D01*
X4877500Y4020824D01*
Y4004161D01*
X4874167Y3994163D01*
X4870835Y3987498D01*
X4864170Y3980833D01*
X4857504Y3977500D01*
X4844174D01*
X4837508Y3980833D01*
X4830843Y3987498D01*
X4827511Y3994163D01*
X4804515Y4030822D02*
Y4034155D01*
X4801183Y4040820D01*
X4797850Y4044152D01*
X4791185Y4047485D01*
X4777855D01*
X4771189Y4044152D01*
X4767857Y4040820D01*
X4764524Y4034155D01*
Y4027490D01*
X4767857Y4020824D01*
X4774522Y4010826D01*
X4807848Y3977500D01*
X4761191D01*
X4738863Y4047485D02*
X4702204D01*
X4722200Y4020824D01*
X4712202D01*
X4705536Y4017492D01*
X4702204Y4014159D01*
X4698871Y4004161D01*
Y3997496D01*
X4702204Y3987498D01*
X4708869Y3980833D01*
X4718867Y3977500D01*
X4728865D01*
X4738863Y3980833D01*
X4742195Y3984165D01*
X4745528Y3990830D01*
X6013087Y3090707D02*
X6017848Y3088326D01*
X6022609Y3083565D01*
X6024989Y3078804D01*
Y3069283D01*
X6022609Y3064522D01*
X6017848Y3059761D01*
X6013087Y3057380D01*
X6005946Y3055000D01*
X5994043D01*
X5986902Y3057380D01*
X5982141Y3059761D01*
X5977380Y3064522D01*
X5975000Y3069283D01*
Y3078804D01*
X5977380Y3083565D01*
X5982141Y3088326D01*
X5986902Y3090707D01*
X6013087Y3107132D02*
X6015468D01*
X6020228Y3109512D01*
X6022609Y3111892D01*
X6024989Y3116653D01*
Y3126175D01*
X6022609Y3130936D01*
X6020228Y3133317D01*
X6015468Y3135697D01*
X6010707D01*
X6005946Y3133317D01*
X5998804Y3128556D01*
X5975000Y3104751D01*
Y3138077D01*
X6013087Y3151646D02*
X6015468D01*
X6020228Y3154026D01*
X6022609Y3156407D01*
X6024989Y3161168D01*
Y3170689D01*
X6022609Y3175450D01*
X6020228Y3177831D01*
X6015468Y3180211D01*
X6010707D01*
X6005946Y3177831D01*
X5998804Y3173070D01*
X5975000Y3149265D01*
Y3182592D01*
X4800010Y4763322D02*
X4803343Y4769987D01*
X4810008Y4776652D01*
X4816674Y4779985D01*
X4830004D01*
X4836670Y4776652D01*
X4843335Y4769987D01*
X4846667Y4763322D01*
X4850000Y4753324D01*
Y4736661D01*
X4846667Y4726663D01*
X4843335Y4719998D01*
X4836670Y4713333D01*
X4830004Y4710000D01*
X4816674D01*
X4810008Y4713333D01*
X4803343Y4719998D01*
X4800010Y4726663D01*
X4777015Y4763322D02*
Y4766655D01*
X4773683Y4773320D01*
X4770350Y4776652D01*
X4763685Y4779985D01*
X4750354D01*
X4743689Y4776652D01*
X4740357Y4773320D01*
X4737024Y4766655D01*
Y4759989D01*
X4740357Y4753324D01*
X4747022Y4743326D01*
X4780348Y4710000D01*
X4733691D01*
X4718028Y4766655D02*
X4711363Y4769987D01*
X4701365Y4779985D01*
Y4710000D01*
X943935Y3140469D02*
X945839Y3144278D01*
X949648Y3148087D01*
X953457Y3149991D01*
X961074D01*
X964883Y3148087D01*
X968691Y3144278D01*
X970596Y3140469D01*
X972500Y3134756D01*
Y3125235D01*
X970596Y3119522D01*
X968691Y3115713D01*
X964883Y3111904D01*
X961074Y3110000D01*
X953457D01*
X949648Y3111904D01*
X945839Y3115713D01*
X943935Y3119522D01*
X907942Y3136661D02*
X909847Y3130948D01*
X913656Y3127139D01*
X919368Y3125235D01*
X921273D01*
X926986Y3127139D01*
X930795Y3130948D01*
X932699Y3136661D01*
Y3138565D01*
X930795Y3144278D01*
X926986Y3148087D01*
X921273Y3149991D01*
X919368D01*
X913656Y3148087D01*
X909847Y3144278D01*
X907942Y3136661D01*
Y3127139D01*
X909847Y3117617D01*
X913656Y3111904D01*
X919368Y3110000D01*
X923177D01*
X928890Y3111904D01*
X930795Y3115713D01*
X444178Y8540011D02*
X437513Y8543343D01*
X430847Y8550009D01*
X427515Y8556674D01*
Y8570004D01*
X430847Y8576670D01*
X437513Y8583335D01*
X444178Y8586667D01*
X454176Y8590000D01*
X470839D01*
X480837Y8586667D01*
X487502Y8583335D01*
X494167Y8576670D01*
X497500Y8570004D01*
Y8556674D01*
X494167Y8550009D01*
X487502Y8543343D01*
X480837Y8540011D01*
X427515Y8503685D02*
X430847Y8513683D01*
X437513Y8517015D01*
X444178D01*
X450843Y8513683D01*
X454176Y8507018D01*
X457508Y8493687D01*
X460841Y8483689D01*
X467506Y8477024D01*
X474172Y8473691D01*
X484169D01*
X490835Y8477024D01*
X494167Y8480357D01*
X497500Y8490355D01*
Y8503685D01*
X494167Y8513683D01*
X490835Y8517015D01*
X484169Y8520348D01*
X474172D01*
X467506Y8517015D01*
X460841Y8510350D01*
X457508Y8500353D01*
X454176Y8487022D01*
X450843Y8480357D01*
X444178Y8477024D01*
X437513D01*
X430847Y8480357D01*
X427515Y8490355D01*
Y8503685D01*
X945822Y2434990D02*
X952487Y2431657D01*
X959153Y2424992D01*
X962485Y2418326D01*
Y2404996D01*
X959153Y2398330D01*
X952487Y2391665D01*
X945822Y2388333D01*
X935824Y2385000D01*
X919161D01*
X909163Y2388333D01*
X902498Y2391665D01*
X895833Y2398330D01*
X892500Y2404996D01*
Y2418326D01*
X895833Y2424992D01*
X902498Y2431657D01*
X909163Y2434990D01*
X962485Y2494643D02*
Y2461317D01*
X932492Y2457985D01*
X935824Y2461317D01*
X939157Y2471315D01*
Y2481313D01*
X935824Y2491311D01*
X929159Y2497976D01*
X919161Y2501309D01*
X912496D01*
X902498Y2497976D01*
X895833Y2491311D01*
X892500Y2481313D01*
Y2471315D01*
X895833Y2461317D01*
X899165Y2457985D01*
X905831Y2454652D01*
X434178Y8942510D02*
X427513Y8945843D01*
X420848Y8952508D01*
X417515Y8959174D01*
Y8972504D01*
X420848Y8979169D01*
X427513Y8985835D01*
X434178Y8989167D01*
X444176Y8992500D01*
X460839D01*
X470837Y8989167D01*
X477502Y8985835D01*
X484167Y8979169D01*
X487500Y8972504D01*
Y8959174D01*
X484167Y8952508D01*
X477502Y8945843D01*
X470837Y8942510D01*
X417515Y8876191D02*
X487500Y8909518D01*
X417515Y8922848D02*
Y8876191D01*
X2637511Y2900822D02*
X2640843Y2907487D01*
X2647509Y2914152D01*
X2654174Y2917485D01*
X2667504D01*
X2674170Y2914152D01*
X2680835Y2907487D01*
X2684167Y2900822D01*
X2687500Y2890824D01*
Y2874161D01*
X2684167Y2864163D01*
X2680835Y2857498D01*
X2674170Y2850833D01*
X2667504Y2847500D01*
X2654174D01*
X2647509Y2850833D01*
X2640843Y2857498D01*
X2637511Y2864163D01*
X2577857Y2907487D02*
X2581189Y2914152D01*
X2591187Y2917485D01*
X2597853D01*
X2607850Y2914152D01*
X2614515Y2904155D01*
X2617848Y2887492D01*
Y2870828D01*
X2614515Y2857498D01*
X2607850Y2850833D01*
X2597853Y2847500D01*
X2594520D01*
X2584522Y2850833D01*
X2577857Y2857498D01*
X2574524Y2867496D01*
Y2870828D01*
X2577857Y2880826D01*
X2584522Y2887492D01*
X2594520Y2890824D01*
X2597853D01*
X2607850Y2887492D01*
X2614515Y2880826D01*
X2617848Y2870828D01*
X5852511Y3660822D02*
X5855843Y3667487D01*
X5862508Y3674152D01*
X5869174Y3677485D01*
X5882504D01*
X5889170Y3674152D01*
X5895835Y3667487D01*
X5899167Y3660822D01*
X5902500Y3650824D01*
Y3634161D01*
X5899167Y3624163D01*
X5895835Y3617498D01*
X5889170Y3610833D01*
X5882504Y3607500D01*
X5869174D01*
X5862508Y3610833D01*
X5855843Y3617498D01*
X5852511Y3624163D01*
X5829515Y3660822D02*
Y3664155D01*
X5826183Y3670820D01*
X5822850Y3674152D01*
X5816185Y3677485D01*
X5802855D01*
X5796189Y3674152D01*
X5792857Y3670820D01*
X5789524Y3664155D01*
Y3657490D01*
X5792857Y3650824D01*
X5799522Y3640826D01*
X5832848Y3607500D01*
X5786191D01*
X5750532Y3677485D02*
X5760530Y3674152D01*
X5767195Y3664155D01*
X5770528Y3647492D01*
Y3637494D01*
X5767195Y3620830D01*
X5760530Y3610833D01*
X5750532Y3607500D01*
X5743867D01*
X5733869Y3610833D01*
X5727204Y3620830D01*
X5723871Y3637494D01*
Y3647492D01*
X5727204Y3664155D01*
X5733869Y3674152D01*
X5743867Y3677485D01*
X5750532D01*
X632511Y6900822D02*
X635843Y6907487D01*
X642508Y6914152D01*
X649174Y6917485D01*
X662504D01*
X669170Y6914152D01*
X675835Y6907487D01*
X679167Y6900822D01*
X682500Y6890824D01*
Y6874161D01*
X679167Y6864163D01*
X675835Y6857498D01*
X669170Y6850833D01*
X662504Y6847500D01*
X649174D01*
X642508Y6850833D01*
X635843Y6857498D01*
X632511Y6864163D01*
X612848Y6904155D02*
X606183Y6907487D01*
X596185Y6917485D01*
Y6847500D01*
X544863Y6917485D02*
X554860Y6914152D01*
X558193Y6907487D01*
Y6900822D01*
X554860Y6894157D01*
X548195Y6890824D01*
X534865Y6887491D01*
X524867Y6884159D01*
X518202Y6877493D01*
X514869Y6870828D01*
Y6860830D01*
X518202Y6854165D01*
X521534Y6850833D01*
X531532Y6847500D01*
X544863D01*
X554860Y6850833D01*
X558193Y6854165D01*
X561526Y6860830D01*
Y6870828D01*
X558193Y6877493D01*
X551528Y6884159D01*
X541530Y6887491D01*
X528199Y6890824D01*
X521534Y6894157D01*
X518202Y6900822D01*
Y6907487D01*
X521534Y6914152D01*
X531532Y6917485D01*
X544863D01*
X532510Y3145822D02*
X535843Y3152487D01*
X542508Y3159152D01*
X549174Y3162485D01*
X562504D01*
X569170Y3159152D01*
X575835Y3152487D01*
X579167Y3145822D01*
X582500Y3135824D01*
Y3119161D01*
X579167Y3109163D01*
X575835Y3102498D01*
X569170Y3095833D01*
X562504Y3092500D01*
X549174D01*
X542508Y3095833D01*
X535843Y3102498D01*
X532510Y3109163D01*
X512848Y3149155D02*
X506183Y3152487D01*
X496185Y3162485D01*
Y3092500D01*
X418202Y3139157D02*
X421534Y3129159D01*
X428199Y3122494D01*
X438197Y3119161D01*
X441530D01*
X451528Y3122494D01*
X458193Y3129159D01*
X461526Y3139157D01*
Y3142490D01*
X458193Y3152487D01*
X451528Y3159152D01*
X441530Y3162485D01*
X438197D01*
X428199Y3159152D01*
X421534Y3152487D01*
X418202Y3139157D01*
Y3122494D01*
X421534Y3105830D01*
X428199Y3095833D01*
X438197Y3092500D01*
X444862D01*
X454860Y3095833D01*
X458193Y3102498D01*
X3190822Y6817490D02*
X3197487Y6814157D01*
X3204152Y6807492D01*
X3207485Y6800826D01*
Y6787496D01*
X3204152Y6780830D01*
X3197487Y6774165D01*
X3190822Y6770833D01*
X3180824Y6767500D01*
X3164161D01*
X3154163Y6770833D01*
X3147498Y6774165D01*
X3140833Y6780830D01*
X3137500Y6787496D01*
Y6800826D01*
X3140833Y6807492D01*
X3147498Y6814157D01*
X3154163Y6817490D01*
X3194155Y6837152D02*
X3197487Y6843817D01*
X3207485Y6853815D01*
X3137500D01*
X3207485Y6921801D02*
X3160828Y6888474D01*
Y6938464D01*
X3207485Y6921801D02*
X3137500D01*
X3672511Y7305822D02*
X3675843Y7312487D01*
X3682509Y7319152D01*
X3689174Y7322485D01*
X3702504D01*
X3709170Y7319152D01*
X3715835Y7312487D01*
X3719167Y7305822D01*
X3722500Y7295824D01*
Y7279161D01*
X3719167Y7269163D01*
X3715835Y7262498D01*
X3709170Y7255833D01*
X3702504Y7252500D01*
X3689174D01*
X3682509Y7255833D01*
X3675843Y7262498D01*
X3672511Y7269163D01*
X3652848Y7309155D02*
X3646183Y7312487D01*
X3636185Y7322485D01*
Y7252500D01*
X3594860Y7322485D02*
X3558202D01*
X3578197Y7295824D01*
X3568199D01*
X3561534Y7292492D01*
X3558202Y7289159D01*
X3554869Y7279161D01*
Y7272496D01*
X3558202Y7262498D01*
X3564867Y7255833D01*
X3574865Y7252500D01*
X3584863D01*
X3594860Y7255833D01*
X3598193Y7259165D01*
X3601526Y7265831D01*
X3205822Y7124990D02*
X3212487Y7121657D01*
X3219152Y7114992D01*
X3222485Y7108326D01*
Y7094996D01*
X3219152Y7088331D01*
X3212487Y7081665D01*
X3205822Y7078333D01*
X3195824Y7075000D01*
X3179161D01*
X3169163Y7078333D01*
X3162498Y7081665D01*
X3155833Y7088331D01*
X3152500Y7094996D01*
Y7108326D01*
X3155833Y7114992D01*
X3162498Y7121657D01*
X3169163Y7124990D01*
X3209155Y7144652D02*
X3212487Y7151317D01*
X3222485Y7161315D01*
X3152500D01*
X3222485Y7215970D02*
X3219152Y7205972D01*
X3209155Y7199307D01*
X3192491Y7195974D01*
X3182494D01*
X3165830Y7199307D01*
X3155833Y7205972D01*
X3152500Y7215970D01*
Y7222636D01*
X3155833Y7232633D01*
X3165830Y7239298D01*
X3182494Y7242631D01*
X3192491D01*
X3209155Y7239298D01*
X3219152Y7232633D01*
X3222485Y7222636D01*
Y7215970D01*
X1865822Y6749990D02*
X1872487Y6746657D01*
X1879152Y6739992D01*
X1882485Y6733326D01*
Y6719996D01*
X1879152Y6713330D01*
X1872487Y6706665D01*
X1865822Y6703333D01*
X1855824Y6700000D01*
X1839161D01*
X1829163Y6703333D01*
X1822498Y6706665D01*
X1815833Y6713330D01*
X1812500Y6719996D01*
Y6733326D01*
X1815833Y6739992D01*
X1822498Y6746657D01*
X1829163Y6749990D01*
X1869155Y6769652D02*
X1872487Y6776317D01*
X1882485Y6786315D01*
X1812500D01*
X1882485Y6867631D02*
X1812500Y6834305D01*
X1882485Y6820974D02*
Y6867631D01*
X1550011Y6675822D02*
X1553343Y6682487D01*
X1560009Y6689152D01*
X1566674Y6692485D01*
X1580004D01*
X1586670Y6689152D01*
X1593335Y6682487D01*
X1596667Y6675822D01*
X1600000Y6665824D01*
Y6649161D01*
X1596667Y6639163D01*
X1593335Y6632498D01*
X1586670Y6625833D01*
X1580004Y6622500D01*
X1566674D01*
X1560009Y6625833D01*
X1553343Y6632498D01*
X1550011Y6639163D01*
X1530348Y6679155D02*
X1523683Y6682487D01*
X1513685Y6692485D01*
Y6622500D01*
X1439034Y6682487D02*
X1442367Y6689152D01*
X1452365Y6692485D01*
X1459030D01*
X1469028Y6689152D01*
X1475693Y6679155D01*
X1479026Y6662492D01*
Y6645828D01*
X1475693Y6632498D01*
X1469028Y6625833D01*
X1459030Y6622500D01*
X1455697D01*
X1445699Y6625833D01*
X1439034Y6632498D01*
X1435702Y6642496D01*
Y6645828D01*
X1439034Y6655826D01*
X1445699Y6662492D01*
X1455697Y6665824D01*
X1459030D01*
X1469028Y6662492D01*
X1475693Y6655826D01*
X1479026Y6645828D01*
X1261678Y6797510D02*
X1255013Y6800843D01*
X1248348Y6807508D01*
X1245015Y6814174D01*
Y6827504D01*
X1248348Y6834169D01*
X1255013Y6840835D01*
X1261678Y6844167D01*
X1271676Y6847500D01*
X1288339D01*
X1298337Y6844167D01*
X1305002Y6840835D01*
X1311667Y6834169D01*
X1315000Y6827504D01*
Y6814174D01*
X1311667Y6807508D01*
X1305002Y6800843D01*
X1298337Y6797510D01*
X1258345Y6777848D02*
X1255013Y6771183D01*
X1245015Y6761185D01*
X1315000D01*
X1245015Y6686534D02*
Y6719860D01*
X1275008Y6723193D01*
X1271676Y6719860D01*
X1268343Y6709862D01*
Y6699864D01*
X1271676Y6689867D01*
X1278341Y6683202D01*
X1288339Y6679869D01*
X1295004D01*
X1305002Y6683202D01*
X1311667Y6689867D01*
X1315000Y6699864D01*
Y6709862D01*
X1311667Y6719860D01*
X1308335Y6723193D01*
X1301669Y6726526D01*
X3680822Y7869990D02*
X3687487Y7866657D01*
X3694152Y7859992D01*
X3697485Y7853326D01*
Y7839996D01*
X3694152Y7833331D01*
X3687487Y7826665D01*
X3680822Y7823333D01*
X3670824Y7820000D01*
X3654161D01*
X3644163Y7823333D01*
X3637498Y7826665D01*
X3630833Y7833331D01*
X3627500Y7839996D01*
Y7853326D01*
X3630833Y7859992D01*
X3637498Y7866657D01*
X3644163Y7869990D01*
X3684155Y7889652D02*
X3687487Y7896317D01*
X3697485Y7906315D01*
X3627500D01*
X3684155Y7940974D02*
X3687487Y7947640D01*
X3697485Y7957638D01*
X3627500D01*
X3455011Y8123322D02*
X3458343Y8129987D01*
X3465009Y8136653D01*
X3471674Y8139985D01*
X3485004D01*
X3491670Y8136653D01*
X3498335Y8129987D01*
X3501667Y8123322D01*
X3505000Y8113324D01*
Y8096661D01*
X3501667Y8086663D01*
X3498335Y8079998D01*
X3491670Y8073333D01*
X3485004Y8070000D01*
X3471674D01*
X3465009Y8073333D01*
X3458343Y8079998D01*
X3455011Y8086663D01*
X3435348Y8126655D02*
X3428683Y8129987D01*
X3418685Y8139985D01*
Y8070000D01*
X3380693Y8123322D02*
Y8126655D01*
X3377361Y8133320D01*
X3374028Y8136653D01*
X3367363Y8139985D01*
X3354032D01*
X3347367Y8136653D01*
X3344034Y8133320D01*
X3340702Y8126655D01*
Y8119990D01*
X3344034Y8113324D01*
X3350699Y8103326D01*
X3384026Y8070000D01*
X3337369D01*
X7053343Y8977487D02*
X7060008Y8984152D01*
X7070006Y8987485D01*
X7083337D01*
X7093335Y8984152D01*
X7100000Y8977487D01*
Y8970822D01*
X7096667Y8964157D01*
X7093335Y8960824D01*
X7086670Y8957492D01*
X7066674Y8950826D01*
X7060008Y8947494D01*
X7056676Y8944161D01*
X7053343Y8937496D01*
Y8927498D01*
X7060008Y8920833D01*
X7070006Y8917500D01*
X7083337D01*
X7093335Y8920833D01*
X7100000Y8927498D01*
X7014351Y8987485D02*
Y8917500D01*
X7037680Y8987485D02*
X6991023D01*
X6982692D02*
Y8917500D01*
Y8987485D02*
X6956031Y8917500D01*
X6929370Y8987485D02*
X6956031Y8917500D01*
X6929370Y8987485D02*
Y8917500D01*
X6902709Y8987485D02*
X6866050D01*
X6886045Y8960824D01*
X6876047D01*
X6869382Y8957492D01*
X6866050Y8954159D01*
X6862717Y8944161D01*
Y8937496D01*
X6866050Y8927498D01*
X6872715Y8920833D01*
X6882713Y8917500D01*
X6892711D01*
X6902709Y8920833D01*
X6906041Y8924165D01*
X6909374Y8930830D01*
X6843721Y8970822D02*
Y8974155D01*
X6840388Y8980820D01*
X6837056Y8984152D01*
X6830390Y8987485D01*
X6817060D01*
X6810395Y8984152D01*
X6807062Y8980820D01*
X6803730Y8974155D01*
Y8967490D01*
X6807062Y8960824D01*
X6813727Y8950826D01*
X6847054Y8917500D01*
X6800397D01*
X6784733Y8987485D02*
Y8917500D01*
X6744742D01*
X6703751Y8987485D02*
X6737077Y8940828D01*
X6687087D01*
X6703751Y8987485D02*
Y8917500D01*
X6674757Y8987485D02*
Y8917500D01*
Y8987485D02*
X6644763D01*
X6634765Y8984152D01*
X6631433Y8980820D01*
X6628100Y8974155D01*
Y8967490D01*
X6631433Y8960824D01*
X6634765Y8957492D01*
X6644763Y8954159D01*
X6674757D01*
X6651428D02*
X6628100Y8917500D01*
X6572445Y8987485D02*
X6605771D01*
X6609104Y8957492D01*
X6605771Y8960824D01*
X6595773Y8964157D01*
X6585775D01*
X6575778Y8960824D01*
X6569113Y8954159D01*
X6565780Y8944161D01*
Y8937496D01*
X6569113Y8927498D01*
X6575778Y8920833D01*
X6585775Y8917500D01*
X6595773D01*
X6605771Y8920833D01*
X6609104Y8924165D01*
X6612437Y8930830D01*
X6530121Y8987485D02*
X6536786Y8984152D01*
X6543451Y8977487D01*
X6546784Y8970822D01*
X6550116Y8960824D01*
Y8944161D01*
X6546784Y8934163D01*
X6543451Y8927498D01*
X6536786Y8920833D01*
X6530121Y8917500D01*
X6516790D01*
X6510125Y8920833D01*
X6503460Y8927498D01*
X6500127Y8934163D01*
X6496794Y8944161D01*
Y8960824D01*
X6500127Y8970822D01*
X6503460Y8977487D01*
X6510125Y8984152D01*
X6516790Y8987485D01*
X6530121D01*
X6520123Y8930830D02*
X6500127Y8910835D01*
X6480465Y8987485D02*
Y8917500D01*
X6465801Y8987485D02*
Y8917500D01*
X6411146Y8977487D02*
X6414478Y8984152D01*
X6424476Y8987485D01*
X6431142D01*
X6441139Y8984152D01*
X6447804Y8974155D01*
X6451137Y8957492D01*
Y8940828D01*
X6447804Y8927498D01*
X6441139Y8920833D01*
X6431142Y8917500D01*
X6427809D01*
X6417811Y8920833D01*
X6411146Y8927498D01*
X6407813Y8937496D01*
Y8940828D01*
X6411146Y8950826D01*
X6417811Y8957492D01*
X6427809Y8960824D01*
X6431142D01*
X6441139Y8957492D01*
X6447804Y8950826D01*
X6451137Y8940828D01*
%TF.MD5,9779e260c536fe141635e73ceb8ff904*%
M02*
